<svg width="320" height="476" viewBox="0 0 320 476" fill="none" xmlns="http://www.w3.org/2000/svg"><rect y="94.347" width="311.248" height="320.002" rx="32" fill="#EDEEF0"/><rect x="12.029" y="105.006" width="287.652" height="298.415" rx="32" fill="#C5C6C8"/><path d="M310.662 223.841a7.385 7.385 0 0 1 7.385 7.385v28.027a7.384 7.384 0 0 1-7.385 7.384v-42.796Zm.108-77.944h1.231a8 8 0 0 1 8 8v46.25a8 8 0 0 1-8 8h-1.231v-62.25Z" fill="#C5C6C8"/><path d="M54.469 414.349H256.78c0 33.842-27.435 61.277-61.277 61.277h-79.757c-33.843 0-61.277-27.435-61.277-61.277ZM256.779 95.32H54.468V64c0-35.347 28.654-64 64-64h74.311c35.346 0 64 28.653 64 64v31.32Z" fill="#D4D5D7"/></svg>