<svg width="38" height="48" viewBox="0 0 38 48" fill="none" xmlns="http://www.w3.org/2000/svg"><path d="M30.26 24c0 6.222-5.038 11.26-11.26 11.26V24h11.26ZM19 12.74V24H7.74c0-6.222 5.038-11.26 11.26-11.26Z" fill="#0166B1"/><path d="M19 12.74c6.222 0 11.26 5.038 11.26 11.26H19V12.74ZM7.74 24H19v11.26A11.254 11.254 0 0 1 7.74 24Z" fill="#fff"/><path d="M19 12.74v.618c5.867 0 10.642 4.773 10.642 10.642h.617c0-6.218-5.041-11.26-11.259-11.26Zm0 21.902c-5.867 0-10.642-4.774-10.642-10.642h-.617c0 6.218 5.041 11.26 11.259 11.26M19 5C8.507 5 0 13.507 0 24s8.507 19 19 19 19-8.507 19-19S29.493 5 19 5Zm17.764 19c0 9.81-7.952 17.764-17.764 17.764S1.236 33.811 1.236 24C1.236 14.19 9.189 6.236 19 6.236c9.81 0 17.764 7.953 17.764 17.764Z" fill="#6F6F6F"/><path d="M10.88 14.834c.608-.635.951-1.369.344-2.07-.33-.38-.885-.463-1.345-.275l-.045.017.014-.04c.068-.18.112-.757-.383-1.154a1.15 1.15 0 0 0-.85-.236c-.57.058-1.008.445-2.202 1.767-.36.4-.885 1.029-1.2 1.437l3.28 3.09c1.087-1.195 1.53-1.64 2.387-2.536Zm-4.28-.756c.661-.802 1.363-1.53 1.681-1.819.1-.09.21-.182.343-.217.215-.059.437.093.487.313.05.22-.089.43-.244.602-.35.392-1.63 1.723-1.63 1.723l-.637-.602Zm1.285 1.21s1.248-1.31 1.655-1.729c.162-.166.266-.267.377-.321.144-.07.302-.084.442.009.139.092.202.25.168.408-.042.187-.196.365-.323.502L8.55 15.915l-.665-.626Zm11.49-4.14 1.05-2.336.067-.207-.019.216.11 3.122c.369.035.75.086 1.125.148l-.171-4.625a23.47 23.47 0 0 0-1.57-.12l-1.034 2.55-.037.19-.037-.19-1.033-2.55c-.522.022-1.045.063-1.57.12l-.17 4.625c.375-.062.756-.112 1.124-.148l.11-3.122-.019-.216.067.207 1.05 2.337h.957Zm8.722 4.834c.258.275.63.719.838.988l3.844-2.423a25.31 25.31 0 0 0-.726-.896l-2.434 1.599-.167.142.124-.18 1.075-2.13-.76-.755-2.146 1.067-.181.123.144-.165 1.61-2.416c-.283-.24-.556-.46-.903-.725l-2.44 3.814c.31.236.717.583.977.819l2.297-1.184.147-.107-.108.146-1.19 2.283Z" fill="#6F6F6F"/></svg>