<svg width="577" height="152" viewBox="0 0 577 152" fill="none" xmlns="http://www.w3.org/2000/svg"><path d="M.545 2.863A2.818 2.818 0 0 1 3.363.045h170.274a2.818 2.818 0 0 1 2.818 2.818v102.301H.545V2.863Z" fill="#EFF0F2" stroke="url(#a)" stroke-width=".089"/><path d="M.5 2.863A2.863 2.863 0 0 1 3.363 0h170.274a2.863 2.863 0 0 1 2.863 2.863v117.554a2.863 2.863 0 0 1-2.863 2.863H3.363A2.862 2.862 0 0 1 .5 120.417V2.863Z" fill="url(#b)"/><path fill-rule="evenodd" clip-rule="evenodd" d="M93.93 32.117s-2.49.012-4.28 2.426c-1.593 2.146-1.188 3.983-1.188 3.983s2.16.381 4.06-1.953c1.778-2.186 1.408-4.456 1.408-4.456Zm-3.812 7.558c-.586.242-1.068.44-1.428.44-.45 0-.992-.214-1.622-.462-.874-.344-1.918-.755-3.118-.755-3.175 0-6.56 2.908-6.56 8.45 0 5.635 4 12.644 7.165 12.643.493 0 1.102-.226 1.779-.477.84-.312 1.785-.661 2.733-.661.85 0 1.587.281 2.314.56.708.27 1.408.537 2.194.537 3.466 0 6.033-7.389 6.033-7.389s-3.672-1.453-3.672-5.672c0-3.74 2.948-5.281 2.948-5.281s-1.507-2.788-5.338-2.788c-1.354 0-2.517.48-3.428.855Z" fill="url(#c)"/><path d="M64.793 150.567c0 .593.48 1.074 1.073 1.074h44.39c.593 0 1.074-.481 1.074-1.074v-.895H64.793v.895Z" fill="#D2D3D5"/><path d="M64.793 149.672h46.537v-.716H64.793v.716Z" fill="#BFC0C2"/><path fill-rule="evenodd" clip-rule="evenodd" d="M65.843 83.29c-.58 0-1.05.481-1.05 1.074v64.593h46.537V84.364c0-.593-.47-1.074-1.05-1.074H65.843Zm22.262 9.93c-2.681 0-4.855 2.224-4.855 4.966v8.231c0 2.742 2.174 4.965 4.855 4.965 2.681 0 4.855-2.223 4.855-4.965v-8.23c0-2.743-2.174-4.966-4.855-4.966Z" fill="#D2D3D5"/><ellipse cx="167.491" cy="114.065" rx="2.449" ry="2.505" fill="url(#d)"/><path d="M167.491 116.659c1.404 0 2.539-1.163 2.539-2.594 0-1.431-1.135-2.594-2.539-2.594-1.404 0-2.538 1.163-2.538 2.594 0 1.431 1.134 2.594 2.538 2.594Z" stroke="#000" stroke-opacity=".2" stroke-width=".179"/><path d="M167.492 112.902v1.074m.668-.984c.222.149.39.368.482.624.091.256.099.535.024.797a1.27 1.27 0 0 1-.441.654 1.197 1.197 0 0 1-1.465 0 1.265 1.265 0 0 1-.442-.654 1.307 1.307 0 0 1 .025-.797c.091-.256.26-.475.481-.624" stroke="#fff" stroke-opacity=".5" stroke-width=".358" stroke-linecap="round" stroke-linejoin="round"/><path fill="#fff" d="M216.425 6.62h153.608v42.228H216.425z"/><rect x="216.425" y="6.621" width="153.608" height="42.227" rx="3.4" fill="#D4D5D7"/><path d="M305.082 8.007a.492.492 0 0 0-.492.492v4.92c0 .272.22.493.492.493h5.01c.272 0 .492-.22.492-.492V8.5a.492.492 0 0 0-.492-.493h-5.01Zm6.979 0a.492.492 0 0 0-.492.492v4.92c0 .272.22.493.492.493h5.01c.271 0 .492-.22.492-.492V8.5a.492.492 0 0 0-.492-.493h-5.01Zm-69.603 0a.492.492 0 0 0-.492.492v4.92c0 .272.22.493.492.493h5.01c.272 0 .492-.22.492-.492V8.5a.492.492 0 0 0-.492-.493h-5.01Zm6.979 0a.492.492 0 0 0-.492.492v4.92c0 .272.22.493.492.493h5.01c.271 0 .492-.22.492-.492V8.5a.492.492 0 0 0-.492-.493h-5.01Zm6.977 0a.492.492 0 0 0-.492.492v4.92c0 .272.22.493.492.493h5.01c.272 0 .492-.22.492-.492V8.5a.492.492 0 0 0-.492-.493h-5.01Zm6.979 0a.492.492 0 0 0-.492.492v4.92c0 .272.22.493.492.493h5.01c.271 0 .492-.22.492-.492V8.5a.492.492 0 0 0-.492-.493h-5.01Zm6.977 0a.492.492 0 0 0-.492.492v4.92c0 .272.22.493.492.493h5.01c.272 0 .492-.22.492-.492V8.5a.492.492 0 0 0-.492-.493h-5.01Zm6.889 0a.492.492 0 0 0-.492.492v4.92c0 .272.22.493.492.493h5.01c.272 0 .492-.22.492-.492V8.5a.492.492 0 0 0-.492-.493h-5.01Zm6.978 0a.492.492 0 0 0-.492.492v4.92c0 .272.221.493.492.493h5.01c.272 0 .492-.22.492-.492V8.5a.492.492 0 0 0-.492-.493h-5.01Zm6.889 0a.492.492 0 0 0-.492.492v4.92c0 .272.22.493.492.493h5.01c.272 0 .492-.22.492-.492V8.5a.492.492 0 0 0-.492-.493h-5.01Zm7.067 0a.492.492 0 0 0-.492.492v4.92c0 .272.221.493.492.493h5.01c.272 0 .492-.22.492-.492V8.5a.492.492 0 0 0-.492-.493h-5.01Zm-62.713 0a.493.493 0 0 0-.493.492v4.92c0 .272.221.493.493.493h5.009c.272 0 .493-.22.493-.492V8.5a.493.493 0 0 0-.493-.493h-5.009Zm-6.978 0a.492.492 0 0 0-.492.492v4.92c0 .272.22.493.492.493h5.01c.272 0 .492-.22.492-.492V8.5a.492.492 0 0 0-.492-.493h-5.01Zm-8.678 0a2.192 2.192 0 0 0-2.192 2.192v3.22c0 .272.22.493.492.493h8.499c.272 0 .492-.22.492-.492V8.5a.492.492 0 0 0-.492-.493h-6.799Z" fill="#fff" stroke="#D4D5D7" stroke-width=".089"/><circle cx="314.565" cy="11.004" r="1.789" fill="#fff" stroke="#D4D5D7" stroke-width=".179"/><path d="M317.07 14.717c.272 0 .492.22.492.492v4.92c0 .272-.22.493-.492.493h-8.588a.492.492 0 0 1-.492-.492v-4.921c0-.272.22-.492.492-.492h8.588Zm-10.529 0c.272 0 .492.22.492.492v4.92c0 .272-.22.493-.492.493h-5.01a.492.492 0 0 1-.492-.492v-4.921c0-.272.22-.492.492-.492h5.01Zm-6.95 0c.272 0 .492.22.492.492v4.92c0 .272-.22.493-.492.493h-5.01a.492.492 0 0 1-.492-.492v-4.921c0-.272.22-.492.492-.492h5.01Zm-6.951 0c.271 0 .492.22.492.492v4.92a.493.493 0 0 1-.492.493h-5.01a.492.492 0 0 1-.492-.492v-4.921c0-.272.22-.492.492-.492h5.01Zm-6.951 0c.272 0 .492.22.492.492v4.92c0 .272-.22.493-.492.493h-5.01a.493.493 0 0 1-.492-.492v-4.921c0-.272.221-.492.492-.492h5.01Zm-6.95 0c.272 0 .492.22.492.492v4.92c0 .272-.22.493-.492.493h-5.01a.493.493 0 0 1-.492-.492v-4.921c0-.272.221-.492.492-.492h5.01Zm-6.951 0c.272 0 .492.22.492.492v4.92c0 .272-.22.493-.492.493h-5.01a.492.492 0 0 1-.492-.492v-4.921c0-.272.22-.492.492-.492h5.01Zm-6.95 0c.272 0 .492.22.492.492v4.92c0 .272-.22.493-.492.493h-5.01a.492.492 0 0 1-.492-.492v-4.921c0-.272.22-.492.492-.492h5.01Zm-6.951 0c.271 0 .492.22.492.492v4.92a.493.493 0 0 1-.492.493h-5.01a.492.492 0 0 1-.492-.492v-4.921c0-.272.22-.492.492-.492h5.01Zm-6.951 0c.272 0 .493.22.493.492v4.92a.493.493 0 0 1-.493.493h-5.009a.493.493 0 0 1-.493-.492v-4.921c0-.272.221-.492.493-.492h5.009Zm-6.95 0c.272 0 .492.22.492.492v4.92c0 .272-.22.493-.492.493h-5.01a.493.493 0 0 1-.492-.492v-4.921c0-.272.221-.492.492-.492h5.01Zm-6.951 0c.272 0 .492.22.492.492v4.92c0 .272-.22.493-.492.493h-5.01a.492.492 0 0 1-.492-.492v-4.921c0-.272.22-.492.492-.492h5.01Zm-6.95 0c.272 0 .492.22.492.492v4.92c0 .272-.22.493-.492.493h-5.01a.492.492 0 0 1-.492-.492v-4.921c0-.272.22-.492.492-.492h5.01Zm-6.951 0c.271 0 .492.22.492.492v4.92a.493.493 0 0 1-.492.493h-5.01a.492.492 0 0 1-.492-.492v-4.921c0-.272.22-.492.492-.492h5.01Zm-5.099 6.799a.492.492 0 0 0-.492.492v4.92c0 .273.22.493.492.493h8.589c.271 0 .492-.22.492-.492v-4.92a.493.493 0 0 0-.492-.493h-8.589Zm10.536 0a.493.493 0 0 0-.492.492v4.92c0 .273.221.493.492.493h5.01c.272 0 .492-.22.492-.492v-4.92a.492.492 0 0 0-.492-.493h-5.01Zm6.957 0a.493.493 0 0 0-.492.492v4.92c0 .273.221.493.492.493h5.01c.272 0 .492-.22.492-.492v-4.92a.492.492 0 0 0-.492-.493h-5.01Zm6.958 0a.493.493 0 0 0-.492.492v4.92c0 .273.221.493.492.493h5.01c.272 0 .492-.22.492-.492v-4.92a.492.492 0 0 0-.492-.493h-5.01Zm6.957 0a.493.493 0 0 0-.492.492v4.92c0 .273.221.493.492.493h5.01c.272 0 .492-.22.492-.492v-4.92a.492.492 0 0 0-.492-.493h-5.01Zm6.958 0a.493.493 0 0 0-.492.492v4.92c0 .273.221.493.492.493h5.01c.272 0 .492-.22.492-.492v-4.92a.492.492 0 0 0-.492-.493h-5.01Zm6.957 0a.493.493 0 0 0-.492.492v4.92c0 .273.221.493.492.493h5.01c.272 0 .492-.22.492-.492v-4.92a.492.492 0 0 0-.492-.493h-5.01Zm6.958 0a.493.493 0 0 0-.492.492v4.92c0 .273.221.493.492.493h5.01c.272 0 .492-.22.492-.492v-4.92a.492.492 0 0 0-.492-.493h-5.01Zm6.957 0a.493.493 0 0 0-.492.492v4.92c0 .273.221.493.492.493h5.01c.272 0 .492-.22.492-.492v-4.92a.492.492 0 0 0-.492-.493h-5.01Zm6.958 0a.493.493 0 0 0-.492.492v4.92c0 .273.221.493.492.493h5.01c.272 0 .492-.22.492-.492v-4.92a.492.492 0 0 0-.492-.493h-5.01Zm6.958 0a.493.493 0 0 0-.493.492v4.92c0 .273.221.493.493.493h5.009c.272 0 .493-.22.493-.492v-4.92a.493.493 0 0 0-.493-.493h-5.009Zm6.958 0a.493.493 0 0 0-.493.492v4.92c0 .273.221.493.493.493h5.009c.272 0 .493-.22.493-.492v-4.92a.493.493 0 0 0-.493-.493h-5.009Zm6.957 0a.492.492 0 0 0-.492.492v4.92c0 .273.22.493.492.493h5.01c.271 0 .492-.22.492-.492v-4.92a.493.493 0 0 0-.492-.493h-5.01Zm6.957 0a.492.492 0 0 0-.492.492v4.92c0 .273.22.493.492.493h5.01c.271 0 .492-.22.492-.492v-4.92a.493.493 0 0 0-.492-.493h-5.01Zm-94.026 6.71a.492.492 0 0 0-.492.492v4.92c0 .272.22.492.492.492h10.378c.272 0 .492-.22.492-.492v-4.92a.492.492 0 0 0-.492-.492h-10.378Zm12.317 0a.492.492 0 0 0-.492.492v4.92c0 .272.22.492.492.492h5.01c.271 0 .492-.22.492-.492v-4.92a.492.492 0 0 0-.492-.492h-5.01Zm6.948 0a.492.492 0 0 0-.492.492v4.92c0 .272.22.492.492.492h5.01c.272 0 .492-.22.492-.492v-4.92a.492.492 0 0 0-.492-.492h-5.01Zm6.948 0a.492.492 0 0 0-.492.492v4.92c0 .272.22.492.492.492h5.01c.272 0 .492-.22.492-.492v-4.92a.492.492 0 0 0-.492-.492h-5.01Zm6.948 0a.492.492 0 0 0-.492.492v4.92c0 .272.221.492.492.492h5.01c.272 0 .492-.22.492-.492v-4.92a.492.492 0 0 0-.492-.492h-5.01Zm6.949 0a.492.492 0 0 0-.492.492v4.92c0 .272.22.492.492.492h5.01c.271 0 .492-.22.492-.492v-4.92a.492.492 0 0 0-.492-.492h-5.01Zm6.948 0a.492.492 0 0 0-.492.492v4.92c0 .272.22.492.492.492h5.01c.272 0 .492-.22.492-.492v-4.92a.492.492 0 0 0-.492-.492h-5.01Zm6.948 0a.492.492 0 0 0-.492.492v4.92c0 .272.22.492.492.492h5.01c.272 0 .492-.22.492-.492v-4.92a.492.492 0 0 0-.492-.492h-5.01Zm6.948 0a.492.492 0 0 0-.492.492v4.92c0 .272.221.492.492.492h5.01c.272 0 .492-.22.492-.492v-4.92a.492.492 0 0 0-.492-.492h-5.01Zm6.949 0a.492.492 0 0 0-.492.492v4.92c0 .272.22.492.492.492h5.009c.272 0 .493-.22.493-.492v-4.92a.493.493 0 0 0-.493-.492h-5.009Zm6.948 0a.492.492 0 0 0-.492.492v4.92c0 .272.22.492.492.492h5.01c.271 0 .492-.22.492-.492v-4.92a.492.492 0 0 0-.492-.492h-5.01Zm6.948 0a.492.492 0 0 0-.492.492v4.92c0 .272.22.492.492.492h5.01c.272 0 .492-.22.492-.492v-4.92a.492.492 0 0 0-.492-.492h-5.01Zm6.948 0a.492.492 0 0 0-.492.492v4.92c0 .272.221.492.492.492h10.289c.271 0 .492-.22.492-.492v-4.92a.492.492 0 0 0-.492-.492h-10.289Zm-88.658 6.799a.492.492 0 0 0-.492.492v4.92c0 .272.22.493.492.493h13.777c.272 0 .492-.22.492-.492v-4.92a.492.492 0 0 0-.492-.493h-13.777Zm15.591 0a.492.492 0 0 0-.492.492v4.92c0 .272.22.493.492.493h5.01c.272 0 .492-.22.492-.492v-4.92a.492.492 0 0 0-.492-.493h-5.01Zm7.003 0a.492.492 0 0 0-.492.492v4.92c0 .272.22.493.492.493h5.01c.272 0 .492-.22.492-.492v-4.92a.492.492 0 0 0-.492-.493h-5.01Zm7.002 0a.492.492 0 0 0-.492.492v4.92c0 .272.22.493.492.493h5.01c.271 0 .492-.22.492-.492v-4.92a.492.492 0 0 0-.492-.493h-5.01Zm6.913 0a.492.492 0 0 0-.492.492v4.92c0 .272.22.493.492.493h5.01c.272 0 .492-.22.492-.492v-4.92a.492.492 0 0 0-.492-.493h-5.01Zm7.003 0a.492.492 0 0 0-.492.492v4.92c0 .272.22.493.492.493h5.01c.271 0 .492-.22.492-.492v-4.92a.492.492 0 0 0-.492-.493h-5.01Zm6.945 0a.492.492 0 0 0-.492.492v4.92c0 .272.22.493.492.493h5.01c.272 0 .492-.22.492-.492v-4.92a.492.492 0 0 0-.492-.493h-5.01Zm6.971 0a.492.492 0 0 0-.492.492v4.92c0 .272.22.493.492.493h5.01c.271 0 .492-.22.492-.492v-4.92a.492.492 0 0 0-.492-.493h-5.01Zm6.912 0a.492.492 0 0 0-.492.492v4.92c0 .272.22.493.492.493h5.01c.272 0 .492-.22.492-.492v-4.92a.492.492 0 0 0-.492-.493h-5.01Zm7.003 0a.492.492 0 0 0-.492.492v4.92c0 .272.22.493.492.493h5.01c.272 0 .492-.22.492-.492v-4.92a.492.492 0 0 0-.492-.493h-5.01Zm6.913 0a.492.492 0 0 0-.492.492v4.92c0 .272.22.493.492.493h5.01c.272 0 .492-.22.492-.492v-4.92a.492.492 0 0 0-.492-.493h-5.01Zm6.913 0a.492.492 0 0 0-.492.492v4.92c0 .272.22.493.492.493h13.777c.272 0 .492-.22.492-.492v-4.92a.492.492 0 0 0-.492-.493h-13.777Zm5.189 6.799a.493.493 0 0 0-.492.492v4.92c0 .273.221.493.492.493h8.589c.272 0 .492-.22.492-.492v-4.92a.492.492 0 0 0-.492-.493h-8.589Zm-8.677 0a.492.492 0 0 0-.492.492v4.92c0 .273.22.493.492.493h6.888c.272 0 .492-.22.492-.492v-4.92a.492.492 0 0 0-.492-.493h-6.888Zm-10.378 0a.492.492 0 0 0-.492.492v4.92c0 .273.22.493.492.493h8.588c.272 0 .492-.22.492-.492v-4.92a.492.492 0 0 0-.492-.493h-8.588Zm-52.246 0a.492.492 0 0 0-.492.492v4.92c0 .273.22.493.492.493h8.588c.272 0 .492-.22.492-.492v-4.92a.492.492 0 0 0-.492-.493h-8.588Zm10.556 0a.493.493 0 0 0-.492.492v4.92c0 .273.221.493.492.493h39.722c.272 0 .492-.22.492-.492v-4.92a.492.492 0 0 0-.492-.493h-39.722Zm-19.235 0a.492.492 0 0 0-.492.492v4.92c0 .273.22.493.492.493h6.889c.271 0 .492-.22.492-.492v-4.92a.493.493 0 0 0-.492-.493h-6.889Zm-10.467 0a.492.492 0 0 0-.492.492v3.31c0 1.162.941 2.103 2.103 2.103h7.067c.272 0 .492-.22.492-.492v-4.92a.492.492 0 0 0-.492-.493h-8.678ZM320.202 8.008a.492.492 0 0 0-.492.492v4.92c0 .272.22.492.492.492h5.01c.272 0 .492-.22.492-.492V8.5a.492.492 0 0 0-.492-.492h-5.01Zm6.979 0a.492.492 0 0 0-.492.492v4.92c0 .272.22.492.492.492h5.01c.271 0 .492-.22.492-.492V8.5a.492.492 0 0 0-.492-.492h-5.01Zm6.977 0a.492.492 0 0 0-.492.492v4.92c0 .272.221.492.492.492h5.01c.272 0 .492-.22.492-.492V8.5a.492.492 0 0 0-.492-.492h-5.01Zm8.231 0a.492.492 0 0 0-.492.492v4.92c0 .272.22.492.492.492h5.01c.271 0 .492-.22.492-.492V8.5a.492.492 0 0 0-.492-.492h-5.01Zm6.888 0a.492.492 0 0 0-.492.492v4.92c0 .272.221.492.492.492h5.01c.272 0 .492-.22.492-.492V8.5a.492.492 0 0 0-.492-.492h-5.01Zm6.979 0a.492.492 0 0 0-.492.492v4.92c0 .272.22.492.492.492h5.01c.272 0 .492-.22.492-.492V8.5a.492.492 0 0 0-.492-.492h-5.01Zm6.978 0a.492.492 0 0 0-.492.492v4.92c0 .272.221.492.492.492h5.01c.272 0 .492-.22.492-.492V10.2a2.191 2.191 0 0 0-2.191-2.192h-3.311Zm-43.032 6.709a.492.492 0 0 0-.492.492v4.92c0 .272.22.493.492.493h5.01c.272 0 .492-.22.492-.492v-4.921a.492.492 0 0 0-.492-.492h-5.01Zm6.979 0a.492.492 0 0 0-.492.492v4.92c0 .272.22.493.492.493h5.01c.271 0 .492-.22.492-.492v-4.921a.492.492 0 0 0-.492-.492h-5.01Zm6.977 0a.492.492 0 0 0-.492.492v4.92c0 .272.221.493.492.493h5.01c.272 0 .492-.22.492-.492v-4.921a.492.492 0 0 0-.492-.492h-5.01Zm8.231 0a.492.492 0 0 0-.492.492v4.92c0 .272.22.493.492.493h5.01c.271 0 .492-.22.492-.492v-4.921a.492.492 0 0 0-.492-.492h-5.01Zm6.888 0a.492.492 0 0 0-.492.492v4.92c0 .272.221.493.492.493h5.01c.272 0 .492-.22.492-.492v-4.921a.492.492 0 0 0-.492-.492h-5.01Zm6.979 0a.492.492 0 0 0-.492.492v4.92c0 .272.22.493.492.493h5.01c.272 0 .492-.22.492-.492v-4.921a.492.492 0 0 0-.492-.492h-5.01Zm6.978 0a.492.492 0 0 0-.492.492v4.92c0 .272.221.493.492.493h5.01c.272 0 .492-.22.492-.492v-4.921a.492.492 0 0 0-.492-.492h-5.01Zm-43.032 6.799a.492.492 0 0 0-.492.492v4.92c0 .273.22.493.492.493h5.01c.272 0 .492-.22.492-.492v-4.92a.492.492 0 0 0-.492-.493h-5.01Zm6.979 0a.492.492 0 0 0-.492.492v4.92c0 .273.22.493.492.493h5.01c.271 0 .492-.22.492-.492v-4.92a.493.493 0 0 0-.492-.493h-5.01Zm6.977 0a.493.493 0 0 0-.492.492v4.92c0 .273.221.493.492.493h5.01c.272 0 .492-.22.492-.492v-4.92a.492.492 0 0 0-.492-.493h-5.01Zm8.231 0a.492.492 0 0 0-.492.492v4.92c0 .273.22.493.492.493h5.01c.271 0 .492-.22.492-.492v-4.92a.493.493 0 0 0-.492-.493h-5.01Zm6.888 0a.493.493 0 0 0-.492.492v4.92c0 .273.221.493.492.493h5.01c.272 0 .492-.22.492-.492v-4.92a.492.492 0 0 0-.492-.493h-5.01Zm6.979 0a.492.492 0 0 0-.492.492v4.92c0 .273.22.493.492.493h5.01c.272 0 .492-.22.492-.492v-4.92a.492.492 0 0 0-.492-.493h-5.01Zm6.978 0a.493.493 0 0 0-.492.492v4.92c0 .273.221.493.492.493h5.01c.272 0 .492-.22.492-.492v-4.92a.492.492 0 0 0-.492-.493h-5.01Zm-20.844 6.71a.492.492 0 0 0-.492.492v4.92c0 .273.22.493.492.493h5.01c.271 0 .492-.22.492-.492v-4.92a.492.492 0 0 0-.492-.493h-5.01Zm6.888 0a.492.492 0 0 0-.492.492v4.92c0 .273.221.493.492.493h5.01c.272 0 .492-.22.492-.492v-4.92a.492.492 0 0 0-.492-.493h-5.01Zm6.979 0a.492.492 0 0 0-.492.492v4.92c0 .273.22.493.492.493h5.01c.272 0 .492-.22.492-.492v-4.92a.492.492 0 0 0-.492-.493h-5.01Zm6.977 0a.492.492 0 0 0-.492.492v4.92c0 .273.221.493.492.493h5.01c.272 0 .492-.22.492-.492v-4.92a.492.492 0 0 0-.492-.493h-5.01Zm-20.845 6.799a.492.492 0 0 0-.492.492v4.92c0 .272.22.493.492.493h5.01c.271 0 .492-.22.492-.492v-4.92a.492.492 0 0 0-.492-.493h-5.01Zm6.888 0a.492.492 0 0 0-.492.492v4.92c0 .272.221.493.492.493h5.01c.272 0 .492-.22.492-.492v-4.92a.492.492 0 0 0-.492-.493h-5.01Zm6.979 0a.492.492 0 0 0-.492.492v4.92c0 .272.22.493.492.493h5.01c.272 0 .492-.22.492-.492v-4.92a.492.492 0 0 0-.492-.493h-5.01Zm-29.075 0a.492.492 0 0 0-.492.492v4.92c0 .272.22.493.492.493h5.01c.271 0 .492-.22.492-.492v-4.92a.492.492 0 0 0-.492-.493h-5.01Zm29.075 6.799a.492.492 0 0 0-.492.492v4.92c0 .273.22.493.492.493h5.01c.272 0 .492-.22.492-.492v-4.92a.492.492 0 0 0-.492-.493h-5.01Zm-13.867 0a.492.492 0 0 0-.492.492v4.92c0 .273.22.493.492.493h11.898c.272 0 .492-.22.492-.492v-4.92a.492.492 0 0 0-.492-.493h-11.898Zm20.845-6.799a.492.492 0 0 0-.492.492v11.72c0 .272.221.492.492.492h3.311c1.21 0 2.191-.981 2.191-2.192v-10.02a.492.492 0 0 0-.492-.492h-5.01Zm-36.053 6.799a.492.492 0 0 0-.492.492v4.92c0 .273.22.493.492.493h5.01c.271 0 .492-.22.492-.492v-4.92a.493.493 0 0 0-.492-.493h-5.01Zm6.977 0a.493.493 0 0 0-.492.492v4.92c0 .273.221.493.492.493h5.01c.272 0 .492-.22.492-.492v-4.92a.492.492 0 0 0-.492-.493h-5.01Zm-13.956 0a.492.492 0 0 0-.492.492v4.92c0 .273.22.493.492.493h5.01c.272 0 .492-.22.492-.492v-4.92a.492.492 0 0 0-.492-.493h-5.01Z" fill="#fff" stroke="#D4D5D7" stroke-width=".089"/><g filter="url(#e)"><path d="M330.441 91.221v-.002c0-1.931 0-4.261.313-6.907.587-4.97 2.374-7.843 5.56-9.419 1.906-.942 4.593-1.416 6.89-1.653 2.295-.237 4.19-.237 4.507-.237.317 0 2.211 0 4.506.237 2.297.237 4.984.71 6.891 1.653 3.186 1.576 4.972 4.45 5.56 9.419.313 2.646.313 4.976.313 6.907v.002c.09 3.583.12 5.887.128 7.294.004.704.002 1.184-.001 1.487l-.004.33-.001.076-.001.019v.006l.089.002-.089-.002v.003c.01.95-.004 8.168-.053 10.097l-.012.488c-.044 1.825-.095 3.948-.379 6.422-.317 2.767-.93 4.741-1.86 6.221-.929 1.477-2.178 2.468-3.778 3.259-1.922.95-4.328 1.427-6.467 1.666-2.137.239-4 .239-4.832.239h-.02c-.832 0-2.695 0-4.833-.239-2.138-.239-4.545-.716-6.467-1.666-1.6-.791-2.848-1.782-3.777-3.259-.93-1.48-1.544-3.454-1.861-6.221-.283-2.474-.334-4.597-.379-6.422-.004-.165-.007-.328-.012-.488-.048-1.929-.062-9.147-.052-10.097v-.003l-.09.002.09-.002v-.002l-.001-.004v-.019l-.002-.076-.004-.33c-.003-.303-.004-.783-.001-1.487.008-1.407.038-3.71.129-7.294Z" fill="url(#f)"/><path d="M330.441 91.221v-.002c0-1.931 0-4.261.313-6.907.587-4.97 2.374-7.843 5.56-9.419 1.906-.942 4.593-1.416 6.89-1.653 2.295-.237 4.19-.237 4.507-.237.317 0 2.211 0 4.506.237 2.297.237 4.984.71 6.891 1.653 3.186 1.576 4.972 4.45 5.56 9.419.313 2.646.313 4.976.313 6.907v.002c.09 3.583.12 5.887.128 7.294.004.704.002 1.184-.001 1.487l-.004.33-.001.076-.001.019v.006l.089.002-.089-.002v.003c.01.95-.004 8.168-.053 10.097l-.012.488c-.044 1.825-.095 3.948-.379 6.422-.317 2.767-.93 4.741-1.86 6.221-.929 1.477-2.178 2.468-3.778 3.259-1.922.95-4.328 1.427-6.467 1.666-2.137.239-4 .239-4.832.239h-.02c-.832 0-2.695 0-4.833-.239-2.138-.239-4.545-.716-6.467-1.666-1.6-.791-2.848-1.782-3.777-3.259-.93-1.48-1.544-3.454-1.861-6.221-.283-2.474-.334-4.597-.379-6.422-.004-.165-.007-.328-.012-.488-.048-1.929-.062-9.147-.052-10.097v-.003l-.09.002.09-.002v-.002l-.001-.004v-.019l-.002-.076-.004-.33c-.003-.303-.004-.783-.001-1.487.008-1.407.038-3.71.129-7.294Z" fill="url(#g)"/><path d="M330.441 91.221v-.002c0-1.931 0-4.261.313-6.907.587-4.97 2.374-7.843 5.56-9.419 1.906-.942 4.593-1.416 6.89-1.653 2.295-.237 4.19-.237 4.507-.237.317 0 2.211 0 4.506.237 2.297.237 4.984.71 6.891 1.653 3.186 1.576 4.972 4.45 5.56 9.419.313 2.646.313 4.976.313 6.907v.002c.09 3.583.12 5.887.128 7.294.004.704.002 1.184-.001 1.487l-.004.33-.001.076-.001.019v.006l.089.002-.089-.002v.003c.01.95-.004 8.168-.053 10.097l-.012.488c-.044 1.825-.095 3.948-.379 6.422-.317 2.767-.93 4.741-1.86 6.221-.929 1.477-2.178 2.468-3.778 3.259-1.922.95-4.328 1.427-6.467 1.666-2.137.239-4 .239-4.832.239h-.02c-.832 0-2.695 0-4.833-.239-2.138-.239-4.545-.716-6.467-1.666-1.6-.791-2.848-1.782-3.777-3.259-.93-1.48-1.544-3.454-1.861-6.221-.283-2.474-.334-4.597-.379-6.422-.004-.165-.007-.328-.012-.488-.048-1.929-.062-9.147-.052-10.097v-.003l-.09.002.09-.002v-.002l-.001-.004v-.019l-.002-.076-.004-.33c-.003-.303-.004-.783-.001-1.487.008-1.407.038-3.71.129-7.294Z" stroke="url(#h)" stroke-width=".179"/><path d="M330.441 91.221v-.002c0-1.931 0-4.261.313-6.907.587-4.97 2.374-7.843 5.56-9.419 1.906-.942 4.593-1.416 6.89-1.653 2.295-.237 4.19-.237 4.507-.237.317 0 2.211 0 4.506.237 2.297.237 4.984.71 6.891 1.653 3.186 1.576 4.972 4.45 5.56 9.419.313 2.646.313 4.976.313 6.907v.002c.09 3.583.12 5.887.128 7.294.004.704.002 1.184-.001 1.487l-.004.33-.001.076-.001.019v.006l.089.002-.089-.002v.003c.01.95-.004 8.168-.053 10.097l-.012.488c-.044 1.825-.095 3.948-.379 6.422-.317 2.767-.93 4.741-1.86 6.221-.929 1.477-2.178 2.468-3.778 3.259-1.922.95-4.328 1.427-6.467 1.666-2.137.239-4 .239-4.832.239h-.02c-.832 0-2.695 0-4.833-.239-2.138-.239-4.545-.716-6.467-1.666-1.6-.791-2.848-1.782-3.777-3.259-.93-1.48-1.544-3.454-1.861-6.221-.283-2.474-.334-4.597-.379-6.422-.004-.165-.007-.328-.012-.488-.048-1.929-.062-9.147-.052-10.097v-.003l-.09.002.09-.002v-.002l-.001-.004v-.019l-.002-.076-.004-.33c-.003-.303-.004-.783-.001-1.487.008-1.407.038-3.71.129-7.294Z" stroke="#D4D5D7" stroke-width=".179"/><path d="M346.774 108.381c.241-.283.41-.671.41-1.06a.9.9 0 0 0-.012-.154c-.389.017-.862.255-1.139.579-.224.243-.427.635-.427 1.024 0 .06.008.117.016.137a.688.688 0 0 0 .104.008c.348 0 .791-.226 1.048-.534Zm.278.619c-.584 0-1.061.348-1.367.348-.324 0-.75-.327-1.26-.327-.965 0-1.947.78-1.947 2.249 0 .919.36 1.89.812 2.513.385.526.721.963 1.205.963.481 0 .692-.312 1.285-.312.605 0 .742.304 1.272.304.526 0 .874-.47 1.206-.935a4.057 4.057 0 0 0 .53-1.076c-.029-.008-1.036-.409-1.036-1.534 0-.971.792-1.408.837-1.44-.522-.732-1.318-.753-1.537-.753Z" fill="url(#i)"/></g><path d="M208.295 60.478a2.818 2.818 0 0 1 2.818-2.819h93.31a2.818 2.818 0 0 1 2.818 2.819v55.652h-98.946V60.478Z" fill="#EFF0F2" stroke="url(#j)" stroke-width=".089"/><path d="M208.25 60.478a2.863 2.863 0 0 1 2.863-2.863h93.31a2.863 2.863 0 0 1 2.863 2.863v62.892a2.863 2.863 0 0 1-2.863 2.863h-93.31a2.863 2.863 0 0 1-2.863-2.863V60.478Z" fill="url(#k)"/><path fill-rule="evenodd" clip-rule="evenodd" d="M260.807 83.47s-1.393.005-2.395 1.23c-.892 1.088-.665 2.019-.665 2.019s1.209.194 2.272-.99c.996-1.109.788-2.26.788-2.26Zm-2.132 3.832c-.328.122-.598.223-.8.223-.251 0-.555-.108-.907-.234-.49-.175-1.074-.383-1.745-.383-1.778 0-3.672 1.474-3.672 4.285 0 2.858 2.238 6.412 4.01 6.412.276 0 .617-.115.996-.242.47-.158.999-.336 1.529-.336.476 0 .888.143 1.295.284.397.137.788.273 1.228.273 1.941 0 3.377-3.747 3.377-3.747s-2.055-.737-2.055-2.877c0-1.896 1.65-2.678 1.65-2.678s-.844-1.414-2.988-1.414c-.758 0-1.409.244-1.918.434Z" fill="url(#l)"/><path d="M244.751 147.972c0 .593.481 1.074 1.074 1.074h23.976c.593 0 1.073-.481 1.073-1.074v-.06h-26.123v.06Z" fill="#D2D3D5"/><path d="M244.751 147.912h26.123v-.412h-26.123v.412Z" fill="#BFC0C2"/><path fill-rule="evenodd" clip-rule="evenodd" d="M245.34 109.682c-.325 0-.589.276-.589.618v37.2h26.123v-37.2c0-.342-.264-.618-.589-.618H245.34Zm12.497 5.719c-1.505 0-2.725 1.28-2.725 2.859V123c0 1.58 1.22 2.86 2.725 2.86 1.505 0 2.725-1.28 2.725-2.86v-4.74c0-1.579-1.22-2.859-2.725-2.859Z" fill="#D2D3D5"/><g clip-path="url(#m)"><rect x="469.08" y="149.72" width="38.752" height="1.92" rx=".358" fill="#BFC0C2"/><path fill="#BFC0C2" d="M469.9 122.564h37.112v27.155H469.9z"/><path fill="url(#n)" fill-opacity=".5" style="mix-blend-mode:overlay" d="M469.898 122.564h37.112v27.155h-37.112z"/><path d="M400.545 2.863a2.818 2.818 0 0 1 2.818-2.818h170.274a2.818 2.818 0 0 1 2.818 2.818v102.301h-175.91V2.863Z" fill="#EDEEF0" stroke="url(#o)" stroke-width=".089"/><path d="M400.5 105.209h176v15.209a2.863 2.863 0 0 1-2.863 2.863H403.363a2.863 2.863 0 0 1-2.863-2.863v-15.209Z" fill="#D4D5D7"/><path d="M489.068 2.013a.618.618 0 0 1-.611.626.618.618 0 0 1-.611-.626c0-.347.274-.626.611-.626.337 0 .611.279.611.626Z" fill="#EDEEF0" stroke="#6B7280" stroke-width=".089"/><mask id="p" style="mask-type:alpha" maskUnits="userSpaceOnUse" x="488" y="1" width="1" height="2"><path d="M488.63 2.012c0 .1-.079.18-.174.18a.177.177 0 0 1-.174-.18c0-.1.079-.179.174-.179.095 0 .174.08.174.18Z" fill="#494C51" stroke="#6B7280" stroke-width=".089"/></mask><g mask="url(#p)"><path d="M488.63 2.012c0 .1-.079.18-.174.18a.177.177 0 0 1-.174-.18c0-.1.079-.179.174-.179.095 0 .174.08.174.18Z" fill="#2260C7" stroke="#6B7280" stroke-width=".089"/><path fill="#617189" stroke="#6B7280" stroke-width=".044" d="M488.259 1.81h.044v.404h-.044zm.35 0h.044v.404h-.044z"/><path d="M488.543 2.013c0 .05-.04.09-.087.09a.088.088 0 0 1-.086-.09c0-.05.04-.09.086-.09.047 0 .087.04.087.09Z" fill="#7B6A77" stroke="#6B7280" stroke-width=".089"/><mask id="q" fill="#fff"><ellipse cx="488.5" cy="1.968" rx=".087" ry=".089"/></mask><ellipse cx="488.5" cy="1.968" rx=".087" ry=".089" fill="#fff" fill-opacity=".2"/><path d="M488.498 1.968c0 .002-.001 0 .002 0v.179a.178.178 0 0 0 .177-.18h-.179Zm.002 0c.003 0 .002.002.002 0h-.179c0 .097.077.179.177.179v-.18Zm.002 0c0-.002.001 0-.002 0v-.179c-.1 0-.177.082-.177.179h.179Zm-.002 0c-.003 0-.002-.002-.002 0h.179a.178.178 0 0 0-.177-.179v.179Z" fill="#6B7280" mask="url(#q)"/></g><g clip-path="url(#r)"><rect x="404.526" y="4.205" width="171.948" height="96.799" rx=".805" fill="#C5C6C8" stroke="#C5C6C8" stroke-width=".179"/></g></g><defs><linearGradient id="a" x1="88.5" y1="0" x2="88.5" y2="105.209" gradientUnits="userSpaceOnUse"><stop stop-color="#fff"/><stop offset="1" stop-color="#fff" stop-opacity="0"/></linearGradient><linearGradient id="b" x1="88.5" y1="0" x2="88.5" y2="123.28" gradientUnits="userSpaceOnUse"><stop stop-color="#D4D5D7"/><stop offset=".494" stop-color="#C9CACC"/><stop offset="1" stop-color="#A2A3A5"/></linearGradient><linearGradient id="c" x1="88.499" y1="32.117" x2="88.499" y2="59.991" gradientUnits="userSpaceOnUse"><stop stop-color="#F5F5F5"/><stop offset="1" stop-color="#C8C9CB"/></linearGradient><linearGradient id="d" x1="167.491" y1="111.56" x2="167.491" y2="116.57" gradientUnits="userSpaceOnUse"><stop stop-color="#9C9C9C"/><stop offset="1" stop-color="#C4C4C4"/></linearGradient><linearGradient id="f" x1="352.009" y1="71.844" x2="328.381" y2="93.111" gradientUnits="userSpaceOnUse"><stop stop-color="#F4F4F4"/><stop offset=".613" stop-color="#D9D9DB"/><stop offset="1" stop-color="#F6F6F6"/></linearGradient><linearGradient id="h" x1="355.137" y1="58.431" x2="328.779" y2="69.566" gradientUnits="userSpaceOnUse"><stop stop-color="#D4D5D7"/><stop offset=".215" stop-color="#DCDEE1"/><stop offset="1" stop-color="#D4D5D7"/></linearGradient><linearGradient id="i" x1="345.633" y1="107.167" x2="345.633" y2="114.746" gradientUnits="userSpaceOnUse"><stop stop-color="#CACDD3"/><stop offset="1" stop-color="#BABEC4"/></linearGradient><linearGradient id="j" x1="257.768" y1="57.615" x2="257.768" y2="116.174" gradientUnits="userSpaceOnUse"><stop stop-color="#fff"/><stop offset="1" stop-color="#fff" stop-opacity="0"/></linearGradient><linearGradient id="k" x1="257.768" y1="57.615" x2="257.768" y2="126.233" gradientUnits="userSpaceOnUse"><stop stop-color="#D4D5D7"/><stop offset=".494" stop-color="#C9CACC"/><stop offset="1" stop-color="#A2A3A5"/></linearGradient><linearGradient id="l" x1="257.768" y1="83.469" x2="257.768" y2="97.604" gradientUnits="userSpaceOnUse"><stop stop-color="#F5F5F5"/><stop offset="1" stop-color="#C8C9CB"/></linearGradient><linearGradient id="n" x1="488.455" y1="122.564" x2="488.455" y2="149.719" gradientUnits="userSpaceOnUse"><stop stop-color="#373737"/><stop offset=".411" stop-color="#9C9C9C" stop-opacity=".194"/><stop offset=".62" stop-color="#9C9C9C" stop-opacity=".194"/><stop offset="1" stop-color="#373737"/></linearGradient><linearGradient id="o" x1="488.5" y1="0" x2="488.5" y2="105.209" gradientUnits="userSpaceOnUse"><stop stop-color="#fff"/><stop offset="1" stop-color="#fff" stop-opacity="0"/></linearGradient><clipPath id="m"><path fill="#fff" transform="translate(400.5)" d="M0 0h176v151.64H0z"/></clipPath><clipPath id="r"><rect x="404.615" y="4.294" width="171.769" height="96.62" rx=".716" fill="#fff"/></clipPath><radialGradient id="g" cx="0" cy="0" r="1" gradientUnits="userSpaceOnUse" gradientTransform="matrix(30.28022 50.05811 -28.88828 17.47456 333.144 75.777)"><stop offset=".566" stop-color="#F6F7F9"/><stop offset="1" stop-color="#DBDCE0"/></radialGradient><filter id="e" x="329.058" y="72.376" width="36.591" height="57.614" filterUnits="userSpaceOnUse" color-interpolation-filters="sRGB"><feFlood flood-opacity="0" result="BackgroundImageFix"/><feColorMatrix in="SourceAlpha" values="0 0 0 0 0 0 0 0 0 0 0 0 0 0 0 0 0 0 127 0" result="hardAlpha"/><feOffset dx="-.358" dy=".268"/><feGaussianBlur stdDeviation=".403"/><feComposite in2="hardAlpha" operator="out"/><feColorMatrix values="0 0 0 0 0 0 0 0 0 0 0 0 0 0 0 0 0 0 0.24 0"/><feBlend in2="BackgroundImageFix" result="effect1_dropShadow_3153_13543"/><feBlend in="SourceGraphic" in2="effect1_dropShadow_3153_13543" result="shape"/></filter></defs></svg>