<svg width="97" height="48" viewBox="0 0 97 48" fill="none" xmlns="http://www.w3.org/2000/svg"><path d="M48.734 6c-26.643 0-48 7.986-48 17.998 0 9.952 21.533 18 48 18s48-8.075 48-18c0-9.924-21.533-17.998-48-17.998Z" fill="#003478"/><path d="M67.64 27.811c.013.083.122.162.226.199.039.013.058.039.017.126-.298.64-.573 1.01-.948 1.567a5.88 5.88 0 0 1-1.203 1.301c-.709.587-1.693 1.226-2.507.796-.362-.187-.518-.693-.511-1.103.017-1.152.53-2.335 1.476-3.497 1.153-1.42 2.429-2.157 3.266-1.754.865.413.59 1.415.201 2.202a.221.221 0 0 0-.016.163Zm9.293-8.976c.062-.11-.004-.19-.142-.19l-2.426.002c-.18 0-.272.021-.357.189-.278.533-3.668 5.613-4.3 6.6-.106.15-.235.129-.25-.043-.064-.586-.57-1.26-1.368-1.582-.607-.247-1.201-.291-1.819-.21-1.115.15-2.108.739-2.981 1.402-1.317 1-2.452 2.297-3.918 3.256-.8.521-1.896.976-2.63.297-.663-.615-.588-1.982.427-3.039.107-.11.235-.017.215.082-.096.477.022.953.385 1.286.443.397 1.077.442 1.62.177.64-.317 1.016-.93 1.126-1.625.17-1.079-.661-2.03-1.7-2.106-.844-.06-1.653.234-2.442.885-.395.328-.62.57-.962 1.056-.083.12-.211.132-.207-.045.038-1.38-.532-2.157-1.674-2.183-.886-.021-1.833.46-2.57 1.048-.81.65-1.517 1.51-2.275 2.32-.095.1-.177.095-.203-.099-.022-.915-.253-1.8-.676-2.43a.563.563 0 0 0-.73-.18c-.123.067-.549.263-.859.513-.154.126-.214.31-.145.545a6.392 6.392 0 0 1-.236 4.233c-.51 1.203-1.499 2.287-2.662 2.654-.767.243-1.563.124-2.056-.555-.677-.938-.404-2.569.605-3.923.891-1.192 2.18-1.95 3.464-2.437.152-.058.183-.155.14-.284-.07-.21-.181-.498-.226-.63-.118-.314-.448-.364-.851-.32-.934.108-1.776.428-2.608.873-2.179 1.167-3.271 3.425-3.75 4.633-.23.58-.427.942-.682 1.263-.343.432-.775.825-1.563 1.517a.276.276 0 0 0-.064.32c.08.166.49.745.606.796.128.063.277-.025.337-.068.551-.373 1.211-.966 1.534-1.368.114-.138.23-.08.29.13a3.388 3.388 0 0 0 2.182 2.32c1.998.673 4.07-.302 5.633-2 .994-1.078 1.353-1.772 1.734-2.244.646-.8 1.92-2.59 3.436-3.738.556-.424 1.215-.747 1.546-.532.266.172.351.572-.075 1.347-1.547 2.824-3.822 6.142-4.24 6.947-.076.14-.008.25.137.25.81-.005 1.612-.002 2.346-.002.123-.005.177-.062.239-.149 1.187-1.857 2.304-3.626 3.5-5.454.068-.108.13-.026.132.021.026.425.129 1.005.38 1.386.454.704 1.095 1.007 1.806 1.011.566.009.852-.08 1.463-.307a5.123 5.123 0 0 0 1.201-.645c.179-.124.21.084.206.116-.275 1.475.064 3.222 1.53 3.947 1.754.865 3.681-.351 4.79-1.448.109-.106.225-.095.236.133.026.42.214.916.56 1.264.93.933 2.805.563 4.687-.893 1.208-.933 2.472-2.25 3.614-3.646.043-.054.074-.14-.008-.229-.174-.182-.426-.39-.598-.55-.079-.067-.195-.048-.26.002-1.171 1.113-2.225 2.383-3.748 3.433-.513.358-1.332.648-1.7.15-.143-.193-.127-.46.013-.811.444-1.108 7.474-11.81 7.84-12.442" fill="#fff"/><path d="M43.858 20.127c.03.159.092.19.164.176.358-.072.75-.366.982-.707.21-.31.31-.757.1-.936-.187-.16-.492-.115-.718.084-.45.398-.586.962-.528 1.383ZM25.94 33.904c-2.621.017-4.93-1.601-5.195-4.405a5.66 5.66 0 0 1 1.17-4.08c.781-1.017 2.102-1.861 3.22-2.068.363-.066.851-.025 1.053.217.317.368.226.774-.09.935-.853.436-1.88 1.18-2.387 2.198-.412.831-.495 1.832.134 2.786 1.053 1.589 3.987 1.633 6.715-.902a23.41 23.41 0 0 0 1.895-1.922c1.202-1.374 1.601-1.875 3.199-4.09.017-.026.025-.06.017-.076-.013-.03-.035-.034-.082-.039-1.067.03-1.996.348-2.9 1.023-.26.19-.635.163-.799-.087-.182-.282-.051-.65.25-.858 1.453-1.01 3.04-1.194 4.662-1.468-.001 0 .113.005.205-.117.666-.855 1.169-1.625 1.878-2.49.715-.876 1.639-1.68 2.345-2.285.985-.847 1.616-1.132 2.258-1.482.17-.088-.021-.194-.073-.194-3.584-.673-7.31-1.545-10.869-.227-2.465.92-3.546 2.875-3.026 4.18.37.928 1.588 1.078 2.73.52a6.17 6.17 0 0 0 2.446-2.176c.347-.535 1.08-.149.684.78-1.041 2.448-3.031 4.39-5.455 4.472-2.063.067-3.394-1.45-3.39-3.323.009-3.693 4.12-6.125 8.44-6.489 5.203-.43 10.131.956 15.297 1.583 3.959.48 7.754.49 11.732-.425.47-.102.8.198.77.673-.039.687-.571 1.348-1.881 2.063-1.49.817-3.05 1.065-4.678 1.078-3.937.035-7.604-1.502-11.4-2.326.005.166.049.364-.09.469-2.103 1.55-4.003 3.125-5.276 5.337-.043.05-.021.1.055.094 1.105-.059 2.099-.087 3.13-.17.18-.017.187-.06.171-.191-.091-.762.132-1.632.802-2.23.687-.615 1.546-.685 2.116-.242.647.505.59 1.412.236 2.093-.361.69-.957 1.06-1.528 1.24 0 0-.12.025-.102.134.021.174.8.606.868.721.064.11.03.28-.088.41a.492.492 0 0 1-.377.18c-.133-.003-.214-.05-.385-.142-.35-.19-.786-.5-1.078-.868-.099-.124-.15-.126-.397-.113a71.491 71.491 0 0 0-4.036.38c-.286.035-.328.09-.387.188-1.88 3.101-3.888 6.445-6.092 8.683-2.364 2.4-4.33 3.032-6.416 3.049" fill="#fff"/><path d="M48.733 8.943c-24.51 0-44.378 6.773-44.378 15.061 0 8.289 19.867 15.062 44.378 15.062 24.51 0 44.376-6.773 44.376-15.062 0-8.288-19.866-15.06-44.376-15.06Zm0 31.488c-25.403 0-45.996-7.354-45.996-16.427 0-9.074 20.593-16.427 45.996-16.427 25.4 0 45.992 7.353 45.992 16.427 0 9.073-20.592 16.427-45.992 16.427Z" fill="#fff"/></svg>