<svg width="14" height="14" viewBox="0 0 14 14" fill="none" xmlns="http://www.w3.org/2000/svg">
<g clip-path="url(#clip0_66_11492)">
<path d="M13.4166 7.27998C13.4166 6.835 13.3805 6.38762 13.3035 5.94987H7.1292V8.47059H10.665C10.5182 9.28357 10.0468 10.0027 9.35648 10.4597V12.0953H11.4659C12.7046 10.9552 13.4166 9.27154 13.4166 7.27998Z" fill="#4285F4"/>
<path d="M7.12919 13.6756C8.89466 13.6756 10.3835 13.0959 11.4683 12.0953L9.35888 10.4597C8.77199 10.859 8.01433 11.0851 7.1316 11.0851C5.42386 11.0851 3.97588 9.93299 3.45634 8.38399H1.27957V10.0701C2.39081 12.2805 4.65417 13.6756 7.12919 13.6756Z" fill="#34A853"/>
<path d="M3.45395 8.38399C3.17974 7.57101 3.17974 6.69068 3.45395 5.8777V4.19161H1.27958C0.351147 6.04126 0.35114 8.22043 1.27957 10.0701L3.45395 8.38399Z" fill="#FBBC04"/>
<path d="M7.12919 3.17417C8.06244 3.15974 8.96441 3.51091 9.64029 4.15552L11.5092 2.28662C10.3258 1.17539 8.75515 0.564451 7.12919 0.583693C4.65417 0.583693 2.39082 1.97876 1.27958 4.19161L3.45395 5.8777C3.97108 4.3263 5.42145 3.17417 7.12919 3.17417Z" fill="white"/>
</g>
<defs>
<clipPath id="clip0_66_11492">
<rect width="14" height="14" fill="white"/>
</clipPath>
</defs>
</svg>
