<svg width="155" height="48" viewBox="0 0 155 48" fill="none" xmlns="http://www.w3.org/2000/svg"><path fill-rule="evenodd" clip-rule="evenodd" d="M4.496 20.402c-.029.057-.143.2-.172.229a.34.34 0 0 1-.143.256c0 .143-.257.229-.286.372-.029.142-.086.285-.2.37 0 .144-.23.2-.23.315-.056.029-.114.257-.17.257 0 .086-.115.143-.115.285-.057.029-.115.143-.115.229-.114.057-.085.2-.2.257 0 .085-.086.2-.086.285-.057 0-.143.457-.143.514-.085 0-.057.828-.028.971.086.286.086.6.286.771a.308.308 0 0 1 .086.2c.028.029.171.143.2.171.086.086.543.2.543.229.23.028.372.171.572.171l.744.229c0 .085.315.057.315.142.2.029.429.029.63.057.2.029.428.143.657.2 0 .086.458.114.572.114.286-.028.487.058.716.058.371 0 .715.085 1.087.085 0 .114.858-.028.944-.028 0-.086.915-.172 1.03-.2l.543-.086c.171-.028.229-.143.429-.2.229-.085.343-.171.572-.228l.486-.229c.058-.114.2-.142.258-.228.057-.086.229-.228.315-.285.114-.086.228-.4.228-.543.115 0 .086-.514 0-.6-.143-.057-.171-.114-.343-.085-.229.028-.4.057-.63.057 0 .057-.514.114-.514.171-.143 0-.315.029-.43.029 0 .057-.257.085-.342.085 0 .086-.716.057-.716.114-.057 0-.286.03-.286.086-.085 0-.515 0-.515.086-.171 0-.629.085-.658.085 0 .058-1.602.315-1.745.343-.171.057-.228-.028-.4 0-.143 0-.172-.057-.286-.057-.029-.086-.057-.029-.086-.086-.086 0-.086-.085-.172-.114-.114-.085-.114-.2-.171-.285-.057-.058-.115-.372-.229-.372-.029-.114-.258-.685-.315-.685 0-.114-.028-.143 0-.285.029-.115.057-.257.057-.343 0-.029.058-.257.086-.257 0-.171.058-.371.058-.514.085 0 .085-.514.228-.514 0-.086.029-.171.086-.2.029-.143.115-.228.2-.342.086-.115.344-.172.487-.229.057-.028.457-.028.457-.057.086 0 .716-.057.716-.143.143 0 .343-.028.515-.028.143 0 .228-.057.343-.057 0-.143.715-.172.858-.2 0-.029.2-.086.257-.086 0-.057.344-.057.4-.057.287 0 .459-.143.716-.143.258 0 .4-.085.687-.114l.629-.029c.143 0 .2-.057.343-.057l.83-.085.4-.115c.172-.057.4-.085.572-.085l.23-.086c.142-.057.228-.028.343-.028.143 0 .286 0 .429-.058.114-.028.257-.085.372-.057.057.029.457 0 .457.029.143 0 .172.057.286.057l.544.114c0 .057.172.057.229.057.086.057.171.114.229.172.114.057.171.2.2.314.028.171.114.257.143.4.114.057.114.228.229.256.085.229.171.343.171.572.058 0 .086.514.143.514 0 .085.143.485.172.485l.086.485c.057.229-.029.457-.086.657-.029.086-.086.257-.172.314 0 .057-.057.171-.085.229-.058.057-.143.17-.143.257-.03 0-.115.2-.115.256-.057 0-.086.315-.143.315-.029.057-.086.285-.143.285 0 .171-.143.371-.143.6 0 0-.229.457-.2.514.028.285-.086.4-.143.685-.029.143-.086.257-.086.371-.029 0-.086.143-.086.2-.086 0 0 .457-.086.457-.028.171-.086.2-.086.4 0 .085-.114.628-.143.628 0 .057-.028.285-.085.285 0 .229.028.372 0 .6 0 .143-.058.228-.058.4 0 .057-.028.285-.085.285 0 .114-.058.229 0 .372.057.17.057.314.057.513.086 0 .057.8.057.914 0 .286-.086.514-.114.857-.03.314-.23.485-.286.714-.144.057-1.402.77-1.688.685-.057-.029-.029-.057-.115-.057 0-.057-.143-.086-.171-.086-.086-.028-.23-.114-.258-.171-.057 0-.543-.2-.543-.172-.058 0-.2-.057-.2-.085-.058 0-.144-.029-.172-.086-.115-.114-.4-.171-.372-.4 0-.142.057-.2-.029-.342-.057-.057-.057-.286-.085-.286l.085-1.056-.028-1.114s.143-.77.085-.885c-.028-.143-.057-.428-.142-.543-.115-.114-.2-.085-.344-.057 0 .029-.4.172-.457.2 0 .057-.287.086-.344.086-.143.029-.229.086-.372.086 0 .114-.629.028-.629.17-.229 0-.4.115-.63.144-.257.028-.371.142-.629.142-.229 0-.429.086-.686.057-.23 0-.372-.114-.601-.028-.229.057-.4-.029-.6-.029-.172-.2-.43-.114-.659-.114 0 .086-1.659-.171-1.802-.171 0-.057-.63-.114-.63-.2-.314-.028-.486-.171-.829-.2-.143-.057-.343-.2-.515-.2-.057 0-.2-.028-.2-.085-.086 0-.458-.115-.458-.2-.2 0-.372-.257-.572-.257 0-.029-.314-.229-.4-.229-.086-.114-.286-.257-.344-.342-.085 0-.228-.172-.286-.257-.057 0-.2-.114-.228-.172-.115-.085-.172-.142-.172-.285 0 0-.143-.2-.143-.257-.029 0-.143-.2-.143-.257l-.143-.6-.086-.342c0-.029-.086-.143-.086-.172 0-.057-.028-.542-.057-.542-.029-.172-.143-2.941-.114-2.941 0-.086.057-.571.114-.571 0-.029.114-.571.143-.771.029-.086.114-.657.229-.657 0-.2.229-.371.286-.6.172-.085.2-.4.372-.456 0-.143.229-.172.229-.315.114-.085.143-.228.257-.285 0-.086.143-.114.143-.229.143-.114.229-.2.315-.342.057-.057.086-.2.2-.229.029-.114.057-.114.143-.2a.157.157 0 0 1 .086-.142c.086-.086.4-.628.458-.628.028-.172.143-.314.286-.429.057-.057.114-.228.229-.228.028-.057.085-.029.085-.086.086 0 .058-.057.115-.085 0-.086.229-.286.314-.286a.577.577 0 0 1 .258-.2c.172-.114.915-1 1.087-1.056.029-.057.172-.086.229-.086 0-.028.257-.171.286-.171.028-.057.972-.8 1.201-1.085.086 0 .2-.115.258-.172.114-.057.143-.114.229-.2.057 0 .114-.057.171-.085l.172-.171c.086-.086.029-.086.086-.143.114-.114.314-.143.457-.257.058-.057.143-.257.258-.257.086-.143.172-.229.315-.257.114-.2.4-.2.514-.314.058-.057.2-.172.287-.172.028-.085.228-.114.314-.142 0-.058.258-.058.258-.115.057 0 .229-.057.229-.085.171-.057.257-.086.457-.086 0-.057.344-.057.43-.057.228 0 .457 0 .686.029.114 0 .229-.058.372-.029.286.029.486.143.743.143.058 0 .287.028.287.085.114.029.314.086.429.143.286.171.515.428.83.714.17.171.4.4.457.628.114.057.2.457.257.457 0 .286.115.543.143.828.086 0 .23.486.23.571.028 0 .056.486.142.486 0 .17.058.257.029.428-.029.171-.114.314-.114.485-.03 0-.086.172-.086.2-.115.086-.2.2-.315.314-.114.115-.715.2-.715.286-.229 0-.4.114-.63.085-.114 0-.228-.028-.343-.057-.086-.028-.114-.142-.2-.2 0-.114-.172-.142-.172-.285-.085-.029-.143-.229-.143-.286-.085 0-.114-.428-.257-.485 0-.029-.2-.457-.229-.457 0-.171-.258-.371-.372-.514-.086-.114-.257-.085-.315-.2-.171-.028-.286-.085-.371.057-.086 0-.172.086-.258.115-.143.028-.229.142-.343.17-.029 0-.229.115-.229.115-.086 0-.172.057-.286.086 0 .057-.257.114-.315.171-.114.086-.286.143-.4.2-.086 0-.23.114-.286.2-.143.028-.23.143-.372.143 0 .028-.172.085-.229.085-.086.086-.286.229-.315.314-.286.086-.543.372-.743.6-.172.029-.258.171-.4.314-.115.143-.258.229-.373.371-.086.086-.2.286-.315.286-.085.114-.4.314-.4.457-.114.085-.286.171-.286.285-.086.057-.258.286-.343.286-.029.057-.086.028-.086.085-.086.058-.057.143-.143.172 0 .143-.143.171-.2.257-.086.114-.344.257-.344.4-.028 0-.086.142-.114.17-.086.086-.2.23-.229.372-.057.057-.2.314-.343.314Zm35.586-1.942c-.029.115-.143.229-.257.286-.058.171-.115.257-.115.457-.086.314-.2.628.086.856 0 .057.2.115.257.143.172 0 .287.029.458.029 0 .028.915 0 .915-.057.058 0 .258-.058.258-.086.172-.029.286-.057.458-.057.057 0 .6-.057.6-.086l1.002-.171c.085-.2.486-.229.715-.229.257 0 .486-.057.743-.057.172 0 .516.086.516.286a.524.524 0 0 1 .2.285c.057.143.114.2.171.343.029 0 .23.457.23.514.028.229.142.286.17.571 0 .143.058.229.087.4l.114.6c.057 0 .2.628.2.742 0 .2-.2.371-.372.371-.085.143-.257.143-.429.171 0 .029-.171.115-.2.115a2.528 2.528 0 0 1-.486.057 1.853 1.853 0 0 1-.572.114c-.315 0-.601.086-.887.086-.115 0-.286 0-.458-.029-.143-.029-.286.029-.486.029-.115 0-1.001.028-1.001.085-.344.029-.515.114-.83.114 0 .029-.515.143-.6.143-.144 0-.287.057-.401.057h-.544c-.114 0-.171.057-.286.057-.143 0-.229.058-.343.058 0 .085-.229.028-.229.114-.086 0-.2.085-.286.142 0 .086-.143.258-.229.286-.086.114-.057.228-.086.343-.085.314.029.428.2.685.087 0 .172.114.287.114 0 .029.171.086.229.086 0 .085.429.2.543.228 0 .057.687.057.687.172.114 0 .2.057.372.057 0 .142.4 0 .457-.029.258 0 .486-.085.687-.085 0-.058.372-.115.457-.115 0-.085.344-.228.43-.314.085 0 .143-.085.228-.085.115 0 .2-.029.315-.029.143 0 .172.029.286.114a.936.936 0 0 1 .172.171c.114.086.4.572.486.629.114.085.4.628.43.885l.114.6c0 .057-.029.228-.058.228 0 .114-.028.257-.028.4-.029 0-.086.456-.086.542-.057 0-.114.486-.114.571-.115.057-.058.2-.172.286 0 .285-.658.685-.658.57.315 0-1.774.629-1.774.515-.143.028-.257-.029-.4-.086-.172-.028-.258-.057-.43-.057-.2-.028-.457-.171-.686-.171l-.486-.143c-.2-.057-.372-.171-.6-.171 0-.058-.201-.029-.201-.086l-.458-.086c0-.142-.63-.057-.63-.228-.056 0-.485-.172-.485-.229a.525.525 0 0 1-.287-.2c-.142 0-.2-.2-.314-.2-.029-.056-.2-.17-.286-.17-.057-.058-.2-.2-.286-.2-.086-.086-.115-.115-.115-.258-.028 0-.057-.085-.085-.114 0 0-.23-.085-.258-.142-.057-.058-.143-.086-.143-.172-.086-.028-.029-.057-.086-.085 0-.143-.229-.2-.229-.315-.057-.028-.085-.114-.114-.17-.029-.144-.029.028-.029-.172 0 0-.085-.143-.085-.172-.115-.057-.172-.456-.23-.456 0-.2-.142-.4-.142-.6-.086 0 0-.942-.115-.942 0-.143-.057-.172-.057-.343-.057 0-.029-.542-.029-.6 0-.085.115-.685.086-.685 0-.171.029-.371.029-.514 0-.114.086-.171.086-.285 0-.486.228-.828.314-1.257.057-.257.2-.4.2-.656.058-.029.115-.172.115-.229.029 0 .086-.143.086-.2.057-.028.086-.171.114-.171 0-.028.115-.285.143-.285.057-.258.2-.4.258-.657.057 0 .057-.571.143-.571.085-.286-.115-.6-.315-.771 0-.029-.029-.143-.086-.143 0-.143-.114-.114-.171-.229-.058-.114-.23-.228-.23-.314-.056 0-.028-.142-.028-.2-.114-.085-.143-.142-.229-.256-.143-.229-.086-.657-.086-.857 0-.257-.057-.514 0-.8.03-.17.03-.342.03-.485l.142-.314c.114-.057.2-.343.343-.343.029-.057.115-.114.172-.142 0-.086.086-.115.143-.172.143-.143.315-.285.515-.37.2-.087.429-.03.658-.03.315-.028.486-.228.772-.342.315-.114.43-.2.83-.257 0-.029.257-.086.314-.086.154-.005.307.005.458.029.143 0 .2-.057.343-.086.172-.028 1.745-.4 1.774-.4 0-.085.658-.17.773-.228.142-.057.142-.086.314-.086.115 0 .229-.057.343-.057.2 0 .573-.143.63-.171.114-.029.171-.057.314-.086.2 0 .315-.057.515-.085.029 0 .315-.086.315-.086.286 0 .486-.086.744-.086 0 .029.8-.057.915-.057.086 0 .715-.057.715.057.143.029.2.172.344.2.085.114.171.257.286.343.028.114.143.285.257.342 0 .029.114.229.143.229 0 .057.086.228.115.228.028.172.114.4.114.514.114 0 .172.457.286.457.029.143.114.343.114.457.03 0 .144.228.144.285.114.058.085.229.085.343 0 .114.029.171-.085.229-.03.114-.086.057-.086.17 0 .2-.057.23-.23.343-.142.086-.285.172-.4.172 0 .086-.4.114-.514.114-.172 0-.258.114-.458.114-.086 0-.715.114-.715.114-.172 0-.315.115-.515.115-.172 0-.286.085-.43.085-.228 0-.457.086-.686.086-.2 0-.315.086-.515.086-.229 0-.315.085-.515.085-.143 0-.229.086-.372.086 0 .114-.457.143-.572.143-.086 0-.486.085-.486.114-.2 0-.258.086-.458.086 0 .085-.286.057-.286.114-.057 0-.343 0-.343.057-.086 0-.115.057-.2.057 0 .086-.4.086-.487.086.115.142-.257.37-.343.4Zm11.671 6.625c-.057.171-.228.2-.286.342a1.178 1.178 0 0 0-.057.543c.029.2.2.257.286.428.086.029.458.143.458.2.057 0 .458.057.458.114.143 0 .371.086.486.086 0 .143 1.487.143 1.487.057.029 0 .2.029.258.029.028 0 .229.057.229 0 .143 0 0-.029.114-.029 0-.114.486-.114.6-.114 0-.114.373-.057.459-.171.085 0 .228-.143.286-.229.114 0 .143-.171.286-.171.028-.057.2-.143.257-.143 0 0 .229-.086.286-.086.258-.057.315.172.544.257 0 .058.057.172.086.229.057.114.171.171.257.257.057.057.057.085.057.2 0 .142.057.114.086.228.029.114.143.2.143.286 0 .085.2.314.2.457.172.085.2.828.2.999.03.2-.028.343-.057.514-.028.171-.057.343-.057.514-.028 0-.086.2-.086.257-.028.2-.143.485-.343.57-.086.258-.315.315-.572.372-.086.029-.544.143-.544.2-.143.029-.228.086-.4.114-.172 0-1.43.2-1.573.2-.172.029-.944.2-1.03.086-.086 0-.029-.057-.115-.057 0-.057-.257 0-.286 0-.143 0-.171.028-.343-.029-.143-.057-.172-.057-.315-.028-.143.057-.486-.086-.543-.2-.086 0-.143-.058-.258-.058-.114 0-.229-.057-.343-.057-.029 0-.257-.114-.257-.142-.086 0-.515 0-.515-.086-.115 0-.544-.114-.544-.171-.143-.029-.343-.029-.4-.143-.115 0-.2-.2-.315-.257-.029-.114-.114-.114-.114-.257-.029 0-.086-.143-.086-.2l-.23-.257c0-.114-.085-.171-.085-.286-.114 0-.2-.485-.286-.485a.692.692 0 0 0-.172-.285c-.085-.086-.314-.143-.314-.286-.057-.028-.086-.057-.086-.114-.086-.057-.029-.114-.114-.143 0-.029-.086-.2-.115-.2 0-.085-.143-.628-.2-.628 0-.057-.086-.77-.086-.77a1.697 1.697 0 0 1-.029-.658c.029-.285.086-.514.086-.828.029-.428.2-.828.23-1.256 0-.114.056-.6.142-.6 0-.085.086-.628.143-.628 0-.114.029-.257.029-.4.028 0 .086-.2.086-.257.028 0 .114-.542.114-.628 0-.114.057-.742.114-.742l.2-.6c0-.2.2-.428.287-.628.028 0 .085-.285.171-.314 0-.114.086-.171.086-.286.057 0 .115-.228.172-.285 0-.086.114-.2.143-.314.028 0 .2-.486.2-.543.029 0 .143-.314.143-.37.057 0 .229-.63.229-.686.029 0 .057-.8.057-.914 0-.171 0-.343.029-.485.028-.086.057-.057.057-.143.086-.057.086-.114.143-.171.086-.086.2-.115.286-.2a.543.543 0 0 1 .315-.2c.171-.057.858-.371.858-.4.172 0-.029-.028.172-.028 0-.086.085 0 .114 0 0-.058.258-.029.258-.115.057 0 .371-.057.371-.085.258 0 .544-.086.83-.114.172-.03.229-.058.4-.058.143 0 .286-.057.458-.085 0-.086.658 0 .658-.115.114 0 .715-.028.715-.114.258-.028.544-.057.801-.143.057-.028.172-.057.172-.085.086 0 .372-.057.372-.086.114 0 .743.029.743-.085.115 0 .172-.058.315-.058l.315-.085c.114 0 .2-.057.372-.057.171 0 .343-.029.515-.086.114-.029 1.144 0 1.144.057.2 0 .372.143.6.143 0 .057.058 0 .058.057.114 0 .172.086.257.143.086.057.4.4.458.4.057.285.172.6.458.799 0 .057.085.171.114.228.057.058.057.115.086.172a.158.158 0 0 1 .086.143c.028 0 .229.4.229.456.057.314-.115 1.171-.315 1.314a1.015 1.015 0 0 1-.258.114c-.314.029-.572.114-.915.057-.172-.028-1.259.2-1.344.2-.115 0-.258.057-.372.057 0 .029-.172.086-.2.086 0 .057-.287.057-.372.057 0-.029-.23.057-.315.057-.6 0-1.173.114-1.774.114-.314 0-1.544.172-1.544.229-.058 0-.286.085-.286.114-.115 0-.172.057-.287.085-.114.03-.171.172-.286.172-.028.057-.2.171-.286.171-.028.057-.086.057-.143.114-.057.086-.143.115-.2.229-.086.057-.172.142-.257.2a1.02 1.02 0 0 1-.115.314c-.057.143-.114.342-.229.428 0 .057-.114.229-.171.257-.172.114-.115.286-.115.428.143.086.172.2.372.229.172.028.258-.029.4-.029 0-.057.744-.028.744-.114.143 0 1.288-.171 1.288-.257.229 0 .429-.086.629-.143 0-.085.43-.142.43-.2.17-.028.314 0 .4-.114.057 0 .228-.114.257-.143.057-.028.458-.114.458-.17.086 0 .2-.087.314-.115.115 0 .172.057.258.057 0 0 .172.114.229.114.028.086.114.086.2.086.114.028.057.028.143.085.086.058.086.115.172.2.057.058.171.143.171.229.143.085.315.457.315.628.114 0 .2.485.286.485 0 .058.057.2.114.229 0 .028.086.228.086.228 0 .114.057.229.057.343v.4c-.114 0 .058.77-.057.77 0 .115-.114.372-.257.457 0 .172-.372.286-.486.286 0 .057-.2.029-.2.086-.172.028-.287.085-.458.114-.258.028-.372.171-.63.2l-.343.085c0 .086-.229.086-.229.115l-.83.114c0 .085-2.03.285-2.116.285 0 .029-.2.086-.258.086 0 0-.83.143-.83.029-.057 0-.057.057-.142.057-.086.028-.2.028-.286.057a2.16 2.16 0 0 1-.601 0c0 .085-.63.085-.63.171-.114 0-.2.057-.314.057h-.286a.45.45 0 0 0-.344.086Zm57.041-11.05c.143 0 .286 1.17.229 1.17v.657a.96.96 0 0 1-.143.486 3.22 3.22 0 0 0-.286.228c-.057 0-.429.2-.429.228-.229 0-.458.143-.686.143l-.744.114c-.401.143-.801.172-1.173.229 0 .085-.629.028-.629.114-.258 0-.487.143-.801.171-.115 0-.658.086-.658.172-.143 0-.315.057-.458.057 0 .057-.258.085-.343.085-.286.029-.429.115-.744.172 0 .057-.515.142-.601.142 0 .115-.715.172-.858.172-.114.028-.2.114-.315.114 0 .057-.314.086-.4.086 0 .028-.572.114-.572.2-.058 0-.258.028-.258.085-.086 0-.143.114-.257.114-.057.115-.23.172-.23.286a.524.524 0 0 0-.2.285 4.76 4.76 0 0 1-.114.2c-.028.115-.057.086-.086.2-.057.029-.114.114-.114.171-.057.058-.229.229-.229.286-.057.029-.114.257-.143.257 0 .086.029.171.029.286l.229.085c.085.114.171.2.286.2 0 .114.715 0 .83 0 .371 0 .743-.028 1.115-.114.172-.029.343-.029.543-.029 0-.057.286-.057.372-.057 0-.028.773-.057.773-.143.085 0 .4-.028.4-.085.143-.029.286-.114.429-.114 0-.029.429-.229.515-.229.086 0 .229-.057.258-.143a.43.43 0 0 0 .2-.085.665.665 0 0 1 .286-.143c.057-.086.286-.171.286-.228.229 0 .4.085.601.17.114.058.343.2.343.343.086 0 .086.286.172.286l.228.628c.029 0 .172.457.172.514 0 .057.172.486.172.486 0 .085.114.97 0 .97 0 .086-.086.343-.143.343 0 .029-.086.228-.086.228 0 .115-.057.229-.143.343-.057.086-.401.229-.401.257-.028 0-.228.114-.228.114-.115 0-.201.086-.315.086-.029 0-.315.057-.315.086-.171 0-.343.028-.543.057l-1.774.257c-.229 0-4.09.57-4.405.57-.344 0-.515.087-.887.087-.229 0-.372.142-.572.2-.086.028-.172.028-.23.113-.085 0-.056.086-.142.086-.086.086-.172.229-.258.286-.028.142 0 .257 0 .4.058 0 .172.285.258.342l.229.229c.114 0 .257.114.314.2.086 0 .23.142.286.2.115 0 .143.085.258.085 0 .057.63.114.744.143.372.028.772-.057 1.115-.143.058-.029.4-.057.4-.086.058 0 .287-.085.287-.114.143-.029.172-.086.343-.114 0-.057.229-.029.229-.086.057 0 .229-.028.229-.085.172-.029.257 0 .343-.143.143 0 .315-.172.458-.172 0 0 .4-.17.458-.17 0-.03.6-.144.686-.144.2-.028.343.2.486.314.086.058.115.2.201.257.028.086.085.372.143.372.057.228.171.342.171.542.115 0 .086.914.086 1.057.086 0 0 .685 0 .742-.028 0-.057.457-.086.543-.057.142-.114.37-.229.428 0 .143-.314.314-.4.428-.057.057-.2.172-.286.172 0 .028-.143.085-.172.085-.057.086-.257.171-.343.2-.057.114-.4.228-.515.228 0 .086-.486.115-.543.286-.115 0-.344.114-.487.171-.2.086-.4.086-.6.086 0 .057-.2 0-.2.086-.144.057-.888-.058-1.002-.058-.2 0-.4 0-.6-.028-.172 0-.373-.086-.544-.086-.057 0-.43 0-.43-.057-.2 0-.4-.114-.571-.143-.115-.028-.63-.085-.63-.17-.085 0-.143-.058-.286-.087 0-.028-.2-.114-.229-.114-.057-.114-.371-.114-.371-.2-.03 0-.287-.142-.287-.142-.114-.029-.257-.086-.314-.2-.115 0-.172-.2-.286-.2-.086-.114-.286-.2-.344-.314-.228 0-.343-.4-.486-.514-.114-.114-.171-.286-.286-.343 0-.085-.057-.085-.086-.171-.086-.057-.028-.114-.114-.172-.029-.114-.115-.17-.115-.285-.028 0-.114-.171-.114-.229-.086 0-.2-.742-.2-.856 0-.2-.086-.485-.115-.742a1.55 1.55 0 0 1 0-.514 2.978 2.978 0 0 1 0-.714c.029-.172.029-.372.029-.543.028 0 .057-.285.057-.342.029 0 .143-.543.143-.629.029-.257.172-.456.172-.685-.029 0 .2-.6.2-.628.086 0 .114-.485.172-.485 0-.058.057-.286.085-.286 0-.114 0-.285.086-.314.029-.114.086-.143.086-.257.029 0 .086-.171.086-.229.086 0 .143-.456.229-.456.028-.229.114-.343.171-.543.029-.085.086-.171.086-.257.057 0 .115-.514.115-.6-.086 0-.143 0-.172.143-.114.029-.2.114-.286.114 0 .03-.2.115-.258.115-.114.028-2.202 1.656-2.26 1.713-.085.086-.142.114-.257.114 0 .057-.343.171-.429.171 0 .058-.257.029-.257.086-.086 0-.172.029-.258.029-.028.057-.086.085-.114.114-.057.029-.172.114-.2.2-.03 0-.287.114-.287.114-.085 0-.543.114-.543.171-.057 0-.343.057-.343.086-.086.028-.2.086-.287.086 0 .085-.371.114-.371.2-.315.085-.687.2-1.03.228-.143.028-.143.057-.229.171-.057 0-.029.086-.086.114-.029.172-.114.229-.143.4-.029.314-.086.543-.114.857-.086 0-.115.457-.115.57-.028 0-.028.972-.114.972 0 .085-.057.628-.143.628 0 .114-.029 1.028-.057 1.028 0 .085-.115.885-.058.885.029.114 0 .257-.028.371-.029.114 0 .2 0 .343 0 .057-.143 1.056-.143 1.17 0 .115-.029.172-.029.258-.029 0-.086.142-.114.17-.086.086-.2.115-.258.2-.086 0-.171.086-.257.086 0 .057-.23.086-.286.086 0 .057-.744.086-.858.086-.144 0-.2-.057-.344-.086 0-.029-.143-.114-.2-.114-.029-.086-.172-.114-.229-.172-.086-.085-.2-.057-.286-.17-.114 0-.515-.4-.515-.515-.086-.057-.086-.6-.2-.628-.029-.114-.029-.257-.057-.371-.086 0 .057-1.057.028-1.114-.057-.171.086-.8.086-.942 0-.114-.057-.2-.028-.314 0-.114.057-.171.057-.286 0-.114-.057-1.113.086-1.113 0-.114.057-.2.057-.343.028 0 .086-.885.057-1l-.4-.2c-.115 0-.172-.142-.287-.142-.085-.114-.228-.171-.314-.285-.086-.086-.286-.172-.286-.286-.029 0-.143-.228-.172-.257-.114 0-.229-.143-.257-.257-.115-.057-.23-.343-.23-.457 0 0-.142-.4-.142-.457-.029 0 .314-1.884.314-1.941.058 0 .086-.4.172-.4 0-.171.372-.4.515-.457.143-.057.229-.057.4-.028.086 0 .344-.029.344-.086.114 0 .257-.057.4-.086a.667.667 0 0 1 .2-.2c.086-.057.03-.085.115-.114.057-.143.143-.285.2-.428.086-.172 0-.429.029-.628.028-.429.028-.857.057-1.314l-.229-.285c-.057 0-.315-.057-.315-.086-.143 0-.2-.028-.371.029-.172.057-.344.057-.515.057-.086 0-.4 0-.4.057-.115 0-.172.085-.287.085-.172 0-.343.229-.543.229 0 .028-.2.143-.258.143-.086.114-.171.142-.315.171 0 .086-.543.143-.657.143 0 .085-.716-.086-.773-.086-.171 0-.372-.143-.515-.143-.143-.114-.286-.228-.4-.4-.2-.028-.286-.028-.4.058-.115.085-.115.257-.115.37 0 .144-.057.258-.115.4-.085.286.23.4.23.657-.03.286.028.486 0 .8 0 .085 0 .2-.03.285-.057.172.03.372-.028.543 0 .371.057.77 0 1.142-.029.143 0 .228 0 .371v.6c0 .171-.057.343-.086.485-.028.2-.028.371-.028.571 0 .057.057.486 0 .486 0 .2-.058.37-.058.542 0 .229-.114.371-.085.657.028.314 0 .685-.058 1.056-.028.343-.085.657-.057.971 0 .114.057.6.143.6 0 .314.057.742.057 1.056 0 .086.058.172.058.286v.571c0 .114-.058.97-.115.97 0 .086-.086.6-.143.6 0 .029-.172.457-.172.457 0 .057-.028.229-.085.229 0 .114-.172.2-.172.314-.029.028-.315.228-.315.2-.114 0-.2.085-.343.085h-1.287c-.258 0-.43-.057-.687-.114-.114-.143-.171-.228-.314-.343-.143-.114-.2-.285-.344-.37-.057-.058-.114-.143-.114-.2-.086 0-.057-.372-.143-.372 0-.057-.143-.4-.172-.4 0-.085-.057-.4-.086-.4v-.713c-.057 0-.085-.543-.143-.543 0-.057-.114-.485-.171-.485-.029-.057-.115-.371-.143-.371-.029-.143-.115-.229-.172-.372-.086-.057-.2-.2-.2-.285-.115-.057-.115-.4-.229-.4 0-.114-.172-.171-.2-.314-.115-.085-.115-.228-.23-.257 0-.057-.142-.285-.2-.285 0-.143-.114-.143-.2-.257a7.051 7.051 0 0 1-.2-.257c0-.029-.029-.143-.086-.143a.34.34 0 0 0-.143-.257c-.143-.143-.114-.257-.229-.4-.057-.114-.171-.228-.171-.342-.057 0-.057-.2-.115-.257 0-.143-.257-.2-.257-.343-.114-.057-.257-.257-.343-.371-.086 0-.086-.057-.143-.086-.086-.057-.115-.057-.23-.057-.028 0-.142 0-.142.057-.115 0-.086.086-.172.086 0 .057-.086.057-.086.114-.085.029-.057.114-.057.2 0 .057-.028.428-.086.428 0 .114-.2.97-.229.97 0 .23-.171.544-.171.829-.029 0-.143.314-.143.371-.115 0-.029.628-.115.628 0 .057.058.628.029.628 0 .4-.086.6-.086.943v.6c0 .17-.086.37-.143.542 0 .057-.029.457-.086.457 0 .114-.086.143-.086.285-.028 0-.143.343-.143.4-.2.114-.2.457-.543.371-.086-.028-.858-.114-.973-.114-.171 0-.314-.029-.486-.029 0-.057-.63-.028-.715-.2-.115-.028-.2-.028-.286-.114-.086 0-.086-.085-.143-.142-.172-.143-.143-.343-.172-.543-.029-.2-.143-.285-.143-.485 0-.115 0-.257.029-.372.028-.17-.029-.342-.058-.513 0-.143.058-.257.086-.372.029-.142-.028-.228-.028-.37 0-.086.085-.658.057-.658 0-.057 0-.456.057-.456 0-.058.029-.229.086-.229a6.63 6.63 0 0 0 .143-1.085c.029-.485.229-.714.229-1.228.086 0 .057-.6.143-.6 0-.228.143-.456.143-.685.057 0 .172-.713.2-.828 0-.285.086-.6.143-.913.057-.2.086-.4.143-.6.057-.2.057-.4.029-.6 0-.2 0-.4.057-.6.028-.2.028-.342.028-.542.03-.2 0-.37 0-.57 0-.115.058-.286.058-.4a14.637 14.637 0 0 1-.115-1.114c-.028 0-.143-.343-.143-.4-.086 0-.114-.828-.028-.828 0-.086.057-.171.057-.314v-.314c-.029-.343.086-.6.086-.914 0-.2.085-.4.085-.628-.028 0 .287-.514.287-.571.085 0 .114-.143.228-.143.058-.057.286-.2.286-.228.115 0 .144-.057.287-.086 0-.028.228-.085.286-.085 0-.172.772-.03.886-.03.2 0 .287.03.458.087.172.057.258.2.458.257 0 .085.4.142.4.2.086 0 .2.056.258.114.086 0 .229.257.229.314.171 0 .143.8.143.942 0 .057 0 .343.057.343 0 .257 0 .514.029.77 0 .086.057.829.057.829-.086.257 0 .57 0 .828.028 0 .143.342.143.428.086 0 0 .228 0 .285 0 .086.171.2.171.315.086.057.143.228.143.314 0 0 .143.228.143.257.115.057.115.2.23.285 0 .114.142.229.2.343.085.257.514.428.514.685.03 0 .086.143.086.171.115.057.2.257.315.372.057.057.172.2.172.257.085.085.4.285.4.428.086.029.172.2.2.285.086.086.372.314.372.429.172.114.229.485.515.485.115 0 .143.029.2-.085.058 0 0-.058.058-.058.028-.17.114-.314.143-.428 0-.057.085-.171.028-.171v-.514c.057 0 .115-.771.115-.914.085 0 0-.314 0-.371-.058-.171 0-.257 0-.4l.085-1.085c0-.114 0-.885.086-.885 0-.114.058-.828.086-.828 0-.114.029-.6.115-.6.028-.171.085-.257 0-.428-.03-.057-.03-.571.028-.571-.028-.371.029-.628.029-1 .086 0-.029-.4.057-.4.029-.2.086-.285.2-.456.172-.2.4-.314.658-.4.057 0 .372-.057.372 0 .114 0 .315.029.372.143a.94.94 0 0 1 .715.371c.057.057.143.114.143.171.057 0 .057.058.086.086 0 .086.114.143.171.2 0 .057.058.143.115.171 0 .029.057.172.086.172 0 .114.057.257.057.37 0 .144.2.486.4.458.144-.029.172-.143.258-.2 0-.029.114-.2.114-.2 0-.114.115-.228.172-.286.114-.114.229-.342.4-.4.287-.085.916-.17 1.059-.256.029-.086.172-.314.286-.314.057-.086.63-.229.63-.229.2.029.715-.143.858-.2.257-.085 3.318-.428 3.318-.285h1.659c.172 0 2.088.085 2.088.114.086 0 .115.057.2.057.115 0 1.059.143 1.23.143.258 0 .401.085.687.085.115 0 1.173.2 1.173.229.086 0 .2.114.315.143 0 0 .429.085.486.085 0 .057.372.2.43.2 0 .057.257.143.257.286.085.057.286.228.286.314.2.086.2.4.371.514 0 .085.086.057.086.171.058 0 0 .057.086.086.029.114.115.285.2.342 0 .086.086.086.086.2.057 0 .057.143.057.2.029.143.115.314.115.428.086 0 .171.372.171.457 0 .257.086.486.086.714 0 .114.058.229.058.343v.457c-.086 0-.086.656-.115.8-.086.228-.229.827.2.656.086-.029.2-.143.2-.229.086-.085.287-.228.287-.342.114-.057.085-.229.2-.257 0-.114.086-.143.086-.257.114-.086.114-.229.229-.286 0-.057.114-.257.143-.257 0-.085.171-.456.2-.456 0-.058.114-.486.143-.486.029-.257.172-.371.229-.628.057 0 .085-.143.085-.2.086-.029.058-.114.143-.171.086-.086.086-.114.086-.257.029-.143.086-.229.086-.343.086-.057.086-.143.143-.228.086-.086.115-.172.23-.286 0-.057.028-.171.085-.171 0-.229.315-.371.486-.428 0-.058.544-.115.63-.115 0-.028.572-.142.629-.142.114 0 .83-.058.83-.086.228 0 1.172-.286 1.201-.286 0-.085 3.461-.913 3.604-.913 0-.057 1.488-.4 1.488-.429.057 0 .429-.028.429-.085.114 0 .172-.086.286-.086 0 0 .83-.2.83-.114.085 0 .286 0 .286.086.114 0 .171.142.286.142.114.114.229.257.372.257 0 .029.085.057.114.086.057.085.372.828.401 1 .314-.058.486.428.514.485Zm-19.538 3.797c0 .029-.2.172-.257.172-.029.085-.229.17-.315.2-.028.057-.143.114-.2.114-.029.057-.114.085-.2.085 0 .029-.258.143-.286.143-.115.143-.315.2-.487.257-.2.057-.372.143-.6.143 0 .085-.344.085-.43.085-.171 0-.314 0-.457-.114-.057-.085-.086-.057-.086-.114-.086-.057-.029-.114-.115-.143-.028-.085-.057-.485-.114-.485 0-.086-.086-.628-.143-.628 0-.057-.029-.343-.057-.343 0-.114 0-.228.028-.343 0-.114-.057-.17-.028-.285 0-.2 0-.4.229-.428.2-.029.372-.029.572-.029.143-.029.2 0 .343 0 0 .057.286.029.286.086.172 0 .286.028.458.028.114 0 .2.057.315.057.143 0 .343.029.514.058 0 0 .258.085.287.085.171.029.314.143.486.143 0 .114.515.114.6.285.058.058.144.429 0 .429a1.031 1.031 0 0 1-.343.542Zm27.262-4.939c.115 0 .172.2.286.256 0 .058.572.829.687.943.057.057.171.2.171.285.058.029.201.257.201.314.085.029.114.143.114.229.029.143.2.2.2.342.058.029.115.2.115.286.057 0 .086.171.086.228.085 0 .114 1 .143 1.085.028.257.171.429.171.657.086 0 .115.571.172.571 0 .057.143.686.171.686 0 .114.058.628.115.628 0 .057.029.342.086.342 0 .115.057.172.057.257 0 .143.029.571.286.6.143.029.286-.257.286-.343.029 0 .086-.143.086-.2.143-.057.114-.314.257-.37.058-.143.143-.23.201-.372.057-.143.085-.2.2-.285 0-.058.086-.2.143-.229.028-.086.086-.086.086-.171.028-.029.143-.143.143-.172.143 0 .2-.285.343-.285.029-.086.343-.343.372-.428.028-.115.028-.172.143-.2 0 0 .172-.143.229-.143 0-.029.229-.171.286-.2.114-.029.257-.057.257-.114.086 0 .544-.314.572-.4.115 0 .172-.2.286-.2.029-.057.287-.171.287-.2.114-.028.143-.085.286-.085.028-.086.286-.143.286-.2.028 0 .143-.029.143-.086.086-.028.314-.114.343-.2.2 0 .4-.228.601-.257.2-.028.343-.142.543-.171 0-.029.286-.114.343-.114l.487-.114.286-.086c.057-.029.229-.086.229-.114.372-.057 1.173-.286 1.201-.286 0-.028.258-.057.315-.057 0-.028.2-.086.257-.086 0-.028.401-.057.458-.057 0-.114 1.201-.171 1.287-.171h.315c.143 0 .229-.057.372-.057s.343.028.486.086c.086.057.172.085.286.142.029.057.143.057.143.086.143.029.258.2.372.343.086.114.2.17.315.285.086.114.143.229.257.286 0 .085.057.028.057.142 0 .115.144.172.229.257.143.143.143.4.315.486.086.114.086.285.086.428.086 0 .143.343.171.428.086 0 .115.572.143.686.029.257 0 .485 0 .713 0 .143.029.829-.085.829 0 .057 0 .285-.058.285 0 .114-.085.171-.085.286-.058 0-.143.57-.258.628 0 .085-.057.085-.086.114-.057.171-.2.257-.257.428-.029.115-.057.086-.086.2-.057.057-.2.143-.2.229a.393.393 0 0 0-.143.228c-.143.057-.2.257-.343.257 0 .029-.744.057-.83.057 0 .086-.315-.028-.372-.057-.057-.114-.114-.086-.172-.086-.085 0-.6.029-.6-.085-.115 0-.172-.143-.286-.172-.029-.057-.172-.114-.258-.114l-.171-.143a.586.586 0 0 1-.172-.114c-.029-.028-.057-.057-.057-.114-.058 0-.086-.028-.115-.086-.114-.171-.143-.456-.114-.656l.028-.6c.029 0 0-.257-.028-.257 0-.114.057-.685.143-.828.086-.143.057-.286.057-.457 0-.114-.086-.371-.172-.4 0-.085-.2-.17-.257-.17-.143 0-.372-.03-.486.028 0 .028-.201.114-.258.114a1.667 1.667 0 0 1-.372.057c0 .029-.171.086-.229.086 0 .028-.286.085-.343.085-.143.057-.2.172-.343.229 0 .085-.258.085-.258.114-.143.028-.171.085-.286.114-.114.143-.228.171-.343.314-.2.057-.257.114-.4.257 0 .114-.172.2-.258.257-.114.114-.229.143-.314.286-.086 0-.344.257-.344.342-.114.086-.143.172-.257.286 0 .114-.172.171-.172.285-.114.115-.229.2-.286.343-.057.029-.229.229-.229.286-.086.057-.171.228-.2.314-.086.085-.114.171-.229.228 0 .086-.086.114-.086.2-.028 0-.2.228-.2.286 0 .057-.114.4-.172.4 0 .2-.171.342-.171.599 0 .171.028.314 0 .485 0 .029-.057.172.028.172 0 .142.172.2.258.285.143.029.2.143.343.2.057.029.115.057.143.114.057.086.115.057.172.114.114 0 .171.2.286.2.057.114.229.114.315.229.085.085.6.342.6.457.086 0 .229.114.286.2.086 0 .029.085.143.085.029 0 .172.029.172.057.057 0 .2.086.229.143.086 0 .171.143.286.171 0 .115.458.143.458.229.143 0 .286.142.429.142 0 .086.457.115.457.2.201 0 .401.029.601.086.2.057.372.143.572.143.115 0 .687.028.687-.029.086 0 .801 0 .801-.057.143 0 .2-.057.314-.057 0-.057.344-.057.43-.086 0-.028.343-.2.4-.2.029-.057.086-.057.086-.085.114 0 .143-.086.229-.171.086 0 .343-.143.372-.229.085-.114.257-.285.372-.285.028-.058.171-.115.257-.115 0-.085.257-.057.286-.028 0 .057.057 0 .057.057.115 0 .143.114.2.2.086.028.144.028.172.114.057.029.029.086.086.086 0 .085.143.142.143.171.2.171.515-.086.515-.257.2 0 0-1.542.086-1.542 0-.2.143-.4.143-.628.086 0 .086-.571.171-.571 0-.2.115-.343.172-.543.057 0 .057-.514.172-.514 0-.085.171-.628.228-.628 0-.057.201-.628.229-.628 0-.029.058-.2.086-.2 0-.028.086-.257.115-.257.028-.114.2-.542.257-.542 0-.143.143-.314.172-.457.028-.086.114-.172.114-.257.029 0 .115-.229.2-.286 0-.085.029-.028.058-.143.028 0 .028-.142.057-.2a.97.97 0 0 0 0-.57c0-.143-.029-.257-.057-.4 0-.086.057-.229.057-.371.028 0 .114-.457.171-.457 0-.086.172-.486.258-.486.028-.114.086-.37.172-.456.085-.058.171-.258.286-.258.085-.114.171-.142.286-.256.114-.143.171-.172.343-.172 0-.085.515-.114.629-.143l.601-.2c.229 0 .372-.028.572-.056l2.146-.315c.228 0 1.859-.342 2.231-.37.343-.03.715-.2 1.087-.23.114 0 .944-.028.944-.113l.83-.029c0-.057.572-.086.686-.086.286 0 1.545-.257 1.631-.257.114-.028.429-.028.543-.085.115-.057 1.173-.257 1.316-.286 0-.085.458-.143.458-.228.086 0 .715-.057.715-.086.2-.028.343-.057.515 0l.257.086c.057.085.172.257.286.257.058.057.172.171.172.228.143.114.257.257.372.343 0 .086.086.114.086.228.057 0 .143.257.229.286.057.143.171.257.228.428.029 0 .143.286.143.343.029 0 .086.342.143.342 0 .086.143 2.028 0 2.028 0 .142 0 .257-.143.342-.114.086-.286.172-.429.114-.143-.028-.143 0-.257 0a2.04 2.04 0 0 1-.601-.085c-.257-.057-1.23-.114-1.545-.114-.171.057-.343.057-.543.057-.172 0-.286.057-.429.057-.143 0-.286.028-.429.057-.143.028-.229-.029-.344-.029-.028 0-.228.029-.228.057-.201 0-.458-.057-.63.03-.143.056-.972.028-1.087.085a1.219 1.219 0 0 1-.315.057.738.738 0 0 0-.429.028c-.171.058-.286 0-.429 0-.143 0-.314.029-.515.058 0 .057-.515.057-.6.057-.115 0-.973.114-.973.085-.114 0-1.144.086-1.144.086-.315.028-.401.114-.715.143-.115 0-1.86.228-1.86.285-.171.029-.143.114-.286.2l-.458.371c0 .086-.143.2-.171.314-.057 0-.029.143-.086.143 0 .143-.372.628-.372.742-.029.258 0 .4.2.572.286 0 .515.085.83.085 0 .057.343.029.4.029l.601.028c.286 0 .544.029.858.086.143.029.229-.028.372-.028 0-.03.401-.058.458-.03.086 0 .744-.113.858-.113 0 .028.572-.143.629-.143.172-.257.43-.229.687-.171l.257.085c.029.057.229.143.229.172.058 0 .201.057.201.085.114 0 .171.172.257.229 0 .057.83 1.313.83 1.399.114.057.114.285.114.4 0 .142.057.228.057.37v.543c0 .143-.028.8-.143.8a.259.259 0 0 1-.114.228c-.115.086-.372.371-.372.543-.057.114-.515.4-.515.456-.2 0-.372.058-.572.143-.143.057-.258.143-.343.143 0 .057-.201.114-.229.171-.172.229.143.514.314.686.086.085.201.171.229.285.172.029.286.172.344.343 0 .343-.058 1.942-.115 1.942 0 .085-.286 1.027-.515 1.113-.114.029-1.087.514-1.287.514 0 .2-3.805.571-4.262.571-.058 0-.773.029-.773-.057-.229 0-.515-.086-.744-.143-.085-.028-1.201-.285-1.315-.485-.058 0-.229-.114-.287-.172-.057-.057-.257-.17-.314-.17-.029-.087-.086-.087-.172-.087-.057-.057-.057-.114-.143-.114-.086-.114-.229-.228-.343-.342-.029 0-.2-.086-.2-.114-.086-.058-.058-.086-.115-.115 0-.142-.114-.142-.171-.257-.115 0-.258-.2-.315-.285-.057-.029-.172-.2-.172-.257-.114-.086-.114-.172-.2-.257-.029-.029-.257-.114-.257-.086-.201 0-.287.457-.372.457 0 .086-.086.171-.115.285 0 .058-.086.286-.143.286 0 .086-.143.371-.229.428 0 .057-.228.429-.257.429 0 .057-.115.2-.172.257-.114.085-.114.228-.229.314-.114.143-.257.2-.371.314-.144.143-.287.371-.487.4-.171.028-.314.17-.486.17-.115 0-.2.058-.343.058-.229 0-.401.057-.658.057-.286 0-.658-.057-.973-.086-.172 0-.343-.057-.486-.057-.115 0-.172-.085-.286-.085-.029 0-.315.057-.315-.029-.143-.028-.172-.057-.286-.086-.2-.028-.315-.142-.515-.17-.172-.03-.229-.087-.372-.115-.057 0-.343-.057-.343-.143-.057 0-.315-.028-.315-.085-.114 0-.171-.086-.286-.115 0-.057-.486-.171-.486-.2-.057 0-.258-.057-.258-.085-.143 0-.228-.2-.371-.2 0-.029-.287-.171-.344-.171 0-.029-.171-.115-.229-.115-.057-.143-.228-.085-.286-.228a.395.395 0 0 1-.229-.143c-.057 0-.143-.028-.171-.085a.747.747 0 0 0-.258-.143c-.114-.143-.2-.172-.314-.257-.086 0-.258-.143-.315-.2a.597.597 0 0 0-.286-.172c-.057-.085-.172-.114-.257-.2-.115-.142-.258-.142-.344-.285-.2-.143-.372-.4-.6-.457-.172-.228-.401-.314-.573-.514-.085-.085-.114-.085-.143-.2-.057-.057-.114-.057-.114-.142-.057-.058-.114-.029-.143-.086-.086 0-.429-.457-.429-.571-.2-.143-.229-.4-.429-.543 0-.085-.058-.028-.058-.114-.085-.057-.085-.143-.171-.228-.057-.086-.143-.143-.2-.229h-.229c0 .057 0 .086-.057.086 0 .086-.172.6-.201.6-.028.4-.114.8-.086 1.199 0 .343.144.685.144 1.028 0 .428.057.828.057 1.228-.086 0-.029.628-.057.742 0 .114-.029.285-.144.343 0 .085-.085.285-.114.37-.029.2-.143.315-.257.486a1.28 1.28 0 0 1-.315.229c0 .057-.2.085-.2.114-.058 0-.401.028-.401-.029-.143 0 0-.028-.114-.028 0-.057-.172 0-.2 0-.115.028-.201-.029-.315-.057-.086 0-.401-.115-.401-.172-.143 0-.429-.085-.543-.228-.057-.086-.2-.257-.286-.286-.029-.114-.172-.2-.172-.285-.229-.114-.2-.571-.229-.828-.114-.428-.086-.914-.086-1.342 0-.286 0-.628.029-.885.057-.314.029-.629.029-1 0-.2-.229-.485-.458-.542 0-.143-.858-.114-.858-.057h-1.116c-.057 0-.486.142-.486.142-.2 0-.372.086-.544.086 0 0-.658.171-.743.171 0 .057-.515.057-.515.143-.029 0-.172.057-.172.086-.114.028-.2.085-.286.085a5.596 5.596 0 0 0-.401.429c-.057.057-.171.37-.2.37-.028.058-.114.258-.143.258 0 .086-.086.143-.086.257-.085.057-.085.171-.171.228 0 .029-.115.257-.086.257-.029.143-.086.2-.086.314-.057 0-.315.828-.4.828-.029.115-.058.086-.086.229-.086.057-.057.143-.143.171-.086.2-.172.343-.258.543-.057.028-.028.085-.086.085 0 .086-.085.143-.143.172-.143.143-.257.2-.4.37-.143.058-.343.315-.515.172-.114-.085-1.344-.714-1.487-.77-.058-.086-.229-.144-.229-.258-.143-.057-.229-.6-.286-.6-.029-.256-.115-.513-.143-.799 0-.057 0-.228.057-.228 0-.086-.029-.457.057-.457.057-.229.143-.428.229-.742.057-.2.286-.4.286-.629.029 0 .086-.142.086-.171.114-.086.114-.171.229-.257 0-.057.085-.228.114-.257 0-.057.2-.314.257-.314 0-.114.172-.4.258-.457.057-.2.286-.4.286-.628.114 0 .114-.428.2-.428 0-.086.086-.172.086-.286.057 0 .086-.228.086-.285.143 0 .143-.6.257-.6 0-.086.058-.171.058-.314s-.029-.257 0-.428c.028-.143.057-.286.057-.429.057-.143.229-.228.314-.342.086-.086.115-.172.258-.2.057-.086.143-.057.172-.143.114 0 .228-.171.343-.257a.876.876 0 0 0 .286-.428c.028-.086.086-.372.143-.372 0-.085.2-.428.257-.456 0-.143.143-.229.201-.4.057-.2.171-.257.228-.457.058-.029.115-.2.115-.286.028 0 .114-.2.171-.256 0-.115.144-.172.172-.286 0-.057.115-.343.172-.343 0-.085.086-.171.114-.285.086-.029.057-.229.115-.229 0-.114.085-.2.114-.314.057-.028.114-.228.172-.228 0-.143.2-.257.2-.4.057 0 .086-.2.143-.257.086-.285.429-.428.429-.742.057-.029.143-.143.143-.2.086-.057.115-.114.143-.229.143-.085.172-.342.315-.428 0-.057.171-.314.2-.314.057-.2.458-.371.458-.571.028 0 .086-.114.086-.143.085-.085.171-.171.286-.257.085-.085.171-.2.286-.285.085-.115.257-.143.286-.286.114-.085.314-.2.372-.314.085 0 .143-.143.228-.2.115-.085.144-.143.287-.171.143-.314.715-.114.944-.086.028 0 .171.029.171.057.086 0 .229 0 .315.029 0 .085.286.143.343.342Zm-1.459 4.825c.172.057.2.371.2.514.029.114.086.942.115.942 0 .086 0 .885-.057.885 0 .257-.086.457-.086.657-.086.057-.029.114-.115.171 0 .058-.171.229-.228.286-.172.114-.315.143-.544.114-.2-.028-.372.114-.572.114-.086 0-.458 0-.458-.085-.257-.2-.086-.486-.028-.714.028 0 .085-.171.085-.2.086 0 .086-.257.143-.257 0-.086.115-.343.229-.4 0-.142.115-.257.115-.4.086 0 .086-.313.171-.37 0-.115.143-.2.172-.286.057-.143.086-.172.114-.286 0 0 .201-.342.229-.428.086 0 0-.143.086-.143.029-.143.315-.228.429-.114Zm27.491 8.423c.086 0 .572.086.686.086.058 0 .172-.086.172 0 .172.057.258.114.401.114.143 0 .228.057.343.057.114 0 .2-.057.315.029a.343.343 0 0 1 .143.257c0 .085 0 .171-.058.257-.057.028-2.031.285-2.088.285 0 .115-2.145.229-2.374.257-.057 0-.258 0-.258-.057-.143 0-.457.029-.486-.085-.057 0-.057-.086-.114-.086 0-.057-.115-.057-.172-.057-.057 0-.286-.143-.286-.172-.172-.028-.629-.285-.544-.514.029-.142.172-.256.286-.342.172-.114.315-.086.515-.057 0-.086.372.028.429.028.058 0 .201 0 .201.057.085 0 1.487-.085 1.83-.085-.057.085.83-.114 1.059.028Z" fill="#8DC63F"/><path d="M33.76 27.426s-.114-.285-.114-.342c-.086-.058-.2-.143-.23-.2-.114-.029-.114-.257-.257-.257-.085-.057-.114-.172-.2-.257-.257-.057-.286-.4-.544-.457-.114-.029-.171-.114-.285-.143-.03-.057-.2-.143-.258-.143-.086-.114-.172-.114-.258-.228-.057 0-.286-.143-.286-.171-.142-.029-.171-.086-.314-.086-.086-.086-.258-.371-.372-.371-.029-.057-.229-.172-.286-.172-.086-.114-.2-.17-.286-.285-.115-.114-.143-.257-.286-.343-.086-.085-.286-.2-.286-.342-.086 0-.058-.257-.029-.315.057-.085.114-.142.2-.228.086-.086.143-.171.143-.257.058 0 .458-.4.515-.514.086-.114.143-.2.258-.285.028-.086.028-.143.085-.172 0-.057.058-.285.115-.285 0-.114.172-.2.2-.343.029-.171.2-.285.2-.457.058 0 .172-.485.172-.542.086 0 0-.457.086-.457 0-.029.057-.257.086-.257.028-.143.085-.171.085-.314 0-.114.058-.229.086-.371.029 0 .086-.2.086-.229.057 0 .057-.285.057-.342v-.6c0-.143-.057-.171-.057-.314 0 0 .057-.486-.086-.486 0-.228-.085-.4-.085-.6-.03 0-.143-.37-.143-.427-.058 0-.086-.286-.086-.343-.029 0-.086-.171-.086-.229-.114 0-.114-.57-.258-.57 0-.115-.2-.2-.2-.315-.057 0-.429-.656-.457-.828-.03 0-.115-.2-.172-.257-.086-.085-.343-.285-.343-.4-.086-.057-.172-.285-.287-.285-.142-.171-.2-.2-.4-.257-.229-.057-.143-.171-.257-.285a.64.64 0 0 0-.372-.172c0-.086-.544-.057-.544-.143-.286 0-.543-.142-.83-.142 0-.029-.228-.115-.257-.143-.086 0-.171 0-.286-.029-.029.057-.086.086-.143.057 0-.085-.458-.17-.543-.17l-.716-.087c-.143 0-.886.029-.886.172-.115 0-.115.057-.258.057 0 .028-.315.057-.372.057 0 .086-.457.086-.457.171-.143 0-.344.114-.458.257-.057.086-.2.229-.286.229-.058.114-.258.2-.258.314-.286.2-.314.628-.486.913-.172.258-.229.457-.2.743 0 .285-.029.514.057.8.029.114.057.256.057.37.029 0 .086.2.086.257.029 0 .114.2.172.258 0 .057.085.2.143.228 0 .057.2.314.257.343.057.057.2.17.2.257 0 .057.086.342 0 .342 0 .114-.057.143-.085.286-.115 0-.2.485-.2.57-.058 0-.087.515-.172.515 0 .371-.286.6-.344.97-.028.143-.085.258-.085.372-.03 0-.086.114-.086.143-.029 0-.086.142-.115.17 0 .115-.143.172-.2.286-.057 0-.143.029-.229.058 0 .057-.171.028-.229.028 0 .057-.257.057-.286.057 0 0-.229.143-.257.229-.057.142-.029.257-.172.342-.143.086-.2.114-.229.257a2.511 2.511 0 0 0-.057.486c-.029.142 0 .314 0 .485 0 .171-.057.343-.029.514.03.171.086.343.144.514.028.114.085.171.085.257.086.057.172.257.2.343.115.085.172.17.258.257.029 0 .115.2.172.2 0 .17.028.285 0 .456-.029 0-.057.886-.057 1-.03.342-.143.685-.143.97 0 .058-.086.714-.115.714l-.029.914c0 .029-.085.343 0 .343l.029.628c.029 0 .143.485.172.57.028 0 .086.172.086.23 0 0 .142.2.142.256.115.086.115.2.23.257 0 .086.142.172.2.229.229.2.372.485.686.542.229.057.744.029.744.114h.286c.229.029.343.029.543-.085 0-.086.144-.286.2-.314 0-.115.115-.115.115-.229.086-.028.057-.285.115-.285 0-.086.085-.172.085-.286.029 0-.028-.742-.028-.828-.086 0-.057-.628-.057-.714 0-.171-.058-.342-.058-.514 0-.142-.085-.257-.085-.4 0-.17.028-.37-.029-.542-.029-.143-.057-.285-.029-.428.029 0 .143-.6.143-.657.086 0 .258-.485.258-.542.086-.058.143-.229.257-.229.172-.028.2-.028.344.086.085.085.2.342.343.342.057.086.229.229.343.315.086.114.2.085.286.17a.426.426 0 0 0 .258.115c.086.2.4.229.515.428.085 0 .286.172.343.257.086.115.2.172.343.229.057.085.172.143.258.228.143.086.228.172.343.286.086.085.2.257.314.257.086.085.2.285.287.314.057.085.171.143.229.228.114.086.143.2.257.286.086.085.229.342.343.342 0 .115.2.2.258.314.143.115.257.229.372.372.114 0 .228.171.314.285.143 0 .2.257.343.257 0 .029.2.114.258.114.229.058.343.172.63.172.085 0 .629.028.629-.057.143 0 .486-.2.543-.372.086-.028.172-.085.229-.085.057-.114.2-.172.2-.286a.913.913 0 0 0 .086-.142c.029-.115.2-.2.2-.286.086-.057.286-.229.286-.314.058-.057.143-.057.143-.143.172-.114.23-.371.23-.571-.058-.485-.058-.914-.058-1.228Zm-5.607-10.05c-.028.17-.086.228-.086.37-.028 0-.143.229-.143.286-.057.029-.171.2-.171.286-.058.028-.143.2-.172.2-.057.142-.172.228-.286.342-.086.086-.229.371-.343.371-.029.057-.086.057-.086.086-.086 0-.143.114-.2.171-.058 0-.258.143-.286.2a.462.462 0 0 1-.2.114c-.144 0-.258.029-.43 0-.114-.028-.114-.17-.114-.256-.086 0 .057-.771.057-.857.029-.143.086-.229.086-.314.086 0 0-.457.086-.457 0-.143.057-.2.057-.343.057 0 .029-.4.029-.457.057-.228 0-.428 0-.656 0-.114.057-.628.114-.628 0-.115.172-.343.286-.457.257 0 .4.142.63.142 0 .029.4.2.486.229.085.143.257.2.343.314.114 0 .143.143.229.2 0 .028.086.228.086.228.057.172.085.257.085.457.029.029.058.428-.057.428Z" fill="#8DC63F"/></svg>