<svg width="2012" height="1695" viewBox="0 0 2012 1695" fill="none" xmlns="http://www.w3.org/2000/svg"><path d="M0 32C0 14.327 14.327 0 32 0h1948c17.67 0 32 14.327 32 32v1144H0V32Z" fill="#EFF0F2"/><path d="M0 32C0 14.327 14.327 0 32 0h1948c17.67 0 32 14.327 32 32v1314c0 17.67-14.33 32-32 32H32c-17.673 0-32-14.33-32-32V32Z" fill="url(#a)"/><path fill-rule="evenodd" clip-rule="evenodd" d="M1068.08 359s-28.46.133-48.93 27.112c-18.21 23.995-13.57 44.52-13.57 44.52s24.68 4.269 46.4-21.825c20.33-24.44 16.1-49.807 16.1-49.807Zm-43.57 84.479c-6.7 2.7-12.21 4.919-16.33 4.919-5.14 0-11.336-2.387-18.539-5.162-9.995-3.85-21.925-8.446-35.641-8.443-36.3 0-75 32.502-75 94.46 0 62.977 45.723 141.319 81.915 141.314 5.629 0 12.601-2.527 20.332-5.329 9.616-3.485 20.403-7.396 31.243-7.396 9.71 0 18.14 3.148 26.45 6.255 8.1 3.027 16.1 6.014 25.08 6.014 39.64 0 68.98-82.59 68.98-82.59s-41.98-16.251-41.98-63.407c0-41.802 33.7-59.03 33.7-59.03s-17.23-31.161-61.02-31.161c-15.48 0-28.78 5.359-39.19 9.556Z" fill="url(#b)"/><path d="M735 1683c0 6.63 5.373 12 12 12h508c6.63 0 12-5.37 12-12v-10H735v10Z" fill="#4B5563"/><path d="M735 1673h532v-8H735v8Z" fill="#374151"/><path fill-rule="evenodd" clip-rule="evenodd" d="M747 931c-6.627 0-12 5.373-12 12v722h532V943c0-6.627-5.37-12-12-12H747Zm254.5 111c-30.652 0-55.5 24.85-55.5 55.5v92c0 30.65 24.848 55.5 55.5 55.5 30.65 0 55.5-24.85 55.5-55.5v-92c0-30.65-24.85-55.5-55.5-55.5Z" fill="#4B5563"/><circle cx="1909" cy="1275" r="29" fill="#4B5563" stroke="#313A48" stroke-width="2"/><path d="M1909 1262v12m7.64-11c2.53 1.66 4.46 4.11 5.5 6.97 1.04 2.86 1.14 5.99.28 8.91-.86 2.92-2.63 5.49-5.05 7.31a13.897 13.897 0 0 1-8.37 2.81c-3.02 0-5.96-.99-8.37-2.81a14.143 14.143 0 0 1-5.05-7.31c-.86-2.92-.76-6.05.28-8.91 1.04-2.86 2.97-5.31 5.5-6.97" stroke="#6C7889" stroke-width="4" stroke-linecap="round" stroke-linejoin="round"/><defs><linearGradient id="a" x1="1006" y1="0" x2="1006" y2="1378" gradientUnits="userSpaceOnUse"><stop stop-color="#374151"/><stop offset=".494" stop-color="#374151"/><stop offset="1" stop-color="#2F3844"/></linearGradient><linearGradient id="b" x1="1006" y1="359" x2="1006" y2="670.567" gradientUnits="userSpaceOnUse"><stop stop-color="#4B5563"/><stop offset="1" stop-color="#4B5563"/></linearGradient></defs></svg>