<svg width="2012" height="1695" viewBox="0 0 2012 1695" fill="none" xmlns="http://www.w3.org/2000/svg"><g clip-path="url(#a)"><rect x="784" y="1673.54" width="443" height="21.462" rx="4" fill="#BFC0C2"/><path fill="#BFC0C2" d="M793.369 1370h424.263v303.538H793.369z"/><path fill="url(#b)" fill-opacity=".5" style="mix-blend-mode:overlay" d="M793.369 1370h424.263v303.538H793.369z"/><path d="M.5 32C.5 14.603 14.603.5 32 .5h1948c17.4 0 31.5 14.103 31.5 31.5v1143.5H.5V32Z" fill="#EDEEF0" stroke="url(#c)"/><path d="M0 1176h2012v170c0 17.67-14.33 32-32 32H32c-17.673 0-32-14.33-32-32v-170Z" fill="#D4D5D7"/><circle cx="1005.5" cy="22.5" r="7" fill="#EDEEF0" stroke="#6B7280"/><mask id="d" style="mask-type:alpha" maskUnits="userSpaceOnUse" x="1003" y="20" width="5" height="5"><circle cx="1005.5" cy="22.5" r="2" fill="#494C51" stroke="#6B7280"/></mask><g mask="url(#d)" stroke="#6B7280"><circle cx="1005.5" cy="22.5" r="2" fill="#2260C7"/><path fill="#617189" stroke-width=".5" d="M1003.25 20.25h.5v4.5h-.5zm4 0h.5v4.5h-.5z"/><circle cx="1005.5" cy="22.5" r="1" fill="#7B6A77"/><circle cx="1006" cy="22" r=".5" fill="#fff" fill-opacity=".2"/></g><g clip-path="url(#e)"><rect x="45" y="47" width="1922" height="1082" rx="9" fill="#C5C6C8" stroke="#C5C6C8" stroke-width="2"/></g></g><defs><linearGradient id="b" x1="1005.5" y1="1370" x2="1005.5" y2="1673.54" gradientUnits="userSpaceOnUse"><stop stop-color="#373737"/><stop offset=".411" stop-color="#9C9C9C" stop-opacity=".194"/><stop offset=".62" stop-color="#9C9C9C" stop-opacity=".194"/><stop offset="1" stop-color="#373737"/></linearGradient><linearGradient id="c" x1="1006" y1="0" x2="1006" y2="1176" gradientUnits="userSpaceOnUse"><stop stop-color="#fff"/><stop offset="1" stop-color="#fff" stop-opacity="0"/></linearGradient><clipPath id="a"><path fill="#fff" d="M0 0h2012v1695H0z"/></clipPath><clipPath id="e"><rect x="46" y="48" width="1920" height="1080" rx="8" fill="#fff"/></clipPath></defs></svg>