<svg width="6036" height="1695" viewBox="0 0 6036 1695" fill="none" xmlns="http://www.w3.org/2000/svg"><g clip-path="url(#a)"><rect x="784" y="1673.54" width="443" height="21.462" rx="4" fill="#BFC0C2"/><path fill="#BFC0C2" d="M793.368 1370h424.263v303.538H793.368z"/><path fill="url(#b)" fill-opacity=".5" style="mix-blend-mode:overlay" d="M793.368 1370h424.263v303.538H793.368z"/><path d="M.5 32C.5 14.603 14.603.5 32 .5h1948c17.4 0 31.5 14.103 31.5 31.5v1143.5H.5V32Z" fill="#EDEEF0" stroke="url(#c)"/><path d="M0 1176h2012v170c0 17.67-14.33 32-32 32H32c-17.673 0-32-14.33-32-32v-170Z" fill="#D4D5D7"/><circle cx="1005.5" cy="22.5" r="7" fill="#EDEEF0" stroke="#6B7280"/><mask id="d" style="mask-type:alpha" maskUnits="userSpaceOnUse" x="1003" y="20" width="5" height="5"><circle cx="1005.5" cy="22.5" r="2" fill="#494C51" stroke="#6B7280"/></mask><g mask="url(#d)" stroke="#6B7280"><circle cx="1005.5" cy="22.5" r="2" fill="#2260C7"/><path fill="#617189" stroke-width=".5" d="M1003.25 20.25h.5v4.5h-.5zm4 0h.5v4.5h-.5z"/><circle cx="1005.5" cy="22.5" r="1" fill="#7B6A77"/><circle cx="1006" cy="22" r=".5" fill="#fff" fill-opacity=".2"/></g><g clip-path="url(#e)"><rect x="45" y="47" width="1922" height="1082" rx="9" fill="#C5C6C8" stroke="#C5C6C8" stroke-width="2"/></g></g><path fill="#BBBCBE" d="m2982.13 22.66 69.337-9.61 191.885 1346.397-69.337 9.61z"/><path transform="matrix(.1411 .99 -.99053 .13728 2982.83 22.544)" stroke="#D4D5D7" stroke-width="3" d="M0-1.5h1362"/><path fill="#BBBCBE" d="m3078.08 1049.17 49.527-6.864 5.643 39.6-49.526 6.864z"/><path transform="matrix(.99053 -.13728 .1411 .99 3078.08 1049.17)" fill="url(#f)" d="M0 0h50v40H0z"/><path d="M3026.64 1087.82c15.75 3.25 31.53-5.32 35.24-19.17 3.71-13.84-6.06-27.7-21.81-30.96-15.75-3.26-31.52 5.32-35.23 19.16-.03.12-.06.24-.09.35 0 .01-.01.01-.02.01 0 0-.01 0-.01.01l-156.31 583.33c-3.95 14.76-18.95 25.2-36.21 25.2H2756c-4.42 0-8 3.58-8 8v5.25c0 4.42 3.58 8 8 8h570c4.42 0 8-3.58 8-8v-5.25c0-4.42-3.58-8-8-8h-433.43c-13.8 0-23.99-11.31-20.83-23.11l147.58-550.76c.83-3.09 4.19-4.71 7.32-4.06Z" fill="#BBBCBE"/><circle opacity=".6" cx="3046.13" cy="1074.13" r="50" transform="rotate(13.25 3046.13 1074.13)" fill="#BBBCBE"/><circle cx="3046.13" cy="1074.13" r="48" transform="rotate(13.25 3046.13 1074.13)" fill="#D2D3D5"/><circle cx="3046.13" cy="1074.13" r="47.5" transform="rotate(13.25 3046.13 1074.13)" stroke="url(#g)" stroke-opacity=".4"/><circle cx="3046.13" cy="1074.13" r="47.5" transform="rotate(13.25 3046.13 1074.13)" stroke="url(#h)" stroke-opacity=".4"/><path d="M2750 1684h582c0 1.66-1.34 3-3 3h-576c-1.66 0-3-1.34-3-3Z" fill="#D4D5D7"/><path d="M4024.5 32c0-17.397 14.1-31.5 31.5-31.5h1948c17.4 0 31.5 14.103 31.5 31.5v1143.5h-2011V32Z" fill="#EFF0F2" stroke="url(#i)"/><path d="M4024 32c0-17.673 14.33-32 32-32h1948c17.67 0 32 14.327 32 32v1314c0 17.67-14.33 32-32 32H4056c-17.67 0-32-14.33-32-32V32Z" fill="url(#j)"/><path fill-rule="evenodd" clip-rule="evenodd" d="M5092.08 359s-28.46.133-48.93 27.112c-18.21 23.995-13.57 44.52-13.57 44.52s24.68 4.269 46.4-21.825c20.33-24.44 16.1-49.807 16.1-49.807Zm-43.57 84.479c-6.7 2.7-12.21 4.919-16.33 4.919-5.14 0-11.34-2.387-18.54-5.162-9.99-3.85-21.92-8.446-35.64-8.443-36.3 0-75 32.502-75 94.46 0 62.977 45.72 141.319 81.91 141.314 5.63 0 12.61-2.527 20.34-5.329 9.61-3.485 20.4-7.396 31.24-7.396 9.71 0 18.14 3.148 26.45 6.255 8.1 3.027 16.1 6.014 25.08 6.014 39.64 0 68.98-82.59 68.98-82.59s-41.98-16.251-41.98-63.407c0-41.802 33.7-59.03 33.7-59.03s-17.23-31.161-61.02-31.161c-15.48 0-28.78 5.359-39.19 9.556Z" fill="url(#k)"/><path d="M4759 1683c0 6.63 5.37 12 12 12h508c6.63 0 12-5.37 12-12v-10h-532v10Z" fill="#D2D3D5"/><path d="M4759 1673h532v-8h-532v8Z" fill="#BFC0C2"/><path fill-rule="evenodd" clip-rule="evenodd" d="M4771 931c-6.63 0-12 5.373-12 12v722h532V943c0-6.627-5.37-12-12-12h-508Zm254.5 111c-30.65 0-55.5 24.85-55.5 55.5v92c0 30.65 24.85 55.5 55.5 55.5s55.5-24.85 55.5-55.5v-92c0-30.65-24.85-55.5-55.5-55.5Z" fill="#D2D3D5"/><circle cx="5933" cy="1275" r="28" fill="url(#l)"/><circle cx="5933" cy="1275" r="29" stroke="#000" stroke-opacity=".2" stroke-width="2"/><path d="M5933 1262v12m7.64-11c2.53 1.66 4.46 4.11 5.5 6.97 1.04 2.86 1.14 5.99.28 8.91-.86 2.92-2.63 5.49-5.05 7.31a13.897 13.897 0 0 1-8.37 2.81c-3.02 0-5.96-.99-8.37-2.81a14.143 14.143 0 0 1-5.05-7.31c-.86-2.92-.76-6.05.28-8.91 1.04-2.86 2.97-5.31 5.5-6.97" stroke="#fff" stroke-opacity=".5" stroke-width="4" stroke-linecap="round" stroke-linejoin="round"/><defs><linearGradient id="b" x1="1005.5" y1="1370" x2="1005.5" y2="1673.54" gradientUnits="userSpaceOnUse"><stop stop-color="#373737"/><stop offset=".411" stop-color="#9C9C9C" stop-opacity=".194"/><stop offset=".62" stop-color="#9C9C9C" stop-opacity=".194"/><stop offset="1" stop-color="#373737"/></linearGradient><linearGradient id="c" x1="1006" y1="0" x2="1006" y2="1176" gradientUnits="userSpaceOnUse"><stop stop-color="#fff"/><stop offset="1" stop-color="#fff" stop-opacity="0"/></linearGradient><linearGradient id="f" x1="25" y1="0" x2="25" y2="40" gradientUnits="userSpaceOnUse"><stop stop-color="#BBBCBE"/><stop offset=".255" stop-color="#fff" stop-opacity=".49"/><stop offset=".526" stop-color="#fff" stop-opacity=".56"/><stop offset="1" stop-color="#D2D3D5"/></linearGradient><linearGradient id="g" x1="3008.63" y1="1038.63" x2="3084.63" y2="1110.13" gradientUnits="userSpaceOnUse"><stop stop-color="#BBBCBE"/><stop offset="1" stop-color="#BBBCBE"/></linearGradient><linearGradient id="h" x1="3090.13" y1="1109.13" x2="3015.13" y2="1039.63" gradientUnits="userSpaceOnUse"><stop stop-color="#fff" stop-opacity="0"/><stop offset="1" stop-color="#fff"/></linearGradient><linearGradient id="i" x1="5030" y1="0" x2="5030" y2="1176" gradientUnits="userSpaceOnUse"><stop stop-color="#fff"/><stop offset="1" stop-color="#fff" stop-opacity="0"/></linearGradient><linearGradient id="j" x1="5030" y1="0" x2="5030" y2="1378" gradientUnits="userSpaceOnUse"><stop stop-color="#D4D5D7"/><stop offset=".494" stop-color="#C9CACC"/><stop offset="1" stop-color="#A2A3A5"/></linearGradient><linearGradient id="k" x1="5030" y1="359" x2="5030" y2="670.567" gradientUnits="userSpaceOnUse"><stop stop-color="#F5F5F5"/><stop offset="1" stop-color="#C8C9CB"/></linearGradient><linearGradient id="l" x1="5933" y1="1247" x2="5933" y2="1303" gradientUnits="userSpaceOnUse"><stop stop-color="#9C9C9C"/><stop offset="1" stop-color="#C4C4C4"/></linearGradient><clipPath id="a"><path fill="#fff" d="M0 0h2012v1695H0z"/></clipPath><clipPath id="e"><rect x="46" y="48" width="1920" height="1080" rx="8" fill="#fff"/></clipPath></defs></svg>