<svg width="6084" height="1733" viewBox="0 0 6084 1733" fill="none" xmlns="http://www.w3.org/2000/svg"><path fill="#111928" d="M0 0h6084v1733H0z"/><g clip-path="url(#a)"><rect x="808" y="1692.54" width="443" height="21.462" rx="4" fill="#374151"/><path fill="#374151" d="M817.368 1389h424.263v303.538H817.368z"/><path fill="url(#b)" fill-opacity=".5" style="mix-blend-mode:overlay" d="M817.368 1389h424.263v303.538H817.368z"/><path d="M24 51c0-17.673 14.327-32 32-32h1948c17.67 0 32 14.327 32 32v1144H24V51Z" fill="#4B5563"/><path d="M24 1195h2012v170c0 17.67-14.33 32-32 32H56c-17.673 0-32-14.33-32-32v-170Z" fill="#374151"/><circle cx="1029.5" cy="41.5" r="7" fill="#6B7280" stroke="#9CA3AF"/><mask id="c" style="mask-type:alpha" maskUnits="userSpaceOnUse" x="1027" y="39" width="5" height="5"><circle cx="1029.5" cy="41.5" r="2" fill="#494C51" stroke="#6B7280"/></mask><g mask="url(#c)" stroke="#9CA3AF"><circle cx="1029.5" cy="41.5" r="2" fill="#2260C7"/><path fill="#617189" stroke-width=".5" d="M1027.25 39.25h.5v4.5h-.5zm4 0h.5v4.5h-.5z"/><circle cx="1029.5" cy="41.5" r="1" fill="#7B6A77"/><circle cx="1030" cy="41" r=".5" fill="#fff" fill-opacity=".2"/></g><g clip-path="url(#d)"><rect x="69" y="66" width="1922" height="1082" rx="9" fill="#6B7280" stroke="#6B7280" stroke-width="2"/></g></g><path fill="#4B5563" d="m3006.13 41.66 69.337-9.61 191.885 1346.397-69.337 9.61z"/><path transform="matrix(.1411 .99 -.99053 .13728 3006.83 41.543)" stroke="#313A47" stroke-width="3" d="M0-1.5h1362"/><path fill="#4B5563" d="m3102.08 1068.17 49.527-6.864 5.643 39.6-49.526 6.864z"/><path transform="matrix(.99053 -.13728 .1411 .99 3102.08 1068.17)" fill="url(#e)" d="M0 0h50v40H0z"/><path d="M3050.64 1106.82c15.75 3.25 31.53-5.32 35.24-19.17 3.71-13.84-6.06-27.7-21.81-30.96-15.75-3.26-31.52 5.32-35.23 19.16-.03.12-.06.24-.09.35 0 .01-.01.01-.02.01 0 0-.01 0-.01.01l-156.31 583.33c-3.95 14.76-18.95 25.2-36.21 25.2H2780c-4.42 0-8 3.58-8 8v5.25c0 4.42 3.58 8 8 8h570c4.42 0 8-3.58 8-8v-5.25c0-4.42-3.58-8-8-8h-433.43c-13.8 0-23.99-11.31-20.83-23.11l147.58-550.76c.83-3.09 4.19-4.71 7.32-4.06Z" fill="#4B5563"/><circle opacity=".6" cx="3070.13" cy="1093.13" r="50" transform="rotate(13.25 3070.13 1093.13)" fill="#4B5563"/><circle cx="3070.13" cy="1093.13" r="48" transform="rotate(13.25 3070.13 1093.13)" fill="#4B5563"/><circle cx="3070.13" cy="1093.13" r="47.5" transform="rotate(13.25 3070.13 1093.13)" stroke="url(#f)" stroke-opacity=".4"/><path d="M2774 1703h582c0 1.66-1.34 3-3 3h-576c-1.66 0-3-1.34-3-3Z" fill="#313A47"/><path d="M4048 51c0-17.673 14.33-32 32-32h1948c17.67 0 32 14.327 32 32v1144H4048V51Z" fill="#374252"/><path d="M4048 51c0-17.673 14.33-32 32-32h1948c17.67 0 32 14.327 32 32v1314c0 17.67-14.33 32-32 32H4080c-17.67 0-32-14.33-32-32V51Z" fill="url(#g)"/><path fill-rule="evenodd" clip-rule="evenodd" d="M5116.08 378s-28.46.133-48.93 27.112c-18.21 23.995-13.57 44.52-13.57 44.52s24.68 4.269 46.4-21.825c20.33-24.44 16.1-49.807 16.1-49.807Zm-43.57 84.479c-6.7 2.7-12.21 4.919-16.33 4.919-5.14 0-11.34-2.387-18.54-5.162-9.99-3.85-21.92-8.446-35.64-8.443-36.3 0-75 32.502-75 94.46 0 62.977 45.72 141.319 81.91 141.314 5.63 0 12.61-2.527 20.34-5.329 9.61-3.485 20.4-7.396 31.24-7.396 9.71 0 18.14 3.148 26.45 6.255 8.1 3.027 16.1 6.014 25.08 6.014 39.64 0 68.98-82.59 68.98-82.59s-41.98-16.251-41.98-63.407c0-41.802 33.7-59.03 33.7-59.03s-17.23-31.161-61.02-31.161c-15.48 0-28.78 5.359-39.19 9.556Z" fill="url(#h)"/><path d="M4783 1702c0 6.63 5.37 12 12 12h508c6.63 0 12-5.37 12-12v-10h-532v10Z" fill="#4B5563"/><path d="M4783 1692h532v-8h-532v8Z" fill="#374151"/><path fill-rule="evenodd" clip-rule="evenodd" d="M4795 950c-6.63 0-12 5.373-12 12v722h532V962c0-6.627-5.37-12-12-12h-508Zm254.5 111c-30.65 0-55.5 24.85-55.5 55.5v92c0 30.65 24.85 55.5 55.5 55.5s55.5-24.85 55.5-55.5v-92c0-30.65-24.85-55.5-55.5-55.5Z" fill="#4B5563"/><circle cx="5957" cy="1294" r="29" fill="#4B5563" stroke="#313A48" stroke-width="2"/><path d="M5957 1281v12m7.64-11c2.53 1.66 4.46 4.11 5.5 6.97 1.04 2.86 1.14 5.99.28 8.91-.86 2.92-2.63 5.49-5.05 7.31a13.897 13.897 0 0 1-8.37 2.81c-3.02 0-5.96-.99-8.37-2.81a14.143 14.143 0 0 1-5.05-7.31c-.86-2.92-.76-6.05.28-8.91 1.04-2.86 2.97-5.31 5.5-6.97" stroke="#6C7889" stroke-width="4" stroke-linecap="round" stroke-linejoin="round"/><defs><linearGradient id="b" x1="1029.5" y1="1389" x2="1029.5" y2="1692.54" gradientUnits="userSpaceOnUse"><stop stop-color="#373737"/><stop offset=".411" stop-color="#9C9C9C" stop-opacity=".194"/><stop offset=".62" stop-color="#9C9C9C" stop-opacity=".194"/><stop offset="1" stop-color="#373737"/></linearGradient><linearGradient id="e" x1="25" y1="0" x2="25" y2="40" gradientUnits="userSpaceOnUse"><stop stop-color="#313A47"/><stop offset=".255" stop-color="#313A47"/><stop offset=".526" stop-color="#4B5563"/><stop offset="1" stop-color="#4B5563"/></linearGradient><linearGradient id="f" x1="3032.63" y1="1057.63" x2="3108.63" y2="1129.13" gradientUnits="userSpaceOnUse"><stop stop-color="#4B5563"/><stop offset="1" stop-color="#4B5563"/></linearGradient><linearGradient id="g" x1="5054" y1="19" x2="5054" y2="1397" gradientUnits="userSpaceOnUse"><stop stop-color="#374151"/><stop offset=".494" stop-color="#374151"/><stop offset="1" stop-color="#2F3844"/></linearGradient><linearGradient id="h" x1="5054" y1="378" x2="5054" y2="689.567" gradientUnits="userSpaceOnUse"><stop stop-color="#4B5563"/><stop offset="1" stop-color="#4B5563"/></linearGradient><clipPath id="a"><path fill="#fff" transform="translate(24 19)" d="M0 0h2012v1695H0z"/></clipPath><clipPath id="d"><rect x="70" y="67" width="1920" height="1080" rx="8" fill="#fff"/></clipPath></defs></svg>