<svg width="2012" height="1695" viewBox="0 0 2012 1695" fill="none" xmlns="http://www.w3.org/2000/svg"><g clip-path="url(#a)"><rect x="784" y="1673.54" width="443" height="21.462" rx="4" fill="#374151"/><path fill="#374151" d="M793.369 1370h424.263v303.538H793.369z"/><path fill="url(#b)" fill-opacity=".5" style="mix-blend-mode:overlay" d="M793.369 1370h424.263v303.538H793.369z"/><path d="M0 32C0 14.327 14.327 0 32 0h1948c17.67 0 32 14.327 32 32v1144H0V32Z" fill="#4B5563"/><path d="M0 1176h2012v170c0 17.67-14.33 32-32 32H32c-17.673 0-32-14.33-32-32v-170Z" fill="#374151"/><circle cx="1005.5" cy="22.5" r="7" fill="#6B7280" stroke="#9CA3AF"/><mask id="c" style="mask-type:alpha" maskUnits="userSpaceOnUse" x="1003" y="20" width="5" height="5"><circle cx="1005.5" cy="22.5" r="2" fill="#494C51" stroke="#6B7280"/></mask><g mask="url(#c)" stroke="#9CA3AF"><circle cx="1005.5" cy="22.5" r="2" fill="#2260C7"/><path fill="#617189" stroke-width=".5" d="M1003.25 20.25h.5v4.5h-.5zm4 0h.5v4.5h-.5z"/><circle cx="1005.5" cy="22.5" r="1" fill="#7B6A77"/><circle cx="1006" cy="22" r=".5" fill="#fff" fill-opacity=".2"/></g><g clip-path="url(#d)"><rect x="45" y="47" width="1922" height="1082" rx="9" fill="#6B7280" stroke="#6B7280" stroke-width="2"/></g></g><defs><clipPath id="a"><path fill="#fff" d="M0 0h2012v1695H0z"/></clipPath><clipPath id="d"><rect x="46" y="48" width="1920" height="1080" rx="8" fill="#fff"/></clipPath><linearGradient id="b" x1="1005.5" y1="1370" x2="1005.5" y2="1673.54" gradientUnits="userSpaceOnUse"><stop stop-color="#373737"/><stop offset=".411" stop-color="#9C9C9C" stop-opacity=".194"/><stop offset=".62" stop-color="#9C9C9C" stop-opacity=".194"/><stop offset="1" stop-color="#373737"/></linearGradient></defs></svg>