<svg width="2012" height="1695" viewBox="0 0 2012 1695" fill="none" xmlns="http://www.w3.org/2000/svg"><path fill="#4B5563" d="m970.127 22.66 69.337-9.61 191.885 1346.397-69.337 9.61z"/><path transform="matrix(.1411 .99 -.99053 .13728 970.835 22.543)" stroke="#313A47" stroke-width="3" d="M0-1.5h1362"/><path fill="#4B5563" d="m1066.08 1049.17 49.527-6.864 5.643 39.6-49.526 6.864z"/><path transform="matrix(.99053 -.13728 .1411 .99 1066.08 1049.17)" fill="url(#a)" d="M0 0h50v40H0z"/><path d="M1014.64 1087.82c15.75 3.25 31.53-5.32 35.24-19.17 3.71-13.84-6.06-27.7-21.81-30.96-15.75-3.26-31.523 5.32-35.232 19.16l-.091.35c-.002.01-.007.01-.013.01-.006 0-.011 0-.013.01l-156.307 583.33c-3.957 14.76-18.953 25.2-36.216 25.2H744a8 8 0 0 0-8 8v5.25a8 8 0 0 0 8 8h570c4.42 0 8-3.58 8-8v-5.25c0-4.42-3.58-8-8-8H880.567c-13.797 0-23.986-11.31-20.824-23.11l147.577-550.76c.83-3.09 4.19-4.71 7.32-4.06Z" fill="#4B5563"/><circle opacity=".6" cx="1034.13" cy="1074.13" r="50" transform="rotate(13.25 1034.13 1074.13)" fill="#4B5563"/><circle cx="1034.13" cy="1074.13" r="48" transform="rotate(13.25 1034.13 1074.13)" fill="#4B5563"/><circle cx="1034.13" cy="1074.13" r="47.5" transform="rotate(13.25 1034.13 1074.13)" stroke="url(#b)" stroke-opacity=".4"/><path d="M738 1684h582c0 1.66-1.34 3-3 3H741c-1.657 0-3-1.34-3-3Z" fill="#313A47"/><defs><linearGradient id="a" x1="25" y1="0" x2="25" y2="40" gradientUnits="userSpaceOnUse"><stop stop-color="#313A47"/><stop offset=".255" stop-color="#313A47"/><stop offset=".526" stop-color="#4B5563"/><stop offset="1" stop-color="#4B5563"/></linearGradient><linearGradient id="b" x1="996.629" y1="1038.63" x2="1072.63" y2="1110.13" gradientUnits="userSpaceOnUse"><stop stop-color="#4B5563"/><stop offset="1" stop-color="#4B5563"/></linearGradient></defs></svg>