<svg width="777" height="1012" viewBox="0 0 777 1012" fill="none" xmlns="http://www.w3.org/2000/svg"><rect x="14" y="10" width="748" height="992" rx="54" fill="#fff"/><rect x="14" y="10" width="748" height="992" rx="54" stroke="#EDEEF0" stroke-width="20"/><path d="M1 121.396c0-.771.625-1.396 1.396-1.396H4.78v36.77H2.396A1.397 1.397 0 0 1 1 155.373v-33.977Zm-1 61.77c0-.771.625-1.396 1.396-1.396h3.311v68.419h-3.31A1.396 1.396 0 0 1 0 248.792v-65.626Zm0 93.42c0-.771.625-1.397 1.396-1.397h3.311v68.42h-3.31A1.396 1.396 0 0 1 0 342.212v-65.626Zm776.707-155.19c0-.771-.625-1.396-1.396-1.396H772v109.378h3.311c.771 0 1.396-.625 1.396-1.397V121.396ZM21.099 66.598C21.044 40.05 42.55 18.5 69.099 18.5H707.4c26.549 0 48.055 21.55 48 48.098l-1.803 879.5c-.054 26.472-21.528 47.902-48 47.902H70.902c-26.472 0-47.946-21.43-48-47.902l-1.803-879.5Z" fill="#C5C6C8"/><path d="M272 18h231.232v11.17c0 12.853-10.42 23.272-23.272 23.272H295.272C282.419 52.442 272 42.023 272 29.171V18Z" fill="#EDEEF0"/></svg>