<svg width="777" height="1012" viewBox="0 0 777 1012" fill="none" xmlns="http://www.w3.org/2000/svg"><rect x="14" y="10" width="748" height="992" rx="54" stroke="#374151" stroke-width="20"/><path d="M1 121.396c0-.771.625-1.396 1.396-1.396H4.78v36.77H2.396A1.397 1.397 0 0 1 1 155.373v-33.977Zm-1 61.77c0-.771.625-1.396 1.396-1.396h3.311v68.419h-3.31A1.396 1.396 0 0 1 0 248.792v-65.626Zm0 93.42c0-.771.625-1.397 1.396-1.397h3.311v68.42h-3.31A1.396 1.396 0 0 1 0 342.212v-65.626Zm776.707-155.19c0-.771-.625-1.396-1.396-1.396H772v109.378h3.311c.771 0 1.396-.625 1.396-1.397V121.396Z" fill="#374151"/><rect x="24" y="20" width="728" height="972" rx="43" fill="#6B7280"/><path d="M272 19h231.232v11.17c0 12.853-10.42 23.272-23.272 23.272H295.272C282.419 53.442 272 43.023 272 30.171V19Z" fill="#374151"/></svg>