<svg width="45" height="48" viewBox="0 0 45 48" fill="none" xmlns="http://www.w3.org/2000/svg"><path d="M25.557 17.136a6.072 6.072 0 0 0 3.177-4.867.152.152 0 0 0-.153-.154h-2.736c-.087 0-.144.067-.154.154a3.106 3.106 0 0 1-3.081 2.63 3.113 3.113 0 0 1-3.082-2.63c-.01-.087-.067-.154-.154-.154h-2.716a.152.152 0 0 0-.154.154c.154 2.102 1.402 3.907 3.178 4.867a6.065 6.065 0 0 0-3.188 5.174c0 .087.068.154.154.154h2.717a.152.152 0 0 0 .153-.154 3.101 3.101 0 0 1 3.11-2.928c1.671 0 3.034 1.296 3.111 2.928 0 .087.067.154.154.154h2.717a.152.152 0 0 0 .153-.154 6.09 6.09 0 0 0-3.206-5.174Zm-8.9-5.635h2.737c.086 0 .144-.067.153-.154a3.106 3.106 0 0 1 3.082-2.63 3.106 3.106 0 0 1 3.081 2.63c.01.087.077.154.164.154H28.6a.152.152 0 0 0 .154-.154c-.23-3.139-2.88-5.616-6.116-5.616-3.235 0-5.875 2.477-6.115 5.616-.019.087.048.154.135.154Zm20.938 3.331c0 8.189-6.7 14.832-14.976 14.832-8.265 0-14.976-6.643-14.976-14.832S14.344 0 22.62 0c8.275 0 14.976 6.634 14.976 14.832ZM6.29 39.59c0-.892-.922-1.2-1.47-1.2-.537 0-1.468.308-1.468 1.2v4.858c0 .893.922 1.19 1.469 1.19.537 0 1.469-.297 1.469-1.19V39.59Zm2.37-.182v5.222c0 1.546-1.218 3.36-3.83 3.37C2.21 47.99 1 46.176 1 44.63v-5.222c0-1.546 1.22-3.36 3.83-3.37 2.612.01 3.83 1.824 3.83 3.37Zm12.73 8.381v-4.55h3.63v-2.333h-3.61v-2.314h4.195V36.25h-6.576v11.539h2.361Zm7.402-4.311h1.91l-.94-3.628-.97 3.628Zm2.496 2.266h-3.082l-.547 2.045h-2.371l3.043-11.53h2.765l3.091 11.53h-2.361l-.538-2.045ZM41.79 36.25l-2.083 4.435-2.112-4.435h-2.419v11.539h2.314v-6.567l1.478 3.072h1.478l1.488-3.062v6.557h2.314v-11.54H41.79Zm-26.966 5.76 3.014-5.76h-2.736l-1.65 3.36-1.652-3.36H9.064l3.014 5.76-3.033 5.779h2.774l1.632-3.35 1.632 3.35h2.765l-3.024-5.78Z" fill="#75C044"/></svg>