<svg width="96" height="32" viewBox="0 0 96 32" fill="none" xmlns="http://www.w3.org/2000/svg"><g clip-path="url(#a)"><path d="M35.475 8.515h-5.25a.73.73 0 0 0-.72.615L27.38 22.593a.437.437 0 0 0 .433.505h2.506a.73.73 0 0 0 .721-.616l.573-3.631a.729.729 0 0 1 .72-.617h1.662c3.458 0 5.454-1.673 5.975-4.99.235-1.45.01-2.59-.67-3.39-.745-.876-2.069-1.34-3.826-1.34Zm.606 4.916c-.287 1.884-1.727 1.884-3.119 1.884h-.792l.556-3.518a.437.437 0 0 1 .432-.37h.363c.948 0 1.843 0 2.305.541.276.323.36.802.255 1.463Zm15.088-.061h-2.514a.44.44 0 0 0-.433.37l-.11.703-.177-.255c-.544-.79-1.758-1.054-2.969-1.054-2.778 0-5.151 2.105-5.613 5.056-.24 1.473.101 2.88.936 3.862.766.903 1.863 1.28 3.167 1.28 2.238 0 3.48-1.44 3.48-1.44l-.112.699a.437.437 0 0 0 .431.506h2.265a.73.73 0 0 0 .72-.616l1.36-8.605a.436.436 0 0 0-.431-.505Zm-3.505 4.894c-.242 1.436-1.382 2.4-2.836 2.4-.73 0-1.314-.234-1.688-.677-.372-.44-.513-1.068-.395-1.767.227-1.424 1.386-2.42 2.817-2.42.714 0 1.295.238 1.677.685.383.453.535 1.084.425 1.78Zm16.895-4.894h-2.527a.732.732 0 0 0-.604.321l-3.484 5.133-1.477-4.933a.732.732 0 0 0-.7-.52h-2.483a.438.438 0 0 0-.416.579l2.783 8.166-2.616 3.694a.437.437 0 0 0 .357.69h2.523c.24 0 .464-.116.6-.313l8.403-12.13a.437.437 0 0 0-.36-.686Zm8.364-4.855h-5.25a.73.73 0 0 0-.72.615l-2.124 13.463a.437.437 0 0 0 .431.505h2.695a.51.51 0 0 0 .503-.431l.603-3.816a.729.729 0 0 1 .72-.617h1.661c3.46 0 5.455-1.673 5.977-4.99.235-1.45.009-2.59-.67-3.39-.746-.876-2.069-1.34-3.826-1.34Zm.606 4.916c-.286 1.884-1.726 1.884-3.118 1.884h-.792l.557-3.518a.436.436 0 0 1 .431-.37h.363c.948 0 1.843 0 2.305.541.275.323.359.802.254 1.463Zm15.087-.061h-2.513a.437.437 0 0 0-.431.37l-.111.703-.177-.255c-.544-.79-1.757-1.054-2.969-1.054-2.778 0-5.15 2.105-5.612 5.056-.24 1.473.1 2.88.936 3.862.767.903 1.862 1.28 3.166 1.28 2.239 0 3.48-1.44 3.48-1.44l-.112.699a.438.438 0 0 0 .433.506h2.264a.73.73 0 0 0 .72-.616l1.36-8.605a.438.438 0 0 0-.434-.505Zm-3.504 4.894c-.241 1.436-1.383 2.4-2.837 2.4-.729 0-1.314-.234-1.688-.677-.372-.44-.511-1.068-.395-1.767.228-1.424 1.386-2.42 2.818-2.42.714 0 1.294.238 1.676.685.385.453.537 1.084.426 1.78Zm6.468-9.38-2.155 13.709a.437.437 0 0 0 .431.505h2.167c.36 0 .666-.26.72-.616L94.87 9.02a.437.437 0 0 0-.432-.506h-2.426a.438.438 0 0 0-.431.37ZM5.578 25.714l.401-2.55-.894-.02H.815l2.966-18.82a.242.242 0 0 1 .241-.206h7.201c2.39 0 4.04.498 4.902 1.48.404.46.66.942.785 1.472.13.555.133 1.22.005 2.03l-.009.058v.52l.404.228c.34.18.61.387.818.623.345.394.569.895.663 1.488.097.61.065 1.337-.095 2.159-.184.946-.482 1.77-.884 2.444a5.026 5.026 0 0 1-1.4 1.535c-.535.38-1.17.667-1.888.851-.695.181-1.488.273-2.358.273h-.56a1.7 1.7 0 0 0-1.096.403 1.697 1.697 0 0 0-.571 1.02l-.042.229-.71 4.495-.032.165c-.008.052-.023.078-.045.096a.119.119 0 0 1-.073.026h-3.46Z" fill="#253B80"/><path d="M17.693 9.22c-.021.137-.046.277-.073.421-.95 4.876-4.199 6.56-8.348 6.56H7.159c-.507 0-.935.369-1.014.87l-1.081 6.86-.307 1.944a.54.54 0 0 0 .534.625h3.747c.444 0 .82-.323.89-.76l.037-.19.706-4.478.045-.245a.901.901 0 0 1 .89-.762h.56c3.631 0 6.473-1.474 7.304-5.74.347-1.781.167-3.269-.751-4.315a3.582 3.582 0 0 0-1.026-.79Z" fill="#179BD7"/><path d="M16.7 8.823a7.48 7.48 0 0 0-.923-.205 11.735 11.735 0 0 0-1.863-.136H8.27a.896.896 0 0 0-.89.762l-1.2 7.605-.035.221c.08-.5.507-.869 1.014-.869h2.113c4.15 0 7.398-1.685 8.348-6.56.028-.144.052-.284.073-.422a5.063 5.063 0 0 0-.993-.396Z" fill="#222D65"/><path d="M7.38 9.244a.897.897 0 0 1 .89-.76h5.644c.669 0 1.293.043 1.863.135a7.496 7.496 0 0 1 1.137.271c.28.093.54.203.78.33.283-1.802-.002-3.03-.976-4.14-1.074-1.223-3.013-1.747-5.493-1.747h-7.2a1.03 1.03 0 0 0-1.018.87l-3 19.012a.619.619 0 0 0 .611.715h4.446l1.116-7.08 1.2-7.605Z" fill="#253B80"/></g><defs><clipPath id="a"><path fill="#fff" d="M0 0h95.333v32H0z"/></clipPath></defs></svg>