<svg width="14" height="14" viewBox="0 0 14 14" fill="none" xmlns="http://www.w3.org/2000/svg">
<path d="M10.5573 1.79539C9.99214 1.15119 8.97047 0.875 7.66344 0.875H3.87009C3.74077 0.875005 3.6157 0.921141 3.51735 1.00511C3.41901 1.08909 3.35385 1.20539 3.33358 1.33311L1.7541 11.3506C1.7227 11.5481 1.87566 11.727 2.07588 11.727H4.41776L5.00591 7.99645L4.98765 8.11327C5.02955 7.84958 5.25508 7.65508 5.52214 7.65508H6.63499C8.8212 7.65508 10.533 6.7671 11.0331 4.19836C11.0479 4.12238 11.0608 4.04844 11.0719 3.9762C11.0088 3.94278 11.0088 3.94278 11.0719 3.9762C11.2208 3.02677 11.0709 2.3805 10.5573 1.79539Z" fill="white"/>
<path d="M5.902 3.63418C5.96602 3.6037 6.03605 3.5879 6.10696 3.58794H9.08088C9.43303 3.58794 9.7615 3.61086 10.0617 3.65917C10.1457 3.67256 10.2292 3.68855 10.3122 3.70711C10.4299 3.73307 10.5461 3.76484 10.6606 3.80231C10.8082 3.85159 10.9456 3.90899 11.0719 3.9762C11.2208 3.0264 11.0709 2.3805 10.5573 1.79539C9.99181 1.15119 8.97047 0.875 7.66344 0.875H3.86977C3.60267 0.875 3.37544 1.06945 3.33358 1.33311L1.7541 11.3502C1.7227 11.5481 1.87566 11.7267 2.07555 11.7267H4.41776L5.63798 3.98869C5.64998 3.91263 5.68028 3.84063 5.72627 3.77888C5.77226 3.71712 5.83257 3.66747 5.902 3.63418Z" fill="#27346A"/>
<path d="M11.0331 4.19836C10.533 6.76674 8.82124 7.65508 6.63499 7.65508H5.52181C5.25475 7.65508 5.02919 7.84958 4.98769 8.11327L4.256 12.7517C4.22866 12.9246 4.36235 13.0812 4.53725 13.0812H6.5114C6.62449 13.0812 6.73385 13.0408 6.81983 12.9674C6.9058 12.8939 6.96275 12.7922 6.98042 12.6805L6.99964 12.5799L7.37172 10.2218L7.39569 10.0915C7.41336 9.97978 7.4703 9.87806 7.55627 9.8046C7.64223 9.73114 7.75159 9.69076 7.86467 9.69072H8.16012C10.0725 9.69072 11.5699 8.9138 12.0075 6.66683C12.1901 5.72782 12.0956 4.94384 11.6125 4.39318C11.4659 4.22639 11.284 4.08864 11.0719 3.9762C11.0605 4.04881 11.048 4.12238 11.0331 4.19836Z" fill="#2790C3"/>
<path d="M10.5486 3.76755C10.4706 3.74478 10.3919 3.72463 10.3126 3.70711C10.2295 3.68885 10.146 3.67297 10.062 3.65949C9.76154 3.61086 9.43336 3.58794 9.08088 3.58794L6.10728 3.5879C6.03632 3.58774 5.96624 3.60367 5.90232 3.63451C5.83281 3.66769 5.77228 3.7171 5.72627 3.77888C5.68026 3.84065 5.65015 3.91292 5.63827 3.98902L4.98769 8.11327C5.02927 7.84958 5.25508 7.65508 5.52218 7.65508H6.63536C8.82156 7.65508 10.5334 6.7671 11.0334 4.19836C11.0483 4.12238 11.0608 4.04877 11.0723 3.9762C10.9456 3.90935 10.8086 3.85159 10.661 3.80264C10.6237 3.79029 10.5862 3.77859 10.5486 3.76755Z" fill="#1F264F"/>
</svg>
