<svg width="1015" height="3800" viewBox="0 0 1015 3800" fill="none" xmlns="http://www.w3.org/2000/svg"><path d="M719.439 2222.53H177.223v1481.35h542.216V2222.53Z" fill="#D4D5D7"/><path fill-rule="evenodd" clip-rule="evenodd" d="M85.173 320.333c0-52.893-8.78-87.304 26.72-95.798 151.31-36.221 39.94-79.213 248.08-73.808l16.89 169.606H85.173Z" fill="#D4D5D7"/><path fill-rule="evenodd" clip-rule="evenodd" d="m85.175 320.333 291.69.458c.13 0 .24-.055.33-.15a.5.5 0 0 0 .12-.352l-16.58-169.637a.751.751 0 0 0-.74-.684c-53.14-1.495-85.51.217-106.73 4.172-23.86 4.447-33.79 11.732-43.26 20.522-15.11 14.051-28.99 32.037-98.46 48.427-13.87 3.267-21.26 10.382-25.15 20.832-6.28 16.904-2.97 43.002-3.09 76.412h1.87Zm1.88-.002c-.11-32.914-3.71-58.608 2.35-75.304 3.47-9.541 10.23-15.982 22.84-19.048 70.18-17.044 84.08-35.373 99.29-49.681 9.17-8.628 18.84-15.76 42.09-20.208 21.04-4.026 53.1-5.849 105.67-4.621l17.06 168.408-289.3.454Z" fill="#EDEEF0"/><path fill-rule="evenodd" clip-rule="evenodd" d="M100.542 393.141c0-52.893-53.64-118.385 5.03-142.145 144.21-58.394 21.95-129.689 230.1-124.285l12.94 362.353-248.07-95.923Z" fill="#D4D5D7"/><path fill-rule="evenodd" clip-rule="evenodd" d="m100.543 393.141 247.84 96.507c.19.075.42.047.59-.073a.592.592 0 0 0 .25-.534l-12.02-362.385a1.54 1.54 0 0 0-1.5-1.48c-59.5-1.714-92.2 2.957-111.85 11.742-19.96 8.921-26.76 22.041-34.18 37.339-6.84 14.133-14.23 30.207-34.18 46.271-11.79 9.496-27.96 18.954-50.89 28.072-20.61 8.127-28.22 21.273-29.38 37.11-1.18 16.061 4.68 35.155 10.62 54.864 5.32 17.632 10.71 35.772 10.54 52.567h4.16Zm4.17 0c-.2-17.548-6.1-36.403-12.04-54.705-6.1-18.772-12.25-36.927-11.43-52.343.75-13.85 7.43-25.273 25.3-32.699 23.37-9.636 39.77-19.59 51.75-29.433 20.42-16.783 28.04-33.327 35.01-47.962 6.94-14.549 13.21-27.132 32.08-35.703 19.16-8.706 51.02-13.332 108.81-12.084 0 0 12.97 339.633 13.75 359.927-16.16-6.203-247.4-94.998-247.4-94.998h4.17Z" fill="#EDEEF0"/><path fill-rule="evenodd" clip-rule="evenodd" d="M140.654 535.164c-16.06-29.441-77.37-155.474-64-208.59 2.74-10.859 11.44-20.447 22.88-26.765 61.16-33.773 84.65-75.688 95.02-122.485 18.16-81.901 155.65 357.84 155.65 357.84h-209.55Z" fill="#D4D5D7"/><path fill-rule="evenodd" clip-rule="evenodd" d="m140.655 535.164 209.55.857c.27 0 .52-.128.69-.349.16-.22.21-.502.12-.763 0 0-64.17-208.219-110.3-311.768-13.81-30.992-26.31-52.642-34.85-57.27-5.89-3.194-11.14-.727-13.77 10.906-5.73 25.336-15.33 49.208-32.89 71.052-14.35 17.87-34.03 34.368-61.19 49.233-5.81 3.178-10.95 7.162-15.06 11.7-4.6 5.078-7.9 10.862-9.48 17.014-5.46 21.431.77 54.572 11.59 88.621 16.27 51.236 42.67 104.608 52.41 122.505l3.18-1.738Zm3.18-1.736c-9.66-17.7-35.78-70.517-52.07-121.176-10.5-32.616-17.05-64.297-11.94-84.878 1.28-5.176 4.07-10.029 7.91-14.326 3.62-4.063 8.17-7.627 13.31-10.493 27.85-15.516 47.95-32.686 62.6-51.194 17.92-22.659 27.68-47.326 33.37-73.49.59-2.698 1.3-4.774 2.17-6.252.62-1.055 1.24-1.77 2.06-1.948 2.21-.482 4.64 1.758 7.76 5.399 11.43 13.298 27.14 46.585 43.97 87.776 42.35 103.591 91.44 256.979 96.05 271.467l-208.37.851 3.18-1.736Z" fill="#EDEEF0"/><path fill-rule="evenodd" clip-rule="evenodd" d="M112.463 543.536c0-52.895-76.11-137.953-7.96-183.882 57.45-38.726 77.75-85.437 88.12-129.842 19.79-84.728 7.63-38.929 144.21-35.383l13.99 398.122-238.36-49.015Z" fill="#D4D5D7"/><path fill-rule="evenodd" clip-rule="evenodd" d="m112.463 543.536 238.2 49.774c.23.049.48-.014.66-.166a.772.772 0 0 0 .27-.619l-12.66-398.171a2.113 2.113 0 0 0-2.05-2.037c-50.98-1.505-81.12-8.851-99.94-13.006-12.96-2.86-20.89-4.025-26.52-1.475-4.49 2.03-7.77 6.317-10.71 14.292-2.93 7.943-5.7 19.815-9.8 37.052-5.76 24.159-14.45 49.019-30.72 72.797-13.16 19.244-31.29 37.755-56.72 54.668-21.88 14.387-29.88 32.734-30.6 52.792-.94 25.984 10.94 55.129 21.2 82.397 7.07 18.81 13.36 36.642 13.15 51.702h6.24Zm6.25 0c-.23-16.315-7.28-35.517-15.52-55.672-10.54-25.82-23-53.33-22.71-78.221.2-17.668 7.08-33.884 26.04-46.981 26.04-17.786 44.48-37.163 57.86-57.175 16.45-24.602 25.25-50.171 30.95-75.043 3.9-16.978 6.51-28.678 9.33-36.509 2.24-6.218 4.42-9.816 7.89-11.421 4.95-2.284 11.91-.799 23.34 1.633 18.76 3.996 48.67 11.056 98.9 12.344 0 0 14.38 373.43 15.22 395.106l-237.55-48.061h6.25Z" fill="#EDEEF0"/><path fill-rule="evenodd" clip-rule="evenodd" d="M95.984 642.007c0-52.894-56.92-158.682 9.54-206.996 153.11-111.275 19.74-293.841 227.89-288.439l18.23 520.258-255.66-24.823Z" fill="#D4D5D7"/><path fill-rule="evenodd" clip-rule="evenodd" d="m95.984 642.007 255.58 25.625c.22.022.46-.057.62-.215a.8.8 0 0 0 .26-.615l-16.51-520.317a2.521 2.521 0 0 0-2.45-2.431c-62.53-1.847-94.83 13.365-113.43 38.15-15.95 21.245-21.76 49.786-27.69 81.358-10.26 54.645-20.9 118.673-89.42 167.888-21.18 15.024-30.77 35.606-33.88 58.57-3.96 29.352 3 62.765 9.84 93.139 5.04 22.418 10.01 43.079 9.78 58.848h7.3Zm7.29 0c-.24-16.646-5.93-38.33-11.9-61.837-7.35-28.898-15.13-60.693-12.05-88.894 2.25-20.445 10.31-38.935 28.8-52.705 58.68-43.184 75.66-96.432 85.51-145.795 8.29-41.509 11.32-80.189 31.16-107.04 17.4-23.544 47.86-37.609 106.2-36.691 0 .002 18.88 492.785 19.8 516.9l-254.81-23.938h7.29Z" fill="#EDEEF0"/><path fill-rule="evenodd" clip-rule="evenodd" d="M84.902 665.884c0-52.893-30.37-104.482 27.12-148.55 159.92-122.581-4.93-305.331 203.22-299.928l43.1 532.825-273.44-84.347Z" fill="#D4D5D7"/><path fill-rule="evenodd" clip-rule="evenodd" d="m84.903 665.884 273.13 85.337c.34.1.69.033.97-.182.26-.216.4-.549.37-.891l-41.07-532.991a3.077 3.077 0 0 0-2.99-2.831c-66.94-2.029-96.3 15.604-110.38 43.776-11.23 22.486-12.55 52.172-15.13 84.983-2.81 35.703-7.14 75.294-29.13 112.826-11.64 19.849-28.31 39.028-52.16 56.832-23.54 17.488-33.46 36.461-37.03 56.18-5.56 30.681 5.64 63.658 5.09 96.961h8.33Zm8.33 0c-.27-16.538-3.38-32.904-6-48.974-2.54-15.611-4.67-30.912-2.45-45.791 2.55-17.093 10.93-33.518 30.77-49.195 24.64-19.394 41.53-40.13 53.39-61.272 21.99-39.235 26.37-80.033 28.87-116.978 2.16-31.762 2.93-60.526 13.6-82.371 12.78-26.178 40.06-41.713 100.99-40.865 0 0 42.15 497.288 44.78 528.359l-272.28-82.913h8.33Z" fill="#EDEEF0"/><path fill-rule="evenodd" clip-rule="evenodd" d="M95.093 801.533c0-52.895-32.87-138.719 21.69-186.146 152.07-132.194 15.01-297.694 223.15-292.289l25.08 520.773-269.92-42.338Z" fill="#D4D5D7"/><path fill-rule="evenodd" clip-rule="evenodd" d="m95.094 801.533 269.77 43.308c.29.046.58-.041.8-.239a.998.998 0 0 0 .33-.778l-23.1-520.868a2.971 2.971 0 0 0-2.89-2.815c-64.61-1.948-96.69 12.763-114.59 37.315-15.38 21.113-20.22 49.858-25.86 82.531-5.96 34.494-12.87 73.526-35.61 112.131-11.86 20.123-28.09 40.07-50.64 59.265-22.99 19.414-31.78 45.284-34.04 72.969-3.3 40.475 8.02 84.998 7.49 117.181h8.34Zm8.33 0c-.52-32.035-13.42-75.959-11.35-116.332 1.26-24.667 8.25-47.972 28.19-65.81 23.06-20.459 39.43-41.633 51.45-62.775 22.71-39.956 29.65-79.916 35.42-115.357 5.13-31.497 9.27-59.291 23.9-79.74 16.55-23.11 46.54-36.4 106.09-35.515l26.84 516.716-268.87-41.187h8.33Z" fill="#EDEEF0"/><path fill-rule="evenodd" clip-rule="evenodd" d="M140.794 885.017c0-52.893-128.39-40.733 2.07-184.453 140.63-154.923 40.05-471.634 248.2-466.231v691.776l-250.27-41.092Z" fill="#D4D5D7"/><path fill-rule="evenodd" clip-rule="evenodd" d="m140.793 885.017 250.16 41.722c.2.03.38-.02.53-.14.14-.12.22-.3.22-.49l1.83-691.776c0-1.34-1.07-2.434-2.41-2.47-73.99-2.133-109.83 35.759-131.25 92.699-31.5 83.699-30.92 209.578-77.45 307.764-11.2 23.661-25.27 45.631-43.14 64.988-41.25 44.498-57.38 74.717-60.44 96.403-3.61 25.518 9.7 40.592 25.03 53.602 7.12 6.036 14.66 11.579 20.55 17.808 5.29 5.602 9.17 11.773 9.07 19.89h7.3Zm7.29 0c-.21-17.992-12.55-29.777-27.01-41.09-15.33-11.987-33.33-23.582-30.33-48.662 2.43-20.465 17.77-48.776 55.7-91.45 18.15-20.342 32.21-43.359 43.51-67.979 45.44-99.041 44.43-225.057 75.47-309.204 20-54.226 53.69-90.638 123.17-89.87l1.83 688.597-249.63-40.342h7.29Z" fill="#EDEEF0"/><path fill-rule="evenodd" clip-rule="evenodd" d="M110.855 1039.61c0-52.891-46.38-113.631 29.63-208.778 130.6-163.47 40.05-237.492 248.2-232.089v457.637l-277.83-16.77Z" fill="#D4D5D7"/><path fill-rule="evenodd" clip-rule="evenodd" d="m110.852 1039.61 277.74 18.29c.42.03.83-.12 1.14-.41.3-.29.47-.69.47-1.11l2.51-457.637a4.026 4.026 0 0 0-3.92-4.024c-87.99-2.766-123.88 9.383-145.3 35.332-12.73 15.419-20.36 35.969-30.57 61.861-13.78 34.964-32.59 79.912-77.19 135.123-31.79 39.346-42.98 73.144-45.2 102.964-1.87 24.91 2.64 47.09 6.93 67.53 3.13 14.861 6.17 28.741 6.1 42.081h7.29Zm7.29 0c-.08-14.31-3.37-29.16-6.89-45.061-4.27-19.24-8.88-40.1-7.38-63.63 1.77-27.81 12.14-59.295 41.36-96.288 44.98-56.927 63.74-103.056 77.43-138.946 9.47-24.835 16.34-44.64 28.34-59.499 19.69-24.4 53.18-34.796 133.68-33.491.23 43.076 2.32 424.205 2.48 452.075l-276.31-15.16h7.29Z" fill="#EDEEF0"/><path fill-rule="evenodd" clip-rule="evenodd" d="M118.975 1172.34c0-52.89-40.18-121.28 35.83-216.431 130.6-163.473 40.06-237.495 248.21-232.092v457.633l-284.04-9.11Z" fill="#D4D5D7"/><path fill-rule="evenodd" clip-rule="evenodd" d="m118.973 1172.34 283.98 10.65c.42.02.82-.14 1.12-.43.3-.29.47-.69.47-1.11l2.48-457.633a4.02 4.02 0 0 0-3.91-4.016c-87.98-2.76-123.86 9.387-145.29 35.335-12.73 15.418-20.36 35.968-30.56 61.855-13.78 34.969-32.58 79.92-77.19 135.138-31.9 39.5-44.09 74.661-47.45 106.071-4.83 45.14 9.24 82.45 9.05 114.14h7.3Zm7.29 0c-.17-31.35-14.65-68.09-10.37-112.79 2.84-29.49 14.12-62.491 43.64-99.861 44.98-56.92 63.74-103.05 77.43-138.936 9.47-24.837 16.34-44.644 28.35-59.505 19.69-24.402 53.19-34.798 133.7-33.486l2.45 452.108-282.49-7.53h7.29Z" fill="#EDEEF0"/><path fill-rule="evenodd" clip-rule="evenodd" d="M129.283 1291.64c-1.18-39.77-52.35-71.63 53.07-214.48 97.49-132.091 24.65-219.304 219.53-213.901v457.631l-272.6-29.25Z" fill="#D4D5D7"/><path fill-rule="evenodd" clip-rule="evenodd" d="m129.285 1291.64 272.44 30.78c.43.04.85-.1 1.18-.39.32-.29.51-.7.51-1.14l2.55-457.631c0-2.211-1.76-4.02-3.97-4.081-75.33-2.509-111.65 9.288-133.22 31.414-13.93 14.317-21.79 33.117-29.75 55.797-12 34.22-24.41 77.561-61.5 127.211-42.03 56.31-59.76 95.8-65.86 125.31-6.27 30.28-.56 50.47 4.72 67.68 2.74 8.91 5.41 16.9 5.62 25.27l7.28-.22Zm7.29-.21c-.33-9.65-3.31-18.87-6.57-29.1-4.91-15.41-10.39-33.48-5.06-60.75 5.55-28.4 22.47-66.34 62.24-120.86 37.39-51.28 49.76-95.761 61.66-130.951 7.17-21.23 14.07-38.96 26.91-52.453 19.79-20.771 53.42-31.163 122.06-30.051 0 0 2.36 421.815 2.53 451.935-22.99-2.34-271.06-27.56-271.06-27.56l7.29-.21Z" fill="#EDEEF0"/><path fill-rule="evenodd" clip-rule="evenodd" d="M149.555 1454.9c-1.19-39.77-78.62-46.6 48.39-229.59 93.87-135.24 24.65-219.31 219.53-213.91v457.64l-267.92-14.14Z" fill="#D4D5D7"/><path fill-rule="evenodd" clip-rule="evenodd" d="m149.553 1454.9 267.84 15.62c.41.02.8-.13 1.1-.41.29-.28.459-.66.459-1.07l2.521-457.64c0-2.16-1.721-3.94-3.891-4-75.06-2.49-111.87 8.74-133.88 30.33-14.36 14.11-22.53 32.77-30.61 55.52-12.13 34.15-24.249 77.81-59.989 128.69-44.28 63.05-64.22 105.57-71.42 135.72-9.01 37.68 1.09 57.22 10.44 73.12 4.9 8.34 9.92 15.32 10.14 24.34l7.29-.22Zm7.279-.22c-.4-11.48-6.099-20.63-12.469-31.19-8.19-13.58-16.95-30.29-9.57-62.77 6.66-29.28 25.79-70.52 68-132.05 35.92-52.37 47.93-97.05 59.93-132.06 7.29-21.26 14.46-38.84 27.69-52.12 20.27-20.33 54.43-30.3 123.08-29.16l2.49 452.16-266.43-12.59 7.279-.22Z" fill="#EDEEF0"/><path fill-rule="evenodd" clip-rule="evenodd" d="M155.254 1626.53c-1.19-39.77-73.28-63.57 53.55-243.73 83.65-118.82 24.65-219.31 219.53-213.9v457.63h-273.08Z" fill="#D4D5D7"/><path fill-rule="evenodd" clip-rule="evenodd" d="m155.255 1626.53 273.08 1.49c.82 0 1.49-.67 1.49-1.49l2.49-457.63c0-2.16-1.72-3.92-3.87-3.98-71.55-2.38-109.67 9.82-133.24 31.44-19.96 18.31-29.62 43.58-39.88 73.45-11.07 32.22-23.03 69.93-51.29 109.62-46.49 65.28-66.81 110.43-73.91 143.24-8.02 37.13.43 59.21 8.48 76.86 4.51 9.88 9.13 18.05 9.36 27.22l7.29-.22Zm7.29-.22c-.39-11.01-5.48-20.96-11.02-32.77-7.32-15.57-15.02-35.08-8.26-68.1 6.52-31.84 26.01-75.6 70.32-139.28 28.57-41.06 40.53-79.85 51.54-113.04 9.37-28.27 17.87-52.37 36.5-69.83 21.78-20.41 57.16-31.5 122.75-30.49l2.46 452.25-271.58 1.48 7.29-.22Z" fill="#EDEEF0"/><path fill-rule="evenodd" clip-rule="evenodd" d="M155.255 1806.53c-1.19-39.77-26.66-136.53 50.4-247.15 92.48-132.74 42.37-173.3 222.68-166.75v413.9h-273.08Z" fill="#D4D5D7"/><path fill-rule="evenodd" clip-rule="evenodd" d="m155.253 1806.53 273.08 1.59c.87 0 1.58-.71 1.58-1.59l2.41-413.9c0-2.15-1.7-3.91-3.85-3.99-65.56-2.76-101.21 1.05-124.31 12.87-17.77 9.09-28.43 22.84-39.18 42.29-14.39 26.04-29.12 62.71-64.07 112.28-30.25 42.88-45.22 83.81-52.16 120.28-11.15 58.56-1.39 105.52-.79 130.39l7.29-.22Zm7.29-.22c-.87-24.33-11.17-70.16-.93-127.58 6.26-35.08 20.23-74.53 48.79-116.04 34.71-50.44 49.19-87.62 63.42-114.08 9.49-17.65 18.74-30.36 34.68-38.74 21.67-11.41 55.09-15.04 115.86-13.37l2.37 408.45-271.48 1.58 7.29-.22Z" fill="#EDEEF0"/><path fill-rule="evenodd" clip-rule="evenodd" d="M175.254 1946.53c-1.19-39.77-29.76-132.83 40.86-229.99 92.76-127.64 51.91-217.75 232.22-211.2v441.19h-273.08Z" fill="#D4D5D7"/><path fill-rule="evenodd" clip-rule="evenodd" d="m175.253 1946.53 273.08 1.75c.97 0 1.75-.78 1.75-1.75l2.83-441.19c0-2.47-1.95-4.49-4.41-4.58-71.63-3.06-109.3 9.44-134.26 32.82-19.07 17.86-30.73 42.31-44.17 71.89-13.94 30.7-29.97 67.05-59.45 107.08-28.96 39.31-41.94 78.08-47.05 113.11-7.69 52.69 2.77 96.8 3.35 121.12l8.33-.25Zm8.33-.25c-.87-23.81-11.9-66.84-5.03-118.53 4.39-33.1 16.22-69.79 43.05-107.22 29.61-41.29 45.57-78.62 59.42-110.18 12.38-28.2 22.88-51.67 40.74-68.84 22.74-21.85 57.3-33.11 122.02-31.71 0 0 2.59 405.1 2.79 434.99l-271.32 1.74 8.33-.25Z" fill="#EDEEF0"/><path fill-rule="evenodd" clip-rule="evenodd" d="M175.252 2118.56c-1.19-39.01-27.37-132.33 51.4-244.91 88.51-126.49 41.37-167.45 221.68-161.03v405.94h-273.08Z" fill="#D4D5D7"/><path fill-rule="evenodd" clip-rule="evenodd" d="m175.253 2118.56 273.08 1.6c.89 0 1.6-.72 1.6-1.6l2.39-405.94c0-2.15-1.7-3.91-3.85-3.99-63.29-2.63-99.03.89-122.46 11.58-18.66 8.51-29.84 21.48-40.56 39.77-14.87 25.39-28.9 61.47-63.53 110.35-30.45 42.98-45.71 83.29-52.92 118.95-11.87 58.76-1.65 104.86-1.04 129.5l7.29-.22Zm7.29-.22c-.88-24.07-11.63-69-.71-126.54 6.52-34.35 20.8-73.21 49.56-114.83 27.76-40.17 42.11-71.76 54.34-96.03 12.59-25.01 22.61-42.02 44.23-52.19 22.04-10.37 55.6-13.82 114.4-12.25l2.35 400.46-271.46 1.6 7.29-.22Z" fill="#EDEEF0"/><path fill-rule="evenodd" clip-rule="evenodd" d="M175.252 2278.54c-1.19-37.66-26.93-127.28 51.4-236.08 88.77-123.28 41.37-187.56 221.68-181.36v417.44h-273.08ZM811.483 320.333c0-52.893 8.78-87.304-26.71-95.798-151.32-36.221-39.95-79.213-248.09-73.808l-16.89 169.606h291.69Z" fill="#D4D5D7"/><path fill-rule="evenodd" clip-rule="evenodd" d="M813.353 320.333c-.12-33.41 3.19-59.508-3.09-76.412-3.89-10.45-11.28-17.565-25.15-20.832-69.47-16.39-83.35-34.376-98.46-48.427-9.46-8.79-19.39-16.075-43.26-20.522-21.22-3.955-53.58-5.667-106.73-4.172a.751.751 0 0 0-.74.684l-16.57 169.637c-.01.129.03.255.11.352.09.095.21.15.33.15l291.69-.458h1.87Zm-3.75-.002-289.29-.454 17.05-168.408c52.58-1.228 84.63.595 105.67 4.621 23.25 4.448 32.92 11.58 42.09 20.208 15.21 14.308 29.11 32.637 99.29 49.681 12.62 3.066 19.37 9.507 22.84 19.048 6.07 16.696 2.47 42.39 2.35 75.304Z" fill="#EDEEF0"/><path fill-rule="evenodd" clip-rule="evenodd" d="M796.115 393.141c0-52.893 53.64-118.385-5.03-142.145-144.21-58.394-21.95-129.689-230.1-124.285l-12.93 362.353 248.06-95.923Z" fill="#D4D5D7"/><path fill-rule="evenodd" clip-rule="evenodd" d="M800.284 393.141c-.17-16.795 5.21-34.935 10.53-52.567 5.95-19.709 11.8-38.803 10.63-54.864-1.17-15.837-8.77-28.983-29.39-37.11-22.93-9.118-39.1-18.576-50.89-28.074-19.94-16.062-27.33-32.136-34.18-46.269-7.41-15.298-14.22-28.418-34.18-37.339-19.65-8.785-52.35-13.456-111.85-11.742-.81.02-1.46.668-1.49 1.48l-12.03 362.385c-.01.212.08.411.25.534.18.12.4.148.59.073l247.84-96.507h4.17Zm-222.24-265.126 2.48-.004c46.55.014 73.69 4.532 90.75 12.285 18.88 8.571 25.15 21.154 32.08 35.703 6.97 14.635 14.59 31.179 35.01 47.962 11.98 9.843 28.38 19.797 51.75 29.433 17.87 7.426 24.55 18.849 25.3 32.699.82 15.416-5.33 33.571-11.43 52.343-5.93 18.302-11.84 37.157-12.03 54.705h4.16l-247.4 94.998 13.76-359.927c5.41-.116 10.6-.181 15.57-.197Z" fill="#EDEEF0"/><path fill-rule="evenodd" clip-rule="evenodd" d="M756.003 535.164c16.07-29.441 77.38-155.474 64-208.59-2.73-10.859-11.44-20.447-22.88-26.765-61.15-33.773-84.64-75.688-95.01-122.485-18.17-81.901-155.66 357.84-155.66 357.84h209.55Z" fill="#D4D5D7"/><path fill-rule="evenodd" clip-rule="evenodd" d="M756.001 535.164v1.738h3.191c9.74-17.897 36.13-71.269 52.41-122.505 10.82-34.049 17.04-67.19 11.59-88.621-1.59-6.152-4.89-11.936-9.49-17.014-4.11-4.538-9.25-8.522-15.06-11.7-27.16-14.865-46.84-31.363-61.19-49.233-17.56-21.844-27.161-45.716-32.891-71.052-2.62-11.633-7.88-14.1-13.76-10.906-8.55 4.628-21.049 26.278-34.859 57.27-46.13 103.549-110.3 311.768-110.3 311.768a.862.862 0 0 0 .12.763c.17.221.43.349.69.349l209.549-.857Zm-3.179-.012-205.19-.839c4.61-14.488 53.7-167.876 96.05-271.467 16.83-41.191 32.55-74.478 43.97-87.776 3.12-3.641 5.55-5.881 7.76-5.399.82.178 1.44.893 2.06 1.948.88 1.478 1.58 3.554 2.17 6.252 5.69 26.164 15.449 50.831 33.379 73.49 14.64 18.508 34.741 35.678 62.591 51.194 5.15 2.866 9.69 6.43 13.32 10.493 3.83 4.297 6.62 9.15 7.9 14.326 5.12 20.581-1.44 52.262-11.94 84.878-16.29 50.659-42.4 103.476-52.07 121.176v1.724Z" fill="#EDEEF0"/><path fill-rule="evenodd" clip-rule="evenodd" d="M784.192 543.536c0-52.895 76.11-137.953 7.97-183.882-57.46-38.726-77.76-85.437-88.13-129.842-19.78-84.728-7.63-38.929-144.2-35.383l-14 398.122 238.36-49.015Z" fill="#D4D5D7"/><path fill-rule="evenodd" clip-rule="evenodd" d="M790.443 543.536c-.22-15.06 6.07-32.892 13.15-51.702 10.25-27.268 22.14-56.413 21.2-82.397-.73-20.058-8.73-38.405-30.6-52.792-25.43-16.913-43.57-35.424-56.73-54.668-16.27-23.778-24.96-48.638-30.72-72.797-4.1-17.237-6.87-29.109-9.79-37.052-2.95-7.975-6.23-12.262-10.72-14.292-5.62-2.55-13.56-1.385-26.52 1.475-18.82 4.155-48.96 11.501-99.94 13.006-1.11.03-2.01.923-2.05 2.037l-12.66 398.171c-.01.237.09.465.27.619.18.152.43.215.66.166l238.2-49.774h6.25Zm-112.89-362.15.63-.006c2.28.01 4.22.349 5.92 1.134 3.47 1.605 5.65 5.203 7.89 11.421 2.82 7.831 5.44 19.531 9.34 36.509 5.69 24.872 14.49 50.441 30.94 75.043 13.38 20.012 31.82 39.389 57.86 57.175 18.97 13.097 25.85 29.313 26.05 46.981.29 24.891-12.18 52.401-22.72 78.221-8.23 20.155-15.29 39.357-15.52 55.672h6.25l-237.54 48.061 15.22-395.106c50.22-1.288 80.13-8.348 98.89-12.344 7.15-1.521 12.54-2.671 16.79-2.761Z" fill="#EDEEF0"/><path fill-rule="evenodd" clip-rule="evenodd" d="M800.683 642.007c0-52.894 56.91-158.682-9.55-206.996-153.1-111.275-19.739-293.841-227.889-288.439L545.023 666.83l255.66-24.823Z" fill="#D4D5D7"/><path fill-rule="evenodd" clip-rule="evenodd" d="M807.974 642.007c-.22-15.769 4.739-36.43 9.779-58.848 6.84-30.374 13.8-63.787 9.84-93.139-3.11-22.964-12.699-43.546-33.879-58.57-68.52-49.215-79.151-113.243-89.421-167.888-5.93-31.572-11.74-60.113-27.68-81.358-18.61-24.785-50.91-39.997-113.44-38.15a2.52 2.52 0 0 0-2.449 2.431l-16.501 520.317c-.01.232.08.457.25.615.16.158.4.237.62.215l255.591-25.625h7.29ZM568.383 149.014l2.67-.01c54.84.014 83.96 13.924 100.81 36.732 19.84 26.851 22.87 65.531 31.16 107.04 9.85 49.363 26.83 102.611 85.51 145.795 18.49 13.77 26.55 32.26 28.8 52.705 3.08 28.201-4.7 59.996-12.05 88.894-5.97 23.507-11.65 45.191-11.9 61.837h7.301l-254.821 23.938s18.35-478.913 19.8-516.898c.91-.015 1.82-.025 2.72-.033Z" fill="#EDEEF0"/><path fill-rule="evenodd" clip-rule="evenodd" d="M811.752 665.884c0-52.893 30.381-104.482-27.119-148.55-159.91-122.581 4.94-305.331-203.21-299.928l-43.111 532.825 273.44-84.347Z" fill="#D4D5D7"/><path fill-rule="evenodd" clip-rule="evenodd" d="M820.085 665.884c-.54-33.303 10.65-66.28 5.1-96.961-3.58-19.719-13.49-38.692-37.03-56.18-23.85-17.804-40.53-36.983-52.17-56.832-21.99-37.532-26.32-77.123-29.13-112.826-2.58-32.811-3.89-62.497-15.13-84.983-14.08-28.172-43.44-45.805-110.38-43.776a3.077 3.077 0 0 0-2.99 2.831l-41.07 532.991c-.03.342.11.675.38.891.28.215.63.282.96.182l273.13-85.337h8.33ZM587.095 220.41l2.77-.004c57.01.168 83 15.539 95.39 40.897 10.67 21.845 11.44 50.609 13.59 82.371 2.5 36.945 6.88 77.743 28.87 116.978 11.86 21.142 28.76 41.878 53.4 61.272 19.83 15.677 28.22 32.102 30.76 49.195 2.22 14.879.09 30.18-2.45 45.791-2.62 16.07-5.72 32.436-6 48.974h8.33l-272.28 82.913 44.79-528.359c.95-.014 1.89-.022 2.83-.028Z" fill="#EDEEF0"/><path fill-rule="evenodd" clip-rule="evenodd" d="M801.562 801.533c0-52.895 32.87-138.719-21.69-186.146-152.06-132.194-15.01-297.694-223.14-292.289l-25.08 520.773 269.91-42.338Z" fill="#D4D5D7"/><path fill-rule="evenodd" clip-rule="evenodd" d="M809.905 801.533c-.53-32.183 10.79-76.706 7.49-117.181-2.26-27.685-11.05-53.555-34.04-72.969-22.55-19.195-38.78-39.142-50.63-59.265-22.74-38.605-29.66-77.637-35.62-112.131-5.63-32.673-10.471-61.418-25.851-82.531-17.91-24.552-49.989-39.263-114.599-37.315a2.955 2.955 0 0 0-2.88 2.815l-23.11 520.868c-.01.296.11.581.34.778.21.198.51.285.8.239l269.76-43.308h8.34Zm-247.6-475.561 2.73-.01c55.92-.002 84.57 13.17 100.59 35.557 14.63 20.449 18.77 48.243 23.9 79.74 5.77 35.441 12.71 75.401 35.42 115.357 12.03 21.142 28.39 42.316 51.45 62.775 19.94 17.838 26.94 41.143 28.2 65.81 2.06 40.373-10.83 84.297-11.36 116.332h8.33s-249.46 38.212-268.87 41.187l26.84-516.716c.93-.014 1.85-.024 2.77-.032Z" fill="#EDEEF0"/><path fill-rule="evenodd" clip-rule="evenodd" d="M755.874 885.017c0-52.893 128.38-40.733-2.07-184.453-140.64-154.923-40.06-471.634-248.21-466.231v691.776l250.28-41.092Z" fill="#D4D5D7"/><path fill-rule="evenodd" clip-rule="evenodd" d="M763.163 885.017c-.09-8.117 3.78-14.288 9.07-19.89 5.9-6.229 13.44-11.772 20.55-17.808 15.33-13.01 28.65-28.084 25.04-53.602-3.07-21.686-19.2-51.905-60.45-96.403-17.87-19.357-31.93-41.329-43.14-64.988-46.52-98.186-45.95-224.065-77.44-307.764-21.43-56.94-57.26-94.832-131.26-92.699a2.465 2.465 0 0 0-2.4 2.47l1.82 691.776c0 .19.09.37.23.49.15.12.33.17.52.14l250.17-41.722h7.29Zm-255.1-648.255 1.62-.012c68.38-.187 101.72 36.079 121.55 89.882 31.04 84.147 30.04 210.163 75.47 309.204 11.3 24.622 25.36 47.637 43.52 67.979 37.93 42.674 53.26 70.985 55.7 91.45 2.99 25.08-15.01 36.675-30.34 48.662-14.46 11.313-26.8 23.098-27.01 41.09h7.3l-249.64 40.342 1.83-688.597Z" fill="#EDEEF0"/><path fill-rule="evenodd" clip-rule="evenodd" d="M785.803 1039.61c0-52.891 46.39-113.631-29.63-208.778-130.59-163.47-40.05-237.492-248.2-232.089v457.637l277.83-16.77Z" fill="#D4D5D7"/><path fill-rule="evenodd" clip-rule="evenodd" d="M793.095 1039.61c-.07-13.34 2.97-27.22 6.1-42.081 4.3-20.44 8.81-42.62 6.94-67.53-2.23-29.82-13.42-63.618-45.21-102.964-44.6-55.211-63.41-100.159-77.19-135.123-10.21-25.892-17.83-46.442-30.56-61.861-21.43-25.949-57.32-38.098-145.31-35.332a4.026 4.026 0 0 0-3.92 4.024l2.51 457.637c0 .42.17.82.47 1.11.31.29.72.44 1.14.41l277.74-18.29h7.29Zm-270.1-437.019 3.53-.002c70.09.156 100.67 10.722 119.14 33.597 11.99 14.859 18.86 34.664 28.33 59.499 13.7 35.89 32.45 82.019 77.43 138.946 29.22 36.993 39.59 68.478 41.36 96.288 1.5 23.53-3.1 44.39-7.38 63.63-3.52 15.901-6.81 30.751-6.88 45.061h7.28l-276.3 15.16 2.47-452.075c3.77-.061 7.45-.096 11.02-.104Z" fill="#EDEEF0"/><path fill-rule="evenodd" clip-rule="evenodd" d="M777.682 1172.34c0-52.89 40.18-121.28-35.83-216.431-130.6-163.473-40.05-237.495-248.2-232.092v457.633l284.03-9.11Z" fill="#D4D5D7"/><path fill-rule="evenodd" clip-rule="evenodd" d="M784.983 1172.34c-.18-31.69 13.88-69 9.06-114.14-3.37-31.41-15.55-66.571-47.46-106.071-44.6-55.218-63.41-100.169-77.19-135.138-10.2-25.887-17.83-46.437-30.56-61.855-21.42-25.948-57.31-38.095-145.29-35.335a4.02 4.02 0 0 0-3.91 4.016l2.48 457.633c0 .42.17.82.47 1.11.3.29.7.45 1.12.43l283.98-10.65h7.3Zm-276.32-444.685 3.54-.002c70.09.15 100.68 10.718 119.14 33.595 12.01 14.861 18.88 34.668 28.35 59.505 13.69 35.886 32.45 82.016 77.43 138.936 29.52 37.37 40.8 70.371 43.64 99.861 4.28 44.7-10.2 81.44-10.37 112.79h7.29s-259.67 6.92-282.48 7.53l2.44-452.108c3.78-.062 7.46-.097 11.02-.107Z" fill="#EDEEF0"/><path fill-rule="evenodd" clip-rule="evenodd" d="M767.375 1291.64c1.19-39.77 52.36-71.63-53.06-214.48-97.49-132.091-24.65-219.304-219.53-213.901v457.631l272.59-29.25Z" fill="#D4D5D7"/><path fill-rule="evenodd" clip-rule="evenodd" d="M767.373 1291.64v.22h7.29c.2-8.37 2.88-16.36 5.62-25.27 5.28-17.21 10.99-37.4 4.72-67.68-6.11-29.51-23.83-69-65.87-125.31-37.08-49.65-49.5-92.991-61.5-127.211-7.95-22.68-15.81-41.48-29.75-55.797-21.56-22.126-57.88-33.923-133.21-31.414a4.083 4.083 0 0 0-3.97 4.081l2.55 457.631a1.545 1.545 0 0 0 1.69 1.53l272.43-30.78Zm-262.19-424.446 3.09-.01c62.34-.034 93.77 10.335 112.63 30.132 12.85 13.493 19.74 31.223 26.92 52.453 11.9 35.19 24.26 79.671 61.66 130.951 39.77 54.52 56.69 92.46 62.24 120.86 5.33 27.27-.15 45.34-5.06 60.75-3.27 10.23-6.24 19.45-6.58 29.1v.21h7.29l-271.05 27.56 2.52-451.935c2.15-.036 4.26-.059 6.34-.071Z" fill="#EDEEF0"/><path fill-rule="evenodd" clip-rule="evenodd" d="M747.104 1454.9c1.19-39.77 78.62-46.6-48.39-229.59-93.87-135.24-24.65-219.31-219.53-213.91v457.64l267.92-14.14Z" fill="#D4D5D7"/><path fill-rule="evenodd" clip-rule="evenodd" d="M747.104 1454.9v.22h7.29c.22-9.02 5.239-16 10.139-24.34 9.35-15.9 19.451-35.44 10.441-73.12-7.2-30.15-27.141-72.67-71.421-135.72-35.74-50.88-47.86-94.54-59.99-128.69-8.08-22.75-16.249-41.41-30.609-55.52-22.01-21.59-58.821-32.82-133.881-30.33a4.002 4.002 0 0 0-3.889 4l2.519 457.64c0 .41.171.79.461 1.07.3.28.69.43 1.1.41l267.84-15.62Zm-257.6-439.64 3.09-.01c62.39-.1 94.33 9.86 113.65 29.24 13.23 13.28 20.4 30.86 27.69 52.12 12 35.01 24.01 79.69 59.93 132.06 42.21 61.53 61.34 102.77 68 132.05 7.38 32.48-1.381 49.19-9.571 62.77-6.37 10.56-12.07 19.71-12.47 31.19v.22h7.281l-266.43 12.59c.15-27.41 2.26-409.18 2.49-452.16 2.15-.03 4.27-.06 6.34-.07Z" fill="#EDEEF0"/><path fill-rule="evenodd" clip-rule="evenodd" d="M741.404 1626.53c1.19-39.77 73.29-63.57-53.54-243.73-83.65-118.82-24.65-219.31-219.54-213.9v457.63h273.08Z" fill="#D4D5D7"/><path fill-rule="evenodd" clip-rule="evenodd" d="M741.402 1626.53v.22h7.3c.22-9.17 4.85-17.34 9.35-27.22 8.06-17.65 16.499-39.73 8.479-76.86-7.09-32.81-27.419-77.96-73.899-143.24-28.27-39.69-40.23-77.4-51.29-109.62-10.27-29.87-19.92-55.14-39.88-73.45-23.58-21.62-61.7-33.82-133.24-31.44a3.975 3.975 0 0 0-3.87 3.98l2.49 457.63c0 .82.66 1.49 1.48 1.49l273.08-1.49Zm-7.29-.04-264.29-1.44s2.22-407.86 2.46-452.25c65.6-1.01 100.979 10.08 122.749 30.49 18.64 17.46 27.14 41.56 36.5 69.83 11.02 33.19 22.981 71.98 51.541 113.04 44.31 63.68 63.81 107.44 70.33 139.28 6.75 33.02-.94 52.53-8.27 68.1-5.54 11.81-10.62 21.76-11.02 32.77v.18Z" fill="#EDEEF0"/><path fill-rule="evenodd" clip-rule="evenodd" d="M741.404 1806.53c1.19-39.77 26.67-136.53-50.39-247.15-92.48-132.74-42.38-173.3-222.69-166.75v413.9h273.08Z" fill="#D4D5D7"/><path fill-rule="evenodd" clip-rule="evenodd" d="M741.404 1806.53v.22h7.3c.6-24.87 10.35-71.83-.8-130.39-6.93-36.47-21.9-77.4-52.16-120.28-34.94-49.57-49.67-86.24-64.07-112.28-10.75-19.45-21.41-33.2-39.17-42.29-23.1-11.82-58.76-15.63-124.31-12.87a3.986 3.986 0 0 0-3.85 3.99l2.4 413.9c0 .88.72 1.59 1.58 1.59l273.08-1.59Zm-7.29-.04-264.18-1.54c.14-26.1 2.13-368.12 2.36-408.45 60.77-1.67 94.2 1.96 115.86 13.37 15.94 8.38 25.19 21.09 34.69 38.74 14.23 26.46 28.71 63.64 63.42 114.08 28.56 41.51 42.52 80.96 48.79 116.04 10.23 57.42-.06 103.25-.94 127.58v.18Z" fill="#EDEEF0"/><path fill-rule="evenodd" clip-rule="evenodd" d="M721.404 1946.53c1.19-39.77 29.76-132.83-40.86-229.99-92.76-127.64-51.91-217.75-232.22-211.2v441.19h273.08Z" fill="#D4D5D7"/><path fill-rule="evenodd" clip-rule="evenodd" d="M721.402 1946.53v.25h8.33c.58-24.32 11.04-68.43 3.35-121.12-5.11-35.03-18.09-73.8-47.05-113.11-29.48-40.03-45.51-76.38-59.45-107.08-13.44-29.58-25.1-54.03-44.17-71.89-24.96-23.38-62.63-35.88-134.26-32.82a4.579 4.579 0 0 0-4.41 4.58l2.83 441.19c0 .97.78 1.75 1.75 1.75l273.08-1.75Zm-8.33-.05-262.99-1.69c.18-28.21 2.51-390.52 2.79-434.99 64.72-1.4 99.28 9.86 122.02 31.71 17.86 17.17 28.36 40.64 40.74 68.84 13.85 31.56 29.81 68.89 59.42 110.18 26.83 37.43 38.66 74.12 43.05 107.22 6.87 51.69-4.16 94.72-5.03 118.53v.2Z" fill="#EDEEF0"/><path fill-rule="evenodd" clip-rule="evenodd" d="M721.404 2118.56c1.19-39.01 27.37-132.33-51.4-244.91-88.51-126.49-41.37-167.45-221.68-161.03v405.94h273.08Z" fill="#D4D5D7"/><path fill-rule="evenodd" clip-rule="evenodd" d="M721.402 2118.56v.22h7.29c.61-24.64 10.83-70.74-1.04-129.5-7.21-35.66-22.47-75.97-52.92-118.95-34.63-48.88-48.66-84.96-63.53-110.35-10.72-18.29-21.9-31.26-40.56-39.77-23.43-10.69-59.17-14.21-122.46-11.58a3.993 3.993 0 0 0-3.85 3.99l2.39 405.94c0 .88.71 1.6 1.6 1.6l273.08-1.6Zm-7.29-.04-264.17-1.56c.15-25.96 2.12-360.57 2.35-400.46 58.8-1.57 92.36 1.88 114.4 12.25 21.62 10.17 31.64 27.18 44.23 52.19 12.23 24.27 26.58 55.86 54.34 96.03 28.76 41.62 43.04 80.48 49.56 114.83 10.92 57.54.17 102.47-.71 126.54v.18Z" fill="#EDEEF0"/><path fill-rule="evenodd" clip-rule="evenodd" d="M721.404 2278.54c1.19-37.66 26.93-127.28-51.4-236.08-88.77-123.28-41.37-187.56-221.68-181.36v417.44h273.08Z" fill="#D4D5D7"/><path fill-rule="evenodd" clip-rule="evenodd" d="M287.144 3703.71c-3.99.23-7.45.23-9.79-.01 0 .01 4.98.01 9.79.01Zm322.38 0c3.99.23 7.45.23 9.79-.01 0 .01-4.98.01-9.79.01Zm-322.38 0c12.09-.68 29.04-3.44 34.51-8 7.27-6.06 10.43-10.94 13.06-24.23 5.27-26.69 5.04-56.96 5.04-94.14-29.59-1034.26-86.64-2068.52-154.58-3102.784-15.61-237.533-9.58-316.611-4.42-342.78v-.001c1.46-7.434 10.98-12.793 18.56-12.793h498.04c7.58 0 17.1 5.359 18.56 12.793v.001c5.16 26.169 11.19 105.247-4.42 342.78-67.94 1034.264-124.99 2068.524-154.58 3102.784 0 37.18-.23 67.45 5.04 94.14 2.63 13.29 5.79 18.17 13.06 24.23 5.47 4.56 22.42 7.32 34.51 8h-322.38Z" fill="#C5C6C8"/><path fill-rule="evenodd" clip-rule="evenodd" d="M33.813 302.34c-6.6-69.102-11.7-111.144-16.91-155.371-4.63-39.338-9.26-80.427-16.88-143.431A3.156 3.156 0 0 1 3.153 0h5.79c11.26 0 20.73 8.414 22.06 19.589.39 3.196.77 6.396 1.15 9.599 70.67 594.451 134.61 1303.202 181.98 1955.432 35.9 494.37 62.29 956.28 74.86 1311.34 6.66 187.88 12.7 420.59 9.51 462.93-1.79 23.78-19.26 51.01-56.45 36.37-23.46-1129.93-87.62-2361.99-208.24-3492.92Zm829.04 0c6.6-69.102 11.7-111.144 16.91-155.371 4.63-39.338 9.26-80.427 16.88-143.431A3.156 3.156 0 0 0 893.513 0h-5.79c-11.26 0-20.73 8.414-22.06 19.589-.39 3.196-.77 6.396-1.15 9.599-70.67 594.451-134.61 1303.202-181.98 1955.432-35.9 494.37-62.29 956.28-74.86 1311.34-6.66 187.88-12.7 420.59-9.51 462.93 1.79 23.78 19.61 47.27 64.78 36.36.22-10.67-7.89-21.34-7.66-32.03 24.01-1121.15 88.09-2340.63 207.57-3460.88Z" fill="#EDEEF0"/><path fill-rule="evenodd" clip-rule="evenodd" d="M243.464 3795.73a31.978 31.978 0 0 0 29.3-4.68 31.935 31.935 0 0 0 12.8-26.76c-13.76-378.72-23.31-739.82-45.5-1095.33-17.2-275.68-39.46-587.44-65.31-909.96-45.43-566.85-103.94-1167.279-164.09-1665.644C52.014 453.93 83.394 858.75 99.614 1256.4c18.9 463.27 21.49 916.58 10.87 1277.5-10.63 361.22-24.09 710.53-59.71 1073.84-5.45 54.64 21.89 107.35 69.69 134.37 43.96 24.89 85.62 41.15 123 53.62Zm420.19-.5a43.458 43.458 0 0 1-36.62-9.55 43.431 43.431 0 0 1-15.24-34.64c13.48-376.8 20.18-727.56 42.31-1082.08 17.2-275.68 39.46-587.44 65.31-909.96 45.43-566.85 106.44-1167.279 166.59-1665.644-16.07 140.156-26.56 286.673-42.96 437.66-24.92 229.494-15.67 480.704-10.63 728.724 8.36 411.9 133.81 948.65 156.34 1257.73 27.916 382.88 25.476 846.48 25.426 1243.25-.01 3.64-1.47 7.12-4.07 9.66-2.6 2.54-6.11 3.92-9.74 3.84-113.796-2.09-268.486 7.5-336.716 21.01Z" fill="#C5C6C8"/><path fill-rule="evenodd" clip-rule="evenodd" d="M776.974 2329.35c-.06-6.32-5.2-11.41-11.52-11.41h-22.08c-6.3 0-11.43 5.05-11.53 11.34-6.35 398.09-6.11 796.19.01 1194.28.09 6.29 5.22 11.34 11.52 11.34h22.08c6.31 0 11.46-5.09 11.51-11.41 3.73-398.05 3.87-796.09.01-1194.14Z" fill="#EDEEF0"/></svg>