<svg width="88" height="48" viewBox="0 0 88 48" fill="none" xmlns="http://www.w3.org/2000/svg"><path d="M56.992 10c-6.213 0-11.765 3.18-11.765 9.056 0 6.74 9.847 7.204 9.847 10.59 0 1.425-1.654 2.701-4.48 2.701-4.008 0-7.005-1.783-7.005-1.783l-1.282 5.93S45.76 38 50.342 38c6.793 0 12.138-3.337 12.138-9.313 0-7.12-9.888-7.572-9.888-10.714 0-1.117 1.357-2.34 4.174-2.34 3.178 0 5.772 1.296 5.772 1.296l1.254-5.727S60.971 10 56.992 10ZM.15 10.432l-.15.865s2.614.472 4.968 1.415c3.03 1.08 3.247 1.71 3.757 3.663l5.563 21.18h7.457l11.488-27.123h-7.44l-7.381 18.44-3.013-15.63c-.276-1.79-1.675-2.81-3.388-2.81H.151Zm36.075 0-5.837 27.122h7.095l5.816-27.122h-7.074Zm39.568 0c-1.71 0-2.617.905-3.282 2.486L62.117 37.553h7.44l1.44-4.106h9.063l.876 4.106H87.5l-5.727-27.122h-5.98Zm.968 7.328 2.205 10.177h-5.908L76.76 17.76Z" fill="#1434CB"/></svg>