<svg width="33" height="48" viewBox="0 0 33 48" fill="none" xmlns="http://www.w3.org/2000/svg"><g clip-path="url(#a)" fill="#272728"><path d="M11.213 39.246c-.305 0-.56.153-.661.407l-1.273 3.309-.102.356-.102-.356-1.018-3.207v-.051a.725.725 0 0 0-.661-.458h-1.63c-.356.05-.61.305-.61.712 0 .102.05.204.05.305l.204.713-.763 1.985-.153.357-.102-.357-.967-3.207v-.05h-.051c-.05-.255-.305-.459-.611-.459H1.134c-.356.051-.661.305-.661.713 0 .102.05.203.101.305l2.392 7.229c.102.304.357.508.662.508.306 0 .56-.204.662-.458l1.68-4.276.153-.407.101.407 1.426 4.226c.05.304.356.508.661.508.306 0 .56-.204.662-.458l2.85-7.33c.052-.101.052-.203.052-.305a.673.673 0 0 0-.662-.661Zm12.064 0c-.305 0-.56.153-.662.407l-1.272 3.309-.102.356-.101-.356-1.019-3.207v-.051a.725.725 0 0 0-.661-.458h-1.63c-.356.05-.61.305-.61.712 0 .102 0 .204.05.305l.204.713-.764 1.985-.152.357-.102-.357-.967-3.207-.051-.05c-.05-.255-.305-.459-.61-.459h-1.63c-.356.051-.661.305-.661.713 0 .102.05.203.101.305l2.393 7.229c.102.304.356.508.662.508.305 0 .56-.204.661-.458l1.68-4.276.153-.407.102.407 1.426 4.226c.05.304.356.508.661.508.305 0 .56-.204.662-.458l2.85-7.33c.051-.101.051-.203.051-.305a.674.674 0 0 0-.662-.661Zm7.839 0h-5.65a.588.588 0 0 0-.61.61v7.483c.05.357.304.611.66.611h1.578a.587.587 0 0 0 .611-.61v-3.513h2.342c.305 0 .61-.305.61-.61 0-.357-.305-.663-.61-.663h-2.342V40.57h3.41a.673.673 0 0 0 .663-.662.673.673 0 0 0-.662-.662Zm-8.755-23.924c1.018 1.12 1.12 4.581 3.715 3.207 1.527-.815 1.527-4.276-.56-5.549-1.68-.967-2.596.357-3.207 1.985-.05.153-.05.255.052.357Zm-4.021-.56c-1.12.865-1.833 3.36-3.818 2.494-1.629-.814-1.781-3.97 1.018-5.447 1.934-.916 2.902.866 2.902 2.75 0 .05-.051.152-.102.203Zm2.647 6.26c1.068-.1.814-1.119 0-1.323-.713-.254-1.782-.407-2.596-.356-1.375 0-1.324 1.069-.612 1.273.56.152.916.203 1.375.814.407.814.204-.255 1.833-.407ZM26.026 3.31c1.323-2.24 3.665-1.833 4.836-.713 1.273 1.222 1.527 2.647 1.018 3.614-.662 1.324-2.392 2.902-3.512 1.375-.509-.713-1.527-1.527-2.138-1.731-.866-.407-1.018-1.171-.204-2.545Z"/><path d="M31.37 13.133c-.1-.407-.305-.356-.305-.05.102 4.071-2.341 8.449-7.533 8.5-1.323 0-.916 2.087-3.36 1.018-1.73-1.17-2.748 1.17-3.97-1.323-.306-.713-.713-1.019-1.222-1.171-5.141-1.273-6.77-8.348-2.24-14.05.866.56 1.222.662 2.19-.254.457-.458 1.323-.967 1.78-1.12 1.07-.407 1.68-.865.713-2.952C16.978.748 16.371.224 15.724 0h-1.729c-.494.147-.955.39-1.357.713-1.323 1.069-2.189 2.748-.56 4.734-4.58 3.105-5.395 6.922-5.293 10.282.101 3.512-.764 3.207.356 6.77.102.305-.153.305-.305.204-4.785-3.055-7.381-12.42.101-17.562.153-.152.102-.356-.509 0C-.036 8.551-.647 15.17.422 19.648c.509 2.138-.255 2.546.56 5.396 1.934 5.905 3.563 6.413 5.904 6.567 4.225 0 1.324-2.342 1.528-5.243 0-.204.203-.255.305.101 2.341 5.192 3.97 9.926 10.079 9.468 3.511-.458 1.577-2.189 1.323-3.207-2.596-8.602 3.715-10.638 1.934-2.24-1.17 4.836 2.545 4.327 5.192 2.596 2.698-1.73 6.058-13.488 4.124-19.953ZM21.089 23.364c-.61 1.528-3.614 1.018-3.716-.509 0-.05.102-.05.102 0 1.374.306 2.647.458 3.512.458.051 0 .102-.05.102.051Z"/><path d="M7.904 34.258a1.477 1.477 0 0 1-1.476 1.476c-.865 0-1.527-.662-1.527-1.477a1.53 1.53 0 0 1 1.527-1.526c.815 0 1.476.712 1.476 1.526Zm-1.476-1.782c-1.018 0-1.832.764-1.832 1.781 0 .968.814 1.782 1.832 1.782.968 0 1.782-.815 1.782-1.782a1.77 1.77 0 0 0-1.782-1.781Z"/><path d="M6.937 34.512a.48.48 0 0 1-.458.407c-.356 0-.61-.305-.61-.661 0-.357.203-.662.56-.662.254 0 .457.153.508.356h.255c-.051-.407-.356-.61-.764-.61-.509 0-.865.407-.865.916 0 .508.356.916.916.916.357 0 .611-.255.713-.662h-.255Zm24.536 2.087a1.478 1.478 0 0 1-1.477 1.476c-.865 0-1.526-.661-1.526-1.476s.66-1.527 1.526-1.527c.814 0 1.477.712 1.477 1.527Zm-1.477-1.782c-1.018 0-1.832.764-1.832 1.782 0 .967.814 1.781 1.832 1.781.968 0 1.782-.814 1.782-1.781a1.77 1.77 0 0 0-1.782-1.782Z"/><path d="M29.69 36.7h.255l.459.765h.304L30.2 36.7c.254-.051.457-.153.457-.458 0-.357-.203-.51-.61-.51h-.611v1.732h.254V36.7Zm0-.203v-.509h.306c.204 0 .408 0 .408.204 0 .305-.204.305-.408.305h-.305Z"/></g><defs><clipPath id="a"><path fill="#fff" d="M0 0h33v48H0z"/></clipPath></defs></svg>