<svg width="454" height="863" viewBox="0 0 454 863" fill="none" xmlns="http://www.w3.org/2000/svg"><path d="M396.833 745.613a13.366 13.366 0 0 0 2.887-3.566 13.366 13.366 0 0 0 2.887 3.566 4.376 4.376 0 0 1 1.349 4.408 4.377 4.377 0 0 1-4.236 3.266 4.382 4.382 0 0 1-4.236-3.266 4.384 4.384 0 0 1 1.349-4.408ZM435.19 7H18C11.925 7 7 11.925 7 18v826.8c0 6.075 4.925 11 11 11h28.45c6.075 0 11-4.925 11-11V448.32a3.7 3.7 0 0 1 7.4 0V844.8c0 6.075 4.925 11 11 11h359.34c6.075 0 11-4.925 11-11V18c0-6.075-4.925-11-11-11Zm-39.68 809.06V787h8.2v29.06h-8.2ZM73.16 74a12 12 0 1 1-24 0 12 12 0 0 1 24 0Zm-9.33 338.419a2.68 2.68 0 1 1-2.685-2.689 2.692 2.692 0 0 1 2.685 2.689Z" fill="#6B7280" stroke="#374151" stroke-width="14" stroke-miterlimit="10"/></svg>