<svg width="992" height="715" viewBox="0 0 992 715" fill="none" xmlns="http://www.w3.org/2000/svg"><g clip-path="url(#a)"><path fill="#4B5563" d="M0 0h992v715H0z"/><g filter="url(#b)"><path fill="#374151" d="M0 0h992v36H0z"/><path d="M15.5 22.167v-8.334m0 8.334a1.667 1.667 0 0 1-1.667 1.666h-1.666a1.667 1.667 0 0 1-1.667-1.666v-8.334a1.667 1.667 0 0 1 1.667-1.666h1.666a1.666 1.666 0 0 1 1.667 1.666m0 8.334a1.667 1.667 0 0 0 1.667 1.666h1.666a1.667 1.667 0 0 0 1.667-1.666m-5-8.334a1.667 1.667 0 0 1 1.667-1.666h1.666a1.666 1.666 0 0 1 1.667 1.666m0 8.334v-8.334m0 8.334a1.667 1.667 0 0 0 1.667 1.666h1.666a1.667 1.667 0 0 0 1.667-1.666v-8.334a1.667 1.667 0 0 0-1.667-1.666h-1.666a1.666 1.666 0 0 0-1.667 1.666" stroke="#9CA3AF" stroke-width="2" stroke-linecap="round" stroke-linejoin="round"/><path d="M235.398 9.764H37.745A2.745 2.745 0 0 0 35 12.51v10.98a2.745 2.745 0 0 0 2.745 2.745h197.653a2.745 2.745 0 0 0 2.745-2.745V12.51a2.745 2.745 0 0 0-2.745-2.746Z" fill="#6B7280"/><path d="M937.5 20.5h2.5l-.703-.703a1.02 1.02 0 0 1-.297-.718V17.5a3.003 3.003 0 0 0-2-2.83v-.17a.998.998 0 0 0-1-1 1 1 0 0 0-1 1v.17a3.002 3.002 0 0 0-2 2.83v1.58c0 .269-.107.527-.297.718L932 20.5h2.5m3 0h-3m3 0v.5a1.501 1.501 0 0 1-3 0v-.5" stroke="#9CA3AF" stroke-linecap="round" stroke-linejoin="round"/><path d="M953 13.8a1.2 1.2 0 0 0-1.2 1.2v1.2a1.197 1.197 0 0 0 1.2 1.2h1.2a1.202 1.202 0 0 0 1.2-1.2V15a1.2 1.2 0 0 0-1.2-1.2H953Zm0 4.8a1.2 1.2 0 0 0-1.2 1.2V21a1.197 1.197 0 0 0 1.2 1.2h1.2a1.202 1.202 0 0 0 1.2-1.2v-1.2a1.2 1.2 0 0 0-1.2-1.2H953Zm3.6-3.6a1.2 1.2 0 0 1 1.2-1.2h1.2a1.202 1.202 0 0 1 1.2 1.2v1.2a1.2 1.2 0 0 1-1.2 1.2h-1.2a1.2 1.2 0 0 1-1.2-1.2V15Zm0 4.8a1.2 1.2 0 0 1 1.2-1.2h1.2a1.202 1.202 0 0 1 1.2 1.2V21a1.2 1.2 0 0 1-1.2 1.2h-1.2a1.2 1.2 0 0 1-1.2-1.2v-1.2Z" fill="#9CA3AF"/><path d="M972.987 21.386A8.131 8.131 0 0 1 977 20.333a8.13 8.13 0 0 1 4.013 1.053m-2.263-4.553a1.747 1.747 0 0 1-1.75 1.75 1.749 1.749 0 1 1 1.75-1.75Zm3.5 1.167a5.248 5.248 0 0 1-3.241 4.85A5.252 5.252 0 0 1 971.75 18a5.248 5.248 0 0 1 8.962-3.712A5.248 5.248 0 0 1 982.25 18Z" stroke="#6B7280" stroke-linecap="round" stroke-linejoin="round"/></g><path fill="#1F2A37" d="M0 37h992v678H0z"/><path fill="#374151" d="M0 37h194v678H0z"/><rect x="20" y="57" width="8" height="8" rx="4" fill="#9CA3AF"/><rect x="36" y="57" width="88" height="8" rx="2" fill="#9CA3AF"/><rect x="20" y="85" width="8" height="8" rx="4" fill="#9CA3AF"/><rect x="36" y="85" width="132" height="8" rx="2" fill="#9CA3AF"/><rect x="20" y="113" width="8" height="8" rx="4" fill="#9CA3AF"/><rect x="36" y="113" width="129" height="8" rx="2" fill="#9CA3AF"/><rect x="20" y="141" width="8" height="8" rx="4" fill="#9CA3AF"/><rect x="36" y="141" width="103" height="8" rx="2" fill="#9CA3AF"/><rect x="20" y="169" width="8" height="8" rx="4" fill="#9CA3AF"/><rect x="36" y="169" width="130" height="8" rx="2" fill="#9CA3AF"/><rect x="20" y="197" width="8" height="8" rx="4" fill="#9CA3AF"/><rect x="36" y="197" width="92" height="8" rx="2" fill="#9CA3AF"/><rect x="20" y="225" width="8" height="8" rx="4" fill="#9CA3AF"/><rect x="36" y="225" width="136" height="8" rx="2" fill="#9CA3AF"/><rect x="77.5" y="694" width="5" height="5" rx="2.5" fill="#9CA3AF"/><rect x="94.5" y="694" width="5" height="5" rx="2.5" fill="#9CA3AF"/><rect x="111.5" y="694" width="5" height="5" rx="2.5" fill="#9CA3AF"/><rect x="214" y="57" width="758" height="243.528" rx="4" fill="#374151"/><rect x="230" y="73" width="73" height="7" rx="2" fill="#9CA3AF"/><rect x="230" y="84" width="39" height="5" rx="2" fill="#6B7280"/><path d="M230.988 191.074c41.748-5.276 38.964 26.064 93.932 30.637 54.967 4.572 70.274-27.434 95.323-36.579 25.048-9.145 36.181-50.816 77.928-48.002s62.621 31.007 97.411 34.524c34.789 3.517 41.747 26.843 74.449 44.077 32.702 17.235 62.621 19.345 103.672 15.828 41.052-3.518 52.185-39.078 71.667-40.485 19.482-1.407 36.877 15.551 53.575 19.42 16.699 3.869 21.57 21.065 57.055 21.065" stroke="#9CA3AF" stroke-width="3" stroke-linecap="round" stroke-linejoin="round"/><path d="M230 240.994c31.932-2.889 58.191-20.508 96.292-23.47 20.307-1.578 36.576 1.494 54.727 6.268 18.151 4.773 14.598 6.834 55.42 10.514 33.687 3.037 42.499-29.705 75.509-28.447 33.011 1.258 48.278-38.108 83.13-34.822 34.852 3.287 41.815-5.21 74.576 10.892 32.761 16.102 63.028-21.43 104.153-24.716 41.125-3.286 51.836 31.592 71.353 30.277 19.517-1.314 37.09 23.539 53.818 27.154 16.729 3.614 21.473-9.517 57.022-9.517" stroke="#6B7280" stroke-width="3" stroke-linecap="round" stroke-linejoin="round"/><rect x="510" y="274.028" width="5" height="5" rx="2" fill="#6B7280"/><rect x="519" y="274.028" width="22" height="5" rx="2" fill="#6B7280"/><rect x="567" y="274.028" width="5" height="5" rx="2" fill="#6B7280"/><rect x="576" y="274.028" width="39" height="5" rx="2" fill="#6B7280"/><rect x="641" y="274.028" width="5" height="5" rx="2" fill="#6B7280"/><rect x="650" y="274.028" width="26" height="5" rx="2" fill="#6B7280"/><g clip-path="url(#c)"><rect x="214" y="320.528" width="239.333" height="251" rx="4" fill="#374151"/><rect x="230" y="336.528" width="73" height="7" rx="2" fill="#9CA3AF"/><rect x="230" y="347.528" width="39" height="5" rx="2" fill="#6B7280"/><path d="M233 571.528a3 3 0 0 1-3-3v-191a3 3 0 0 1 3-3h8a3 3 0 0 1 3 3v191a3 3 0 0 1-3 3h-8Zm30 0v-125a3 3 0 0 1 3-3h7a3 3 0 0 1 3 3v125h-13Zm32 0v-143a3 3 0 0 1 3-3h8a3 3 0 0 1 3 3v143h-14Zm33 0v-119a3 3 0 0 1 3-3h7a3 3 0 0 1 3 3v119h-13Zm32 0v-100a3 3 0 0 1 3-3h8a3 3 0 0 1 3 3v100h-14Zm33 0v-139a3 3 0 0 1 3-3h7a3 3 0 0 1 3 3v139h-13Zm32 0v-147a3 3 0 0 1 3-3h8a3 3 0 0 1 3 3v147h-14Z" fill="#9CA3AF"/></g><g clip-path="url(#d)"><rect x="473.333" y="320.528" width="239.333" height="251" rx="4" fill="#374151"/><g clip-path="url(#e)"><rect x="489.333" y="336.528" width="73" height="7" rx="2" fill="#9CA3AF"/><rect x="489.333" y="347.528" width="39" height="5" rx="2" fill="#6B7280"/></g><g opacity=".3" fill-rule="evenodd" clip-rule="evenodd"><path d="M473.333 383.121s16.607 65.619 34.191 65.619c16.607 0 16.607-27.838 34.19-27.838 16.607 0 16.607 45.734 34.191 45.734 16.606 0 16.606-89.481 34.19-89.481 16.607 0 16.607 137.205 34.191 137.205 16.606 0 16.606-55.678 34.19-55.678 16.607 0 34.191 47.724 34.191 47.724v65.122H473.333V383.121Z" fill="#6B7280"/><path d="M473.333 383.121s16.607 65.619 34.191 65.619c16.607 0 16.607-27.838 34.19-27.838 16.607 0 16.607 45.734 34.191 45.734 16.606 0 16.606-89.481 34.19-89.481 16.607 0 16.607 137.205 34.191 137.205 16.606 0 16.606-55.678 34.19-55.678 16.607 0 34.191 47.724 34.191 47.724v65.122H473.333V383.121Z" fill="url(#f)"/></g><path fill-rule="evenodd" clip-rule="evenodd" d="M610.095 374.528c7.935 0 11.418 15.99 17.612 65.13l1.245 9.9c5.703 44.737 9.484 61.557 15.334 61.557 5.73 0 8.966-5.922 14.457-23.473l.872-2.815c6.596-21.387 10.672-29.139 18.861-29.139.953 0 1.918.142 2.893.419 7.006 1.993 14.293 10.794 21.595 24.196 2.877 5.278 5.558 10.924 7.977 16.57.635 1.482 1.085 2.884 1.612 4.189v8.686l-1.989-4.52a200.918 200.918 0 0 0-2.185-5.3c-2.352-5.49-4.959-10.978-7.745-16.092-6.869-12.606-13.656-20.805-19.795-22.551a8.625 8.625 0 0 0-2.363-.343c-6.132 0-9.599 5.926-15.048 23.05l-2.416 7.739c-5.754 18.09-9.544 24.637-16.726 24.637-8.513 0-12.274-17.016-18.7-67.969l-1.52-12.052c-5.294-41.146-8.794-56.565-13.971-56.565-6.121 0-9.758 10.728-15.586 40.769l-1.478 7.652c-5.918 30.222-9.577 40.657-17.126 40.657-7.596 0-11.685-5.67-17.622-20.924l-2.668-7.003c-5.116-13.157-8.293-17.602-13.901-17.602-6.558 0-10.011 3.025-15.62 11.92l-1.11 1.787c-6.347 10.289-10.197 14.006-17.46 14.006-8.417 0-16.797-12.736-25.01-33.859-2.813-7.236-5.406-14.974-7.72-22.712l-.927-3.153c-.147-.508-.29-1.008-.429-1.499v-4.647l.047-7.843 1.298 4.737.731 2.742.771 2.765c.408 1.44.851 2.962 1.327 4.553 2.265 7.573 4.801 15.144 7.544 22.198 7.661 19.705 15.399 31.465 22.368 31.465 5.985 0 9.18-2.844 14.552-11.375l1.08-1.739c6.59-10.683 10.708-14.599 18.558-14.599 7.266 0 11.097 5.715 17.109 21.465l.955 2.531c6.05 16.114 9.519 21.533 16.127 21.533 5.41 0 8.771-9.713 14.136-37.055l1.843-9.527c6.157-31.418 10.094-42.497 18.211-42.497Z" fill="#9CA3AF"/></g><g clip-path="url(#g)"><rect x="732.667" y="320.528" width="239.333" height="251" rx="4" fill="#374151"/><rect x="748.667" y="336.528" width="73" height="7" rx="2" fill="#9CA3AF"/><rect x="748.667" y="347.528" width="39" height="5" rx="2" fill="#6B7280"/><path d="M751.667 571.528a3 3 0 0 1-3-3v-191a3 3 0 0 1 3-3h8a3 3 0 0 1 3 3v191a3 3 0 0 1-3 3h-8Z" fill="#9CA3AF"/><path d="M770.667 571.528a3 3 0 0 1-3-3v-132a3 3 0 0 1 3-3h8a3 3 0 0 1 3 3v132a3 3 0 0 1-3 3h-8Z" fill="#6B7280"/><path d="M796.667 571.528a3 3 0 0 1-3-3v-81a3 3 0 0 1 3-3h8a3 3 0 0 1 3 3v81a3 3 0 0 1-3 3h-8Z" fill="#9CA3AF"/><path d="M815.667 571.528a3 3 0 0 1-3-3v-153a3 3 0 0 1 3-3h8a3 3 0 0 1 3 3v153a3 3 0 0 1-3 3h-8Z" fill="#6B7280"/><path d="M841.667 571.528a3 3 0 0 1-3-3v-164a3 3 0 0 1 3-3h8a3 3 0 0 1 3 3v164a3 3 0 0 1-3 3h-8Z" fill="#9CA3AF"/><path d="M860.667 571.528a3 3 0 0 1-3-3v-185a3 3 0 0 1 3-3h8a3 3 0 0 1 3 3v185a3 3 0 0 1-3 3h-8Z" fill="#6B7280"/><path d="M886.667 571.528a3 3 0 0 1-3-3v-164a3 3 0 0 1 3-3h8a3 3 0 0 1 3 3v164a3 3 0 0 1-3 3h-8Z" fill="#9CA3AF"/><path d="M905.667 571.528a3 3 0 0 1-3-3v-79a3 3 0 0 1 3-3h8a3 3 0 0 1 3 3v79a3 3 0 0 1-3 3h-8Z" fill="#6B7280"/><path d="M931.667 571.528a3 3 0 0 1-3-3v-146a3 3 0 0 1 3-3h8a3 3 0 0 1 3 3v146a3 3 0 0 1-3 3h-8Z" fill="#9CA3AF"/><path d="M950.667 571.528a3 3 0 0 1-3-3v-110a3 3 0 0 1 3-3h8a3 3 0 0 1 3 3v110a3 3 0 0 1-3 3h-8Z" fill="#6B7280"/></g><rect x="214" y="591.528" width="171.333" height="93" rx="4" fill="#374151"/><rect x="224" y="601.528" width="40" height="4" rx="1" fill="#9CA3AF"/><rect x="224" y="622.528" width="152" height="4" rx="1" fill="#6B7280"/><rect x="224" y="631.528" width="81" height="4" rx="1" fill="#6B7280"/><rect x="224" y="652.528" width="43" height="14" rx="2" fill="#1A56DB"/><rect x="231" y="658.028" width="29" height="3" rx="1" fill="#fff"/><rect x="274" y="652.528" width="43" height="14" rx="2" fill="#4B5563"/><rect x="281" y="658.028" width="29" height="3" rx="1" fill="#9CA3AF"/><rect x="405.333" y="591.528" width="184" height="93" rx="4" fill="#374151"/><rect x="415.333" y="601.528" width="40" height="4" rx="2" fill="#9CA3AF"/><rect x="565.333" y="602.528" width="14" height="2" rx="1" fill="#6B7280"/><rect x="415.333" y="622.528" width="30.5" height="4" rx="1" fill="#6B7280"/><rect x="459.833" y="622.528" width="30.5" height="4" rx="1" fill="#6B7280"/><rect x="504.333" y="622.528" width="30.5" height="4" rx="1" fill="#6B7280"/><rect x="548.833" y="622.528" width="30.5" height="4" rx="1" fill="#6B7280"/><rect x="415.333" y="634.528" width="30.5" height="4" rx="1" fill="#6B7280"/><rect x="459.833" y="634.528" width="30.5" height="4" rx="1" fill="#6B7280"/><rect x="504.333" y="634.528" width="30.5" height="4" rx="1" fill="#6B7280"/><rect x="548.833" y="634.528" width="30.5" height="4" rx="1" fill="#6B7280"/><rect x="415.333" y="646.528" width="30.5" height="4" rx="1" fill="#6B7280"/><rect x="459.833" y="646.528" width="30.5" height="4" rx="1" fill="#6B7280"/><rect x="504.333" y="646.528" width="30.5" height="4" rx="1" fill="#6B7280"/><rect x="548.833" y="646.528" width="30.5" height="4" rx="1" fill="#6B7280"/><rect x="415.333" y="658.528" width="30.5" height="4" rx="1" fill="#6B7280"/><rect x="459.833" y="658.528" width="30.5" height="4" rx="1" fill="#6B7280"/><rect x="504.333" y="658.528" width="30.5" height="4" rx="1" fill="#6B7280"/><rect x="548.833" y="658.528" width="30.5" height="4" rx="1" fill="#6B7280"/><rect x="415.333" y="670.528" width="30.5" height="4" rx="1" fill="#6B7280"/><rect x="459.833" y="670.528" width="30.5" height="4" rx="1" fill="#6B7280"/><rect x="504.333" y="670.528" width="30.5" height="4" rx="1" fill="#6B7280"/><rect x="548.833" y="670.528" width="30.5" height="4" rx="1" fill="#6B7280"/><rect x="609.333" y="591.528" width="171.333" height="92.675" rx="4" fill="#374151"/><rect x="619.333" y="601.528" width="40" height="4" rx="2" fill="#9CA3AF"/><rect x="766.667" y="601.528" width="4" height="4" rx="2" fill="#9CA3AF"/><rect x="619.333" y="619.528" width="113" height="5" rx="2.5" fill="#6B7280"/><rect x="619.333" y="629.528" width="92" height="5" rx="2.5" fill="#6B7280"/><rect x="619.333" y="639.528" width="109" height="5" rx="2.5" fill="#6B7280"/><rect x="619.333" y="649.528" width="64" height="5" rx="2.5" fill="#6B7280"/><rect x="619.333" y="669.366" width="4" height="4" rx="2" fill="#9CA3AF"/><rect x="623.333" y="669.366" width="4" height="4" rx="2" fill="#9CA3AF"/><rect x="627.333" y="669.366" width="4" height="4" rx="2" fill="#9CA3AF"/><rect x="741.149" y="668.528" width="29.517" height="5.675" rx="2" fill="#6B7280"/><rect x="800.667" y="591.528" width="171.333" height="92.675" rx="4" fill="#374151"/><rect x="810.667" y="601.528" width="40" height="4" rx="2" fill="#9CA3AF"/><rect x="958" y="601.528" width="4" height="4" rx="2" fill="#9CA3AF"/><rect x="810.667" y="619.528" width="113" height="5" rx="2.5" fill="#6B7280"/><rect x="810.667" y="629.528" width="92" height="5" rx="2.5" fill="#6B7280"/><rect x="810.667" y="639.528" width="109" height="5" rx="2.5" fill="#6B7280"/><rect x="810.667" y="649.528" width="64" height="5" rx="2.5" fill="#6B7280"/><rect x="810.667" y="669.366" width="4" height="4" rx="2" fill="#9CA3AF"/><rect x="814.667" y="669.366" width="4" height="4" rx="2" fill="#9CA3AF"/><rect x="818.667" y="669.366" width="4" height="4" rx="2" fill="#9CA3AF"/><rect x="932.482" y="668.528" width="29.517" height="5.675" rx="2" fill="#6B7280"/></g><defs><clipPath id="a"><path fill="#fff" d="M0 0h992v715H0z"/></clipPath><clipPath id="c"><rect x="214" y="320.528" width="239.333" height="251" rx="4" fill="#fff"/></clipPath><clipPath id="d"><rect x="473.333" y="320.528" width="239.333" height="251" rx="4" fill="#fff"/></clipPath><clipPath id="e"><path fill="#fff" transform="translate(473.333 336.528)" d="M0 0h239.333v16H0z"/></clipPath><clipPath id="g"><rect x="732.667" y="320.528" width="239.333" height="251" rx="4" fill="#fff"/></clipPath><linearGradient id="f" x1="593" y1="377.155" x2="593" y2="571.528" gradientUnits="userSpaceOnUse"><stop stop-color="#fff" stop-opacity="0"/><stop offset="1" stop-color="#374151"/></linearGradient><filter id="b" x="-3" y="-2" width="998" height="42" filterUnits="userSpaceOnUse" color-interpolation-filters="sRGB"><feFlood flood-opacity="0" result="BackgroundImageFix"/><feColorMatrix in="SourceAlpha" values="0 0 0 0 0 0 0 0 0 0 0 0 0 0 0 0 0 0 127 0" result="hardAlpha"/><feOffset dy="1"/><feGaussianBlur stdDeviation="1.5"/><feColorMatrix values="0 0 0 0 0 0 0 0 0 0 0 0 0 0 0 0 0 0 0.1 0"/><feBlend in2="BackgroundImageFix" result="effect1_dropShadow_2876_5077"/><feColorMatrix in="SourceAlpha" values="0 0 0 0 0 0 0 0 0 0 0 0 0 0 0 0 0 0 127 0" result="hardAlpha"/><feOffset dy="1"/><feGaussianBlur stdDeviation="1"/><feColorMatrix values="0 0 0 0 0 0 0 0 0 0 0 0 0 0 0 0 0 0 0.06 0"/><feBlend in2="effect1_dropShadow_2876_5077" result="effect2_dropShadow_2876_5077"/><feBlend in="SourceGraphic" in2="effect2_dropShadow_2876_5077" result="shape"/></filter></defs></svg>